<?xml version="1.0" encoding="UTF-8" standalone="no"?>
<!-- Created with Inkscape (http://www.inkscape.org/) -->

<svg
   xmlns:dc="http://purl.org/dc/elements/1.1/"
   xmlns:cc="http://creativecommons.org/ns#"
   xmlns:rdf="http://www.w3.org/1999/02/22-rdf-syntax-ns#"
   xmlns:svg="http://www.w3.org/2000/svg"
   xmlns="http://www.w3.org/2000/svg"
   xmlns:sodipodi="http://sodipodi.sourceforge.net/DTD/sodipodi-0.dtd"
   xmlns:inkscape="http://www.inkscape.org/namespaces/inkscape"
   width="120"
   height="120"
   id="svg3007"
   version="1.1"
   inkscape:version="0.48.2 r9819"
   sodipodi:docname="alw_bienenstand_saisonal_9.svg">
  <defs
     id="defs3009" />
  <sodipodi:namedview
     id="base"
     pagecolor="#ffffff"
     bordercolor="#666666"
     borderopacity="1.0"
     inkscape:pageopacity="0.0"
     inkscape:pageshadow="2"
     inkscape:zoom="64"
     inkscape:cx="76.274059"
     inkscape:cy="42.800683"
     inkscape:document-units="px"
     inkscape:current-layer="layer1"
     showgrid="true"
     inkscape:snap-grids="true"
     inkscape:window-width="1366"
     inkscape:window-height="716"
     inkscape:window-x="-8"
     inkscape:window-y="-8"
     inkscape:window-maximized="1"
     inkscape:snap-nodes="true">
    <inkscape:grid
       type="xygrid"
       id="grid3015"
       empspacing="5"
       visible="true"
       enabled="true"
       snapvisiblegridlinesonly="true" />
  </sodipodi:namedview>
  <metadata
     id="metadata3012">
    <rdf:RDF>
      <cc:Work
         rdf:about="">
        <dc:format>image/svg+xml</dc:format>
        <dc:type
           rdf:resource="http://purl.org/dc/dcmitype/StillImage" />
        <dc:title></dc:title>
      </cc:Work>
    </rdf:RDF>
  </metadata>
  <g
     inkscape:label="Ebene 1"
     inkscape:groupmode="layer"
     id="layer1"
     transform="translate(0,-932.36218)">
    <rect
       style="fill:#99cc33;fill-opacity:1"
       id="rect3026"
       width="50"
       height="15"
       x="35"
       y="70"
       transform="translate(0,932.36218)" />
    <path
       style="fill:none;stroke:none;stroke-width:1px;stroke-linecap:butt;stroke-linejoin:miter;stroke-opacity:1"
       d="m 10,25 10,-5 5,5 -5,5 z"
       id="path3812"
       inkscape:connector-curvature="0"
       transform="translate(0,932.36218)" />
    <path
       style="fill:#cc3300;stroke:#000000;stroke-width:0.5;stroke-linecap:butt;stroke-linejoin:miter;stroke-opacity:1;fill-opacity:1;stroke-miterlimit:4;stroke-dasharray:none"
       d="m 28,46 3,0 58,0 3,0 0,-9 3,1 0,-3 -35,-10 -35,10 0,3 3,-1 z"
       id="path3816"
       inkscape:connector-curvature="0"
       transform="translate(0,932.36218)" />
    <path
       style="fill:#990000;fill-opacity:1;stroke:#000000;stroke-width:0.5;stroke-miterlimit:4;stroke-opacity:1;stroke-dasharray:none"
       d="m 31,1002.3622 0,-24.00002 29,0 29,0 0,24.00002 0,25 -2,0 -2,0 0,-2 0,-2 -25,0 -25,0 0,2 0,2 -2,0 -2,0 z m 54,7 0,-7 -24.955357,0 -25.044643,0 0,7.5446 0,7.4554 25,0 25,0 z"
       id="path3828"
       inkscape:connector-curvature="0"
       sodipodi:nodetypes="cccccccccccccccccccccccccc" />
    <path
       sodipodi:type="arc"
       style="fill:#ffffff;fill-opacity:1;stroke:#000000;stroke-opacity:1;stroke-width:0.5;stroke-miterlimit:4;stroke-dasharray:none"
       id="path3789"
       sodipodi:cx="60"
       sodipodi:cy="30"
       sodipodi:rx="2"
       sodipodi:ry="2"
       d="m 62,30 c 0,1.104569 -0.895431,2 -2,2 -1.104569,0 -2,-0.895431 -2,-2 0,-1.104569 0.895431,-2 2,-2 1.104569,0 2,0.895431 2,2 z"
       transform="translate(0,932.36218)" />
    <path
       style="fill:#000000;fill-opacity:1;stroke:none"
       d="m 40,1010.3622 40,0 0,3 -40,0 z"
       id="path3804"
       inkscape:connector-curvature="0"
       sodipodi:nodetypes="ccccc" />
    <path
       style="fill:#99cc33;fill-opacity:1;stroke:#000000;stroke-width:0.5;stroke-miterlimit:4;stroke-opacity:1;stroke-dasharray:none"
       d="m 55.049654,114.65515 c -0.34375,-0.0497 -1.6375,-0.21648 -2.875,-0.37073 -7.70928,-0.96089 -16.46731,-4.39124 -23.25,-9.10657 C 16.165436,96.307616 8.0410684,83.218434 5.6552803,67.688519 5.0772006,63.925599 5.0711161,56.441046 5.642926,52.491539 8.8374829,30.426646 24.87339,12.393468 46.148806,6.9406566 c 5.279495,-1.3531154 8.337985,-1.727362 14.025848,-1.7162478 5.751727,0.011239 9.672632,0.5433085 14.748515,2.0013844 21.69026,6.2306478 37.153391,24.5918128 39.634861,47.0630428 0.42677,3.864643 0.19208,11.27076 -0.4761,15.024683 -3.36476,18.90347 -16.211384,34.691901 -33.947691,41.721531 -6.562143,2.60084 -13.146475,3.80644 -20.450083,3.74442 -2.205227,-0.0187 -4.290752,-0.0747 -4.634502,-0.12432 z M 89,46 l 3,0 0,-9 3,1 0,-3 -35,-10 -35,10 0,3 3,-1 c 0,0 0,5.618512 0,9 l 3,0 0,49 4,0 0,-4 50,0 0,4 4,0 z"
       id="path3809"
       inkscape:connector-curvature="0"
       transform="translate(0,932.36218)"
       sodipodi:nodetypes="csssssssssscccccccccccccccccccc" />
  </g>
</svg>
