<?xml version="1.0" encoding="UTF-8" standalone="no"?>
<!-- Created with Inkscape (http://www.inkscape.org/) -->

<svg
   xmlns:dc="http://purl.org/dc/elements/1.1/"
   xmlns:cc="http://creativecommons.org/ns#"
   xmlns:rdf="http://www.w3.org/1999/02/22-rdf-syntax-ns#"
   xmlns:svg="http://www.w3.org/2000/svg"
   xmlns="http://www.w3.org/2000/svg"
   xmlns:sodipodi="http://sodipodi.sourceforge.net/DTD/sodipodi-0.dtd"
   xmlns:inkscape="http://www.inkscape.org/namespaces/inkscape"
   width="400"
   height="200"
   id="svg2"
   version="1.1"
   inkscape:version="0.48.4 r9939"
   sodipodi:docname="backstein.svg">
  <defs
     id="defs4" />
  <sodipodi:namedview
     id="base"
     pagecolor="#ffffff"
     bordercolor="#666666"
     borderopacity="1.0"
     inkscape:pageopacity="0.0"
     inkscape:pageshadow="2"
     inkscape:zoom="1.6131904"
     inkscape:cx="176.01659"
     inkscape:cy="105.59281"
     inkscape:document-units="px"
     inkscape:current-layer="layer1"
     showgrid="false"
     inkscape:window-width="1407"
     inkscape:window-height="720"
     inkscape:window-x="128"
     inkscape:window-y="156"
     inkscape:window-maximized="0" />
  <metadata
     id="metadata7">
    <rdf:RDF>
      <cc:Work
         rdf:about="">
        <dc:format>image/svg+xml</dc:format>
        <dc:type
           rdf:resource="http://purl.org/dc/dcmitype/StillImage" />
        <dc:title />
      </cc:Work>
    </rdf:RDF>
  </metadata>
  <g
     inkscape:label="Ebene 1"
     inkscape:groupmode="layer"
     id="layer1"
     transform="translate(0,-852.36218)">
    <path
       id="rect3783-1-7-0"
       style="font-size:medium;font-style:normal;font-variant:normal;font-weight:normal;font-stretch:normal;text-indent:0;text-align:start;text-decoration:none;line-height:normal;letter-spacing:normal;word-spacing:normal;text-transform:none;direction:ltr;block-progression:tb;writing-mode:lr-tb;text-anchor:start;baseline-shift:baseline;color:#000000;fill:#000000;fill-opacity:1;fill-rule:nonzero;stroke:none;stroke-width:10;marker:none;visibility:visible;display:inline;overflow:visible;enable-background:accumulate;font-family:Sans;-inkscape-font-specification:Sans"
       d="m 383.94576,952.63543 4.24123,0.0109 7.6342,0.02 4.24123,0.0109 0.002,-1.05016 0.19456,-82.43568 0.002,-0.83703 -4.24123,-0.22449 -7.6342,-0.0207 -4.24123,-0.0114 -0.002,1.05015 -0.19456,82.43567 -0.002,1.05004 z M 190,1052.32 l 4.15928,0.011 7.48669,0.02 4.15928,0.011 0.002,-1.0554 0.1908,-82.84533 0.002,-1.05535 -4.15928,-0.0116 -7.48669,-0.0208 -4.15928,-0.0116 -0.002,1.05536 -0.1908,82.84532 -0.002,1.0553 z M 0,952.36218 l 0,4.21053 0,7.57894 0,4.21053 4.968944,0 390.062106,0 4.96894,0 0,-4.21053 0,-7.57894 0,-4.21053 -4.96894,0 -390.062106,0 z m 0,-100 0,4.21053 0,7.57894 0,4.21053 4.9689441,0 390.0621159,0 5.22077,0.0387 0.0387,-4.17178 0,-7.61769 0.0194,-4.26864 -5.27888,0.0194 -390.0621159,0 z"
       inkscape:connector-curvature="0"
       sodipodi:nodetypes="cccccccccccccccccccccccccccccccccccccccccccccccccccccc" />
  </g>
</svg>
