<?xml version="1.0" encoding="UTF-8" standalone="no"?>
<!-- Created with Inkscape (http://www.inkscape.org/) -->

<svg
   xmlns:dc="http://purl.org/dc/elements/1.1/"
   xmlns:cc="http://creativecommons.org/ns#"
   xmlns:rdf="http://www.w3.org/1999/02/22-rdf-syntax-ns#"
   xmlns:svg="http://www.w3.org/2000/svg"
   xmlns="http://www.w3.org/2000/svg"
   version="1.1"
   width="100%"
   height="100%"
   viewBox="-10 -10 20 20"
   id="svg3047">
  <title
     id="title3051">Umstrukturierungsgebiet</title>
  <defs
     id="defs3057" />
  <metadata
     id="metadata3049">
created by tobias.reber@bd.so.ch
<rdf:RDF>
  <cc:Work
     rdf:about="">
    <dc:format>image/svg+xml</dc:format>
    <dc:type
       rdf:resource="http://purl.org/dc/dcmitype/StillImage" />
    <dc:title>Umstrukturierungsgebiet</dc:title>
  </cc:Work>
</rdf:RDF>
</metadata>
  <path
     d="m 0,-0.01662475 20.016624,0 0,20.04890975 -20.016624,0 z"
     transform="translate(-10,-10)"
     id="rect5814"
     style="fill:none;stroke:param(outline) #000000;stroke-width:param(outline-width) 2;stroke-miterlimit:4;stroke-opacity:1;stroke-dasharray:none" />
  <g
     transform="matrix(1.0764783,0,0,1.0764783,-0.24217738,-0.04120538)"
     id="text3073"
     style="font-size:20px;font-style:normal;font-weight:bold;line-height:125%;letter-spacing:0px;word-spacing:0px;fill:param(fill) #000000;fill-opacity:1;stroke:none;font-family:Sans;-inkscape-font-specification:Sans Bold">
    <path
       d="m -5.8132362,-7.3933625 3.7597656,0 0,8.7402344 c -5.6e-6,1.2044317 0.1953067,2.067061 0.5859375,2.5878906 0.3971288,0.5143256 1.04165943,0.7714868 1.93359374,0.7714844 C 1.3644891,4.7062493 2.0090197,4.4490881 2.3996544,3.9347625 2.7967794,3.4139329 2.9953469,2.5513036 2.9953575,1.3468719 l 0,-8.7402344 3.7597656,0 0,8.7402344 C 6.7551087,3.4106777 6.2375311,4.9471345 5.2023888,5.9562469 4.1672207,6.9653617 2.5884462,7.4699184 0.46606064,7.4699187 -1.6498308,7.4699184 -3.22535,6.9653617 -4.2605019,5.9562469 -5.2956605,4.9471345 -5.8132381,3.4106777 -5.8132362,1.3468719 l 0,-8.7402344"
       id="path3078" />
  </g>
</svg>
