<?xml version="1.0" encoding="UTF-8" standalone="no"?>
<!-- Created with Inkscape (http://www.inkscape.org/) -->

<svg
   xmlns:dc="http://purl.org/dc/elements/1.1/"
   xmlns:cc="http://creativecommons.org/ns#"
   xmlns:rdf="http://www.w3.org/1999/02/22-rdf-syntax-ns#"
   xmlns:svg="http://www.w3.org/2000/svg"
   xmlns="http://www.w3.org/2000/svg"
   xmlns:sodipodi="http://sodipodi.sourceforge.net/DTD/sodipodi-0.dtd"
   xmlns:inkscape="http://www.inkscape.org/namespaces/inkscape"
   width="100"
   height="100"
   id="svg2"
   version="1.1"
   inkscape:version="0.48.2 r9819"
   sodipodi:docname="Neo_g1.svg">
  <defs
     id="defs4" />
  <sodipodi:namedview
     id="base"
     pagecolor="#ffffff"
     bordercolor="#666666"
     borderopacity="1.0"
     inkscape:pageopacity="0.0"
     inkscape:pageshadow="2"
     inkscape:zoom="5.06"
     inkscape:cx="52.766798"
     inkscape:cy="57.021482"
     inkscape:document-units="px"
     inkscape:current-layer="layer1"
     showgrid="false"
     inkscape:window-width="1066"
     inkscape:window-height="733"
     inkscape:window-x="318"
     inkscape:window-y="100"
     inkscape:window-maximized="0"
     width="100px" />
  <metadata
     id="metadata7">
    <rdf:RDF>
      <cc:Work
         rdf:about="">
        <dc:format>image/svg+xml</dc:format>
        <dc:type
           rdf:resource="http://purl.org/dc/dcmitype/StillImage" />
        <dc:title></dc:title>
      </cc:Work>
    </rdf:RDF>
  </metadata>
  <g
     inkscape:label="Layer 1"
     inkscape:groupmode="layer"
     id="layer1"
     transform="translate(0,-952.3622)">
    <path
       style="font-size:medium;font-style:normal;font-variant:normal;font-weight:normal;font-stretch:normal;text-indent:0;text-align:start;text-decoration:none;line-height:normal;letter-spacing:normal;word-spacing:normal;text-transform:none;direction:ltr;block-progression:tb;writing-mode:lr-tb;text-anchor:start;baseline-shift:baseline;color:#000000;fill:#000000;fill-opacity:1;stroke:none;stroke-width:3.68046999;marker:none;visibility:visible;display:inline;overflow:visible;enable-background:accumulate;font-family:Sans;-inkscape-font-specification:Sans"
       d="m 49.59375,954.125 c -26.178874,0 -47.40625,21.49571 -47.40625,47.9688 0,26.473 21.227377,48 47.40625,48 26.178874,0 47.4375,-21.527 47.4375,-48 0,-26.47309 -21.258625,-47.9688 -47.4375,-47.9688 z m 0,3.65625 c 24.164573,0 43.75,19.80362 43.75,44.31255 0,24.5089 -19.585426,44.3124 -43.75,44.3124 -24.164573,0 -43.71875,-19.8035 -43.71875,-44.3124 0,-24.50893 19.554178,-44.31255 43.71875,-44.31255 z"
       id="path2985"
       inkscape:connector-curvature="0" />
    <g
       style="font-size:72px;font-style:normal;font-variant:normal;font-weight:normal;font-stretch:normal;line-height:125%;letter-spacing:0px;word-spacing:0px;fill:#000000;fill-opacity:1;stroke:none;font-family:Arial;-inkscape-font-specification:Arial"
       id="text3821">
      <path
         d="m 50.422865,1008.0604 0,-6.0469 21.832031,-0.035 0,19.125 c -3.35161,2.6719 -6.808638,4.6816 -10.371094,6.0293 -3.562537,1.3476 -7.218784,2.0215 -10.96875,2.0215 -5.062525,0 -9.662129,-1.084 -13.798828,-3.252 -4.136731,-2.1679 -7.259774,-5.3027 -9.36914,-9.4043 -2.10938,-4.1015 -3.164067,-8.6835 -3.164063,-13.7461 -4e-6,-5.01556 1.048823,-9.6972 3.146485,-14.04489 2.097647,-4.34761 5.115222,-7.57613 9.052734,-9.68555 3.93748,-2.10932 8.472632,-3.16401 13.605469,-3.16406 3.726529,5e-5 7.095666,0.60357 10.107422,1.81055 3.011676,1.20708 5.373001,2.88872 7.083984,5.04492 1.710889,2.15629 3.011669,4.96879 3.902344,8.4375 l -6.152344,1.6875 c -0.773481,-2.62496 -1.734418,-4.68746 -2.882813,-6.1875 -1.148478,-1.49996 -2.789101,-2.70113 -4.921875,-3.60352 -2.132847,-0.90229 -4.500032,-1.35347 -7.101562,-1.35351 -3.117214,4e-5 -5.812524,0.47465 -8.085938,1.42383 -2.273456,0.94926 -4.107439,2.1973 -5.501953,3.74414 -1.394546,1.54691 -2.478529,3.24613 -3.251953,5.09765 -1.312511,3.18754 -1.968761,6.64456 -1.96875,10.37114 -1.1e-5,4.5937 0.791004,8.4375 2.373047,11.5312 1.582016,3.0938 3.884749,5.3906 6.908203,6.8906 3.023414,1.5 6.234349,2.25 9.632813,2.25 2.953092,0 5.835902,-0.5683 8.648437,-1.705 2.812459,-1.1368 4.945269,-2.3496 6.398438,-3.6387 l 0,-9.5977 z"
         style=""
         id="path3826" />
    </g>
  </g>
</svg>
