<?xml version="1.0" encoding="utf-8"?>
<!-- Generator: Adobe Illustrator 15.0.2, SVG Export Plug-In . SVG Version: 6.00 Build 0)  -->
<!DOCTYPE svg PUBLIC "-//W3C//DTD SVG 1.1//EN" "http://www.w3.org/Graphics/SVG/1.1/DTD/svg11.dtd">
<svg version="1.1" id="Ebene_1" xmlns="http://www.w3.org/2000/svg" xmlns:xlink="http://www.w3.org/1999/xlink" x="0px" y="0px"
	 width="16px" height="16px" viewBox="0 0 16 16" enable-background="new 0 0 16 16" xml:space="preserve">
<g display="inline">
	<g display="inline">
		<rect width="16" height="16" style="fill:none;stroke:param(outline) #000000;stroke-width:param(outline-width) 2;" display="inline"/>
	</g>
	<g display="inline">
		<path d="M3.928,14.065c0-0.707,0.573-1.282,1.277-1.282c0.706,0,1.279,0.575,1.279,1.282c0,0.709-0.573,1.284-1.279,1.284
			C4.501,15.35,3.928,14.774,3.928,14.065L3.928,14.065z" style="fill:param(fill) #000000;" display="inline"/>
		<path d="M7.14,14.065c0-0.707,0.571-1.282,1.277-1.282c0.705,0,1.278,0.575,1.278,1.282c0,0.709-0.573,1.284-1.278,1.284
			C7.711,15.35,7.14,14.774,7.14,14.065L7.14,14.065z" style="fill:param(fill) #000000;" display="inline"/>
		<path d="M15.816,3.481H0.215v0.24h6.527L3.788,5.407L5.396,6.5H0.225v8.282h3.047v-2.455h7.079v2.465h2.788
			c0.149,0,0.271-0.123,0.271-0.273c0-0.014,0-0.027,0.014-0.039L13.1,12.327h0.001l-0.728-5.122C12.315,6.801,11.97,6.5,11.564,6.5
			H8.227l1.607-1.093H9.815L6.878,3.721h8.938V3.481z M10.034,7.302c0-0.161,0.129-0.291,0.29-0.291h1.201
			c0.143,0,0.266,0.106,0.286,0.249l0.313,2.202c0.002,0.014,0.002,0.027,0.002,0.041c0,0.162-0.129,0.291-0.29,0.291h-1.513
			c-0.161,0-0.29-0.129-0.29-0.291V7.302z M7.306,6.5H6.317L4.768,5.446L6.81,4.281L8.848,5.45L7.306,6.5z"
            style="fill:param(fill) #000000;" display="inline"/>
	</g>
</g>
</svg>
