<?xml version="1.0" encoding="UTF-8" standalone="no"?>
<!-- Created with Inkscape (http://www.inkscape.org/) -->

<svg
   xmlns:dc="http://purl.org/dc/elements/1.1/"
   xmlns:cc="http://creativecommons.org/ns#"
   xmlns:rdf="http://www.w3.org/1999/02/22-rdf-syntax-ns#"
   xmlns:svg="http://www.w3.org/2000/svg"
   xmlns="http://www.w3.org/2000/svg"
   xmlns:sodipodi="http://sodipodi.sourceforge.net/DTD/sodipodi-0.dtd"
   xmlns:inkscape="http://www.inkscape.org/namespaces/inkscape"
   width="100"
   height="100"
   id="svg2"
   version="1.1"
   inkscape:version="0.48.2 r9819"
   sodipodi:docname="Neo_19.svg">
  <defs
     id="defs4" />
  <sodipodi:namedview
     id="base"
     pagecolor="#ffffff"
     bordercolor="#666666"
     borderopacity="1.0"
     inkscape:pageopacity="0.0"
     inkscape:pageshadow="2"
     inkscape:zoom="5.06"
     inkscape:cx="52.766798"
     inkscape:cy="49.883955"
     inkscape:document-units="px"
     inkscape:current-layer="layer1"
     showgrid="false"
     inkscape:window-width="1066"
     inkscape:window-height="733"
     inkscape:window-x="318"
     inkscape:window-y="100"
     inkscape:window-maximized="0"
     width="100px" />
  <metadata
     id="metadata7">
    <rdf:RDF>
      <cc:Work
         rdf:about="">
        <dc:format>image/svg+xml</dc:format>
        <dc:type
           rdf:resource="http://purl.org/dc/dcmitype/StillImage" />
        <dc:title></dc:title>
      </cc:Work>
    </rdf:RDF>
  </metadata>
  <g
     inkscape:label="Layer 1"
     inkscape:groupmode="layer"
     id="layer1"
     transform="translate(0,-952.3622)">
    <path
       style="font-size:medium;font-style:normal;font-variant:normal;font-weight:normal;font-stretch:normal;text-indent:0;text-align:start;text-decoration:none;line-height:normal;letter-spacing:normal;word-spacing:normal;text-transform:none;direction:ltr;block-progression:tb;writing-mode:lr-tb;text-anchor:start;baseline-shift:baseline;color:#000000;fill:#000000;fill-opacity:1;stroke:none;stroke-width:3.68046999;marker:none;visibility:visible;display:inline;overflow:visible;enable-background:accumulate;font-family:Sans;-inkscape-font-specification:Sans"
       d="m 49.59375,954.125 c -26.178874,0 -47.40625,21.49571 -47.40625,47.9688 0,26.473 21.227377,48 47.40625,48 26.178874,0 47.4375,-21.527 47.4375,-48 0,-26.47309 -21.258625,-47.9688 -47.4375,-47.9688 z m 0,3.65625 c 24.164573,0 43.75,19.80362 43.75,44.31255 0,24.5089 -19.585426,44.3124 -43.75,44.3124 -24.164573,0 -43.71875,-19.8035 -43.71875,-44.3124 0,-24.50893 19.554178,-44.31255 43.71875,-44.31255 z"
       id="path2985"
       inkscape:connector-curvature="0" />
    <g
       style="font-size:72px;font-style:normal;font-variant:normal;font-weight:normal;font-stretch:normal;line-height:125%;letter-spacing:0px;word-spacing:0px;fill:#000000;fill-opacity:1;stroke:none;font-family:Arial;-inkscape-font-specification:Arial"
       id="text3033">
      <path
         d="m 30.585058,1027.2635 0,-51.53901 22.851563,0 c 4.593717,5e-5 8.085901,0.46294 10.476562,1.38867 2.390584,0.92583 4.300738,2.56059 5.730469,4.9043 1.429641,2.34379 2.144484,4.93363 2.144531,7.76953 -4.7e-5,3.65628 -1.183639,6.73831 -3.550781,9.24609 -2.367228,2.50782 -6.023475,4.10162 -10.96875,4.78122 1.804653,0.8672 3.175746,1.7227 4.113281,2.5664 1.992149,1.8282 3.878866,4.1133 5.660156,6.8555 l 8.964844,14.0273 -8.578125,0 -6.820312,-10.7226 c -1.992221,-3.0937 -3.632845,-5.4609 -4.921875,-7.1016 -1.289092,-1.6406 -2.443388,-2.789 -3.462891,-3.4453 -1.019557,-0.6562 -2.056666,-1.1132 -3.111328,-1.3711 -0.773461,-0.164 -2.039085,-0.246 -3.796875,-0.2461 l -7.910156,0 0,22.8867 z m 6.820313,-28.79292 14.660156,0 c 3.117157,3e-5 5.554655,-0.32224 7.3125,-0.9668 1.757776,-0.6445 3.093712,-1.67575 4.007812,-3.09375 0.914024,-1.41793 1.371054,-2.95894 1.371094,-4.62304 -4e-5,-2.43746 -0.884804,-4.44137 -2.654297,-6.01172 -1.769566,-1.57027 -4.564485,-2.35542 -8.384765,-2.35547 l -16.3125,0 z"
         style=""
         id="path3074" />
    </g>
  </g>
</svg>
