<svg id="Ebene_1" data-name="Ebene 1" xmlns="http://www.w3.org/2000/svg" viewBox="0 0 13.01 13.01">><title>190424 ARP RP Pikto</title><rect fill="#fff" width="13.01" height="13.01"/><path fill="red" d="M13,13H0V0H13ZM.25,12.76H12.76V.25H.25Z"/><path d="M9.88,10.35a1.88,1.88,0,0,1-.19-.41,22.83,22.83,0,0,1-.33-3.36L9,5.87C8.58,5,9,4.81,8.55,4.54l-.23-.31c-.48-.33-.71-1-1.31-1C7.61,3,8.68,2.46,8.2,2.2,7.54,1.86,5.13,1.35,5.54,2a7.41,7.41,0,0,1,.6,1.27H6a4.54,4.54,0,0,0-2,.92l-.07,0c-.41.27-.41.27-.41,1.12v.07c0,.92-.09,4.17-.2,4.53a1.93,1.93,0,0,1-.2.41,2.89,2.89,0,0,0-.32.76v0s.26.2,1.57.2c1,0,2.11-.09,2.13-.09h0s1.12.09,2.13.09c1.31,0,1.53-.16,1.56-.2v0A2.87,2.87,0,0,0,9.88,10.35Z"/></svg>
