<svg id="Ebene_1" data-name="Ebene 1" xmlns="http://www.w3.org/2000/svg" viewBox="0 0 13.01 13.01"><title>190424 ARP RP Pikto</title><rect fill="#fff" width="13.01" height="13.01"/><path fill="red" d="M13,13H0V0H13ZM.25,12.76H12.76V.25H.25Z"/><polygon fill="red" class="cls-2" points="1.34 4.26 1.34 9.56 7.48 9.56 7.48 4.26 4.41 1.31 1.34 4.26"/><path fill="red" class="cls-2" d="M9.65,3.84h2V1.36s-3,.91-3,3V9.22a1.33,1.33,0,0,0,1,1.3l-1,1.54h.79l.66-1h1.58V6.38h-2a.29.29,0,0,1-.29-.29v-2A.29.29,0,0,1,9.65,3.84ZM10,7.67a.58.58,0,0,1,.59.59.59.59,0,1,1-1.18,0A.58.58,0,0,1,10,7.67Z"/></svg>
