<?xml version="1.0" encoding="utf-8"?>
<!-- Generator: Adobe Illustrator 15.0.2, SVG Export Plug-In . SVG Version: 6.00 Build 0)  -->
<!DOCTYPE svg PUBLIC "-//W3C//DTD SVG 1.1//EN" "http://www.w3.org/Graphics/SVG/1.1/DTD/svg11.dtd">
<svg version="1.1" id="Ebene_1" xmlns="http://www.w3.org/2000/svg" xmlns:xlink="http://www.w3.org/1999/xlink" x="0px" y="0px"
	 width="16px" height="16px" viewBox="0 0 16 16" enable-background="new 0 0 16 16" xml:space="preserve">
<g display="inline">
	<g display="inline">
		<rect width="16" height="16" style="fill:none;stroke:param(outline) #000000;stroke-width:param(outline-width) 2;" display="inline" />
	</g>
	<path d="M11.417,9.577c-0.133-0.122-0.822-0.491-1.387-0.783c0.16-0.364,0.121-0.803-0.141-1.14
		C9.837,7.586,9.776,7.526,9.712,7.474c0.852-1.778,2.632-5.535,2.706-6.001c0.008-0.049-0.415-0.521-0.426-0.521
		C11.86,0.955,8.969,5.359,8.899,5.666c-0.039,0.173-0.015,0.932,0.013,1.56C8.704,7.243,8.497,7.319,8.319,7.457
		C8.076,7.646,7.932,7.915,7.896,8.198C5.916,8.351,1.819,8.685,1.382,8.852C1.335,8.87,1.138,9.473,1.144,9.481
		c0.068,0.112,5.328,0.414,5.628,0.321c0.168-0.053,0.81-0.45,1.339-0.788c0.004,0.005,0.006,0.01,0.01,0.015
		C8.265,9.214,8.455,9.34,8.662,9.406l-0.445,6.528h1.55L9.322,9.414c0.04-0.012,0.08-0.025,0.119-0.042
		c1.112,1.624,3.48,5.051,3.847,5.349c0.039,0.031,0.66-0.099,0.664-0.108C14.016,14.496,11.647,9.79,11.417,9.577z"
        style="fill:param(fill) #000000;" display="inline"/>
</g>
</svg>
