<svg id="Ebene_1" data-name="Ebene 1" xmlns="http://www.w3.org/2000/svg" viewBox="0 0 13.01 13.01"><title>190424 ARP RP Pikto</title><rect fill="#fff" width="13.01" height="13.01"/><path fill="red" d="M13,13H0V0H13ZM.25,12.76H12.76V.25H.25Z"/><path fill="red" d="M9.36,8.18l-.11.11-.44-.43-.1-2c0-.07,0-.14,0-.22h0A3.81,3.81,0,0,0,7.59,3.36C6.3,2.07,4.42,1.87,3.39,2.9a2.28,2.28,0,0,0-.66,1.67A3.65,3.65,0,0,0,3.85,7.1,3.73,3.73,0,0,0,6.11,8.21h.23l2,.1.43.44-.11.11,2,2,.69-.69Z"/><path fill="red" d="M3.92,8.75a.87.87,0,1,0,.86.87A.87.87,0,0,0,3.92,8.75Z"/></svg>
