<?xml version="1.0" encoding="UTF-8" standalone="no"?>
<!-- Created with Inkscape (http://www.inkscape.org/) -->

<svg
   xmlns:svg="http://www.w3.org/2000/svg"
   xmlns="http://www.w3.org/2000/svg"
   version="1.1"
   width="59.327999"
   height="59.327999"
   id="svg3881">
  <defs
     id="defs3883" />
  <g
     transform="translate(-178.90742,-605.5553)"
     id="layer1">
    <path
       d="m -35.194574,-16.466034 a 13.197966,13.197966 0 1 1 -26.395932,0 13.197966,13.197966 0 1 1 26.395932,0 z"
       transform="matrix(2.103922,0,0,2.103922,310.52105,669.72705)"
       id="path2999"
       style="fill:#ffffff;fill-opacity:1;stroke:none" />
    <g
       id="text3859"
       style="font-size:144px;font-style:normal;font-variant:normal;font-weight:normal;font-stretch:normal;fill:param(fill) #000000;fill-opacity:1;stroke:none;">
      <path
         d="m 238.23542,635.2193 c -5e-5,4.12803 -0.76805,8.01602 -2.304,11.664 -1.53605,3.55202 -3.64805,6.67201 -6.336,9.36 -2.68804,2.68801 -5.85604,4.8 -9.504,6.336 -3.55203,1.536 -7.39203,2.304 -11.52,2.304 -4.12802,0 -8.01602,-0.768 -11.664,-2.304 -3.55201,-1.536 -6.67201,-3.64799 -9.36,-6.336 -2.688,-2.68799 -4.8,-5.80798 -6.336,-9.36 -1.536,-3.64798 -2.304,-7.53597 -2.304,-11.664 0,-4.12797 0.768,-7.96796 2.304,-11.52 1.536,-3.64795 3.648,-6.81595 6.336,-9.504 2.68799,-2.68795 5.80799,-4.79994 9.36,-6.336 3.64798,-1.53594 7.53598,-2.30394 11.664,-2.304 4.12797,6e-5 7.96797,0.76806 11.52,2.304 3.64796,1.53606 6.81596,3.64805 9.504,6.336 2.68795,2.68805 4.79995,5.85605 6.336,9.504 1.53595,3.55204 2.30395,7.39203 2.304,11.52 m -6.336,0 c -5e-5,-3.26397 -0.62405,-6.28796 -1.872,-9.072 -1.15205,-2.87996 -2.78404,-5.37596 -4.896,-7.488 -2.11204,-2.11195 -4.60804,-3.74395 -7.488,-4.896 -2.78403,-1.24795 -5.80803,-1.87195 -9.072,-1.872 -3.26402,5e-5 -6.33602,0.62405 -9.216,1.872 -2.78401,1.15205 -5.23201,2.78405 -7.344,4.896 -2.11201,2.11204 -3.792,4.60804 -5.04,7.488 -1.152,2.78404 -1.728,5.80803 -1.728,9.072 0,3.26403 0.576,6.33602 1.728,9.216 1.248,2.78402 2.92799,5.23202 5.04,7.344 2.11199,2.11201 4.55999,3.79201 7.344,5.04 2.87998,1.15201 5.95198,1.72801 9.216,1.728 3.26397,1e-5 6.28797,-0.57599 9.072,-1.728 2.87996,-1.24799 5.37596,-2.92799 7.488,-5.04 2.11196,-2.11198 3.74395,-4.55998 4.896,-7.344 1.24795,-2.87998 1.87195,-5.95197 1.872,-9.216"
         id="path3925" />
    </g>
  </g>
</svg>
