<svg id="Ebene_1" data-name="Ebene 1" xmlns="http://www.w3.org/2000/svg" viewBox="0 0 13.01 13.01"><title>190424 ARP RP Pikto</title><rect fill="#fff" width="13.01" height="13.01"/><path d="M13,13H0V0H13ZM.25,12.76H12.76V.25H.25Z"/><path d="M11.82,6.59s-.09.08-.09.08l-.17,0-.11,0c-.09.08,0,.28,0,.28s.37.77.43.93,0,.14,0,.14H11.4c-.13,0-.19-.12-.19-.12s-.31-.45-.56-.78A.68.68,0,0,0,10,7l-1.38.14S7.32,7.31,7,7.31s-.25.24-.25.24l.47,2s.36,1.47.42,1.78-.15.29-.15.29H7a.28.28,0,0,1-.28-.21L5.82,9.45S5,7.69,4.91,7.51s-.32-.16-.32-.16l-.48-.06L3.06,7.16A5.47,5.47,0,0,1,1.68,6.9c-.46-.2-.4-.3-.4-.3h0s-.06-.11.4-.31A5.26,5.26,0,0,1,3.06,6l1.05-.13.48-.07s.25,0,.32-.16.91-1.94.91-1.94l.94-1.91A.3.3,0,0,1,7,1.62c.23,0,.4,0,.4,0s.2,0,.15.29-.42,1.78-.42,1.78L6.7,5.64s-.13.24.25.25,1.63.16,1.63.16L10,6.19a.67.67,0,0,0,.69-.2c.25-.32.56-.77.56-.77s.06-.15.19-.13h.44s.09,0,0,.14-.43.94-.43.94-.09.2,0,.27l.11,0,.16,0s.1,0,.1.08Z"/></svg>
