<svg id="Ebene_1" data-name="Ebene 1" xmlns="http://www.w3.org/2000/svg" viewBox="0 0 13.01 13.01"><title>190424 ARP RP Pikto</title><rect fill="#fff" width="13.01" height="13.01"/><path d="M13,13H0V0H13ZM.25,12.74H12.76V.24H.25Z"/><path fill="#0d0805" d="M11.57,3,6.37,1.17,1.17,3v.78H2.44V8.65h.91V3.74H4.76v4.9h.91V3.74H7.08V9.63H8V3.74H9.43V9.63h.91V3.74h1.24V3ZM3.47,3,6.39,2l2.9,1Z"/><path class="cls-2" d="M6.38,10.3a3.76,3.76,0,0,0-2.57-.78,4.36,4.36,0,0,0-2.65.78v.84a4.34,4.34,0,0,1,2.67-.77,4.54,4.54,0,0,1,2.55.93,4.8,4.8,0,0,0,2.68.6,3.82,3.82,0,0,0,2.51-.75v-.93a3.84,3.84,0,0,1-2.51.86A4,4,0,0,1,6.38,10.3Z"/></svg>
