<?xml version="1.0" encoding="UTF-8" standalone="no"?>
<svg
   xmlns:dc="http://purl.org/dc/elements/1.1/"
   xmlns:cc="http://creativecommons.org/ns#"
   xmlns:rdf="http://www.w3.org/1999/02/22-rdf-syntax-ns#"
   xmlns:svg="http://www.w3.org/2000/svg"
   xmlns="http://www.w3.org/2000/svg"
   xmlns:sodipodi="http://sodipodi.sourceforge.net/DTD/sodipodi-0.dtd"
   xmlns:inkscape="http://www.inkscape.org/namespaces/inkscape"
   width="1.51049in"
   height="1.51744in"
   viewBox="0 0 435 437"
   id="svg2"
   version="1.1"
   inkscape:version="0.48.4 r9939"
   sodipodi:docname="Logo NTP quadrat.svg">
  <metadata
     id="metadata9">
    <rdf:RDF>
      <cc:Work
         rdf:about="">
        <dc:format>image/svg+xml</dc:format>
        <dc:type
           rdf:resource="http://purl.org/dc/dcmitype/StillImage" />
      </cc:Work>
    </rdf:RDF>
  </metadata>
  <defs
     id="defs7" />
  <sodipodi:namedview
     pagecolor="#ffffff"
     bordercolor="#666666"
     borderopacity="1"
     objecttolerance="10"
     gridtolerance="10"
     guidetolerance="10"
     inkscape:pageopacity="0"
     inkscape:pageshadow="2"
     inkscape:window-width="1855"
     inkscape:window-height="1056"
     id="namedview5"
     showgrid="false"
     inkscape:zoom="4.84"
     inkscape:cx="67.972046"
     inkscape:cy="137.72696"
     inkscape:window-x="65"
     inkscape:window-y="24"
     inkscape:window-maximized="1"
     inkscape:current-layer="svg2" />
  <path
     id="Auswahl"
     fill="none"
     stroke="black"
     stroke-width="1"
     d="M 335.05,335.00            C 302.62,371.53 260.50,391.76 212.00,395.09              212.00,395.09 202.00,396.00 202.00,396.00              202.00,396.00 198.00,396.00 198.00,396.00              198.00,396.00 188.00,395.09 188.00,395.09              99.16,388.88 28.44,320.30 21.91,231.00              21.91,231.00 21.00,221.00 21.00,221.00              20.11,144.66 63.59,77.94 135.00,49.60              150.30,43.53 172.54,38.03 189.00,38.00              189.00,38.00 212.00,38.00 212.00,38.00              220.39,38.01 228.78,39.57 237.00,41.20              275.16,48.79 306.58,67.68 333.02,96.00              343.03,106.72 360.67,130.83 364.00,145.00              364.00,145.00 333.00,165.00 333.00,165.00              328.39,151.80 319.00,136.72 310.08,126.00              264.63,71.35 186.66,57.60 126.00,95.06              92.42,115.81 68.23,150.33 60.45,189.00              57.67,202.83 57.84,211.14 58.00,225.00              58.09,232.44 60.29,243.69 62.13,251.00              74.85,301.67 115.09,342.44 166.00,354.87              173.52,356.71 185.37,358.91 193.00,359.00              212.83,359.23 226.95,358.00 246.00,351.65              287.20,337.91 318.06,305.84 334.00,266.00              334.00,266.00 365.00,286.00 365.00,286.00              361.62,300.40 344.93,323.88 335.05,335.00 Z            M 208.61,118.09            C 218.78,130.02 212.59,148.94 197.00,151.67              176.44,155.28 163.73,130.30 179.10,116.33              182.30,113.42 184.92,112.46 189.00,111.47              196.54,110.43 203.48,112.07 208.61,118.09 Z            M 156.30,152.00            C 162.37,161.05 157.69,175.12 146.00,177.93              124.10,183.20 114.59,151.72 137.00,144.53              145.03,143.21 151.52,144.88 156.30,152.00 Z            M 273.35,151.04            C 280.07,160.33 274.79,174.61 264.00,177.69              242.71,183.78 231.98,152.95 254.00,144.64              261.56,143.12 268.56,144.42 273.35,151.04 Z            M 320.00,204.42            C 320.00,204.42 379.00,165.33 379.00,165.33              386.38,160.41 405.97,146.24 413.00,144.00              413.00,144.00 413.00,286.00 413.00,286.00              413.00,286.00 379.00,265.00 379.00,265.00              379.00,265.00 305.00,216.00 305.00,216.00              305.00,216.00 305.00,214.00 305.00,214.00              305.00,214.00 320.00,204.42 320.00,204.42 Z            M 192.00,296.00            C 191.96,299.06 191.92,302.24 190.15,304.89              186.70,310.04 178.63,310.27 174.65,305.66              171.75,302.30 172.01,298.14 172.00,294.00              172.00,294.00 172.00,245.00 172.00,245.00              172.00,242.65 172.23,239.42 170.98,237.37              169.19,234.46 164.29,233.23 162.53,226.00              162.53,226.00 162.00,188.00 162.00,188.00              162.01,179.55 163.01,171.14 170.04,165.39              174.51,161.74 181.40,161.07 187.00,161.00              202.09,160.83 218.13,158.76 223.07,177.00              224.07,180.67 223.99,183.28 224.00,187.00              224.00,187.00 224.00,220.00 224.00,220.00              223.95,223.87 223.64,227.48 221.59,230.90              219.31,234.68 216.55,234.96 215.02,237.39              213.78,239.37 214.00,242.70 214.00,245.00              214.00,245.00 214.00,294.00 214.00,294.00              213.99,298.14 214.25,302.30 211.35,305.66              207.09,310.59 197.74,310.22 194.89,302.98              193.60,299.71 194.00,290.90 194.00,287.00              194.00,287.00 194.00,256.00 194.00,256.00              194.00,256.00 192.00,256.00 192.00,256.00              192.00,256.00 192.00,296.00 192.00,296.00 Z            M 116.00,225.00            C 116.00,212.74 112.41,191.79 127.00,186.85              129.88,185.88 133.00,186.00 136.00,186.00              140.62,185.99 155.30,184.77 157.98,188.51              159.14,190.14 158.99,193.06 159.20,195.00              159.20,195.00 159.20,228.00 159.20,228.00              160.90,234.57 166.23,236.54 166.48,240.17              166.78,244.47 162.46,246.97 159.00,248.00              159.00,248.00 159.00,298.00 159.00,298.00              158.91,304.42 156.73,309.96 149.02,308.76              142.53,307.75 143.01,302.08 143.00,297.00              143.00,297.00 143.00,265.00 143.00,265.00              143.00,265.00 141.00,265.00 141.00,265.00              141.00,265.00 141.00,291.00 141.00,291.00              141.00,294.41 141.32,300.98 140.11,303.96              137.70,309.89 130.03,310.15 126.65,306.57              124.18,303.95 124.05,300.37 124.00,297.00              124.00,297.00 124.00,248.00 124.00,248.00              113.48,244.88 116.00,233.70 116.00,225.00 Z            M 233.00,232.00            C 233.00,232.00 233.00,215.00 233.00,215.00              233.00,204.63 232.24,191.76 244.00,187.15              247.24,185.88 250.59,186.01 254.00,186.00              263.94,185.98 274.75,183.75 281.35,193.02              284.31,197.17 284.94,202.05 285.00,207.00              285.00,207.00 285.00,235.00 285.00,235.00              284.90,242.12 283.54,246.38 276.00,248.00              276.00,248.00 276.00,297.00 276.00,297.00              275.99,299.96 276.27,303.35 274.40,305.85              270.91,310.52 263.06,309.67 260.74,303.96              259.69,301.37 260.00,294.11 260.00,291.00              260.00,291.00 260.00,265.00 260.00,265.00              260.00,265.00 258.00,265.00 258.00,265.00              258.00,265.00 258.00,298.00 258.00,298.00              257.98,300.73 258.13,303.54 256.40,305.81              253.32,309.97 246.66,309.75 243.60,305.81              241.71,303.33 242.01,299.92 242.00,297.00              242.00,297.00 242.00,248.00 242.00,248.00              233.04,246.08 233.01,239.77 233.00,232.00 Z" />
  <path
     style="fill:#ff6600;stroke:none"
     d="M 54.372955,122.55795 C 48.964121,121.74184 40.12978,118.65822 35.276013,115.89218 24.808311,109.92691 17.683302,102.22909 12.400134,91.177224 8.5075482,83.034314 7.600016,78.596346 7.5767957,67.590376 7.558287,58.817592 7.6838403,57.629219 9.122636,52.958863 c 3.136738,-10.181904 6.677,-16.378165 13.420134,-23.488277 7.133618,-7.521847 16.265677,-12.912962 26.295884,-15.523788 6.444638,-1.677516 18.132863,-2.082196 24.052212,-0.832758 15.09936,3.187127 27.733624,11.554472 35.825384,23.726226 2.43117,3.656988 4.72345,8.157525 4.28243,8.407865 -0.0982,0.05575 -2.06246,1.329016 -4.36499,2.829478 l -4.18643,2.728112 -1.48653,-2.933529 C 98.457857,38.986204 91.315511,31.815585 82.617092,27.448037 71.087627,21.658998 56.159032,21.36224 44.144714,26.683264 35.404685,30.554139 26.91506,38.75638 22.640309,47.45972 c -3.759482,7.654261 -4.649443,11.482034 -4.680396,20.130656 -0.03088,8.629624 0.838972,12.441756 4.555556,19.964623 5.745397,11.629457 15.761199,19.923241 28.418124,23.532181 3.66864,1.04607 5.998786,1.30457 11.540948,1.28033 7.781845,-0.034 12.650604,-0.9881 18.44105,-3.61362 9.412145,-4.26766 16.615989,-11.208084 21.777539,-20.981184 l 2.0254,-3.834978 4.19385,2.676665 c 2.30662,1.472163 4.19458,3.012546 4.19547,3.423071 0.006,2.593514 -6.05461,11.494046 -11.52193,16.922116 -7.363913,7.31104 -15.045843,11.72269 -24.778423,14.23 -6.334648,1.63192 -16.555911,2.25536 -22.434542,1.36837 l 0,0 z"
     id="path2986"
     inkscape:connector-curvature="0"
     transform="matrix(3.1998448,0,0,3.1998448,0,-7.5713597e-4)" />
  <path
     style="fill:#ff6600"
     d="m 54.992974,95.036566 c -0.755513,-0.755513 -0.909362,-2.577073 -0.909362,-10.766802 0,-9.74305 -0.01727,-9.87796 -1.487873,-11.625678 -1.468821,-1.745594 -1.485494,-1.874347 -1.302041,-10.054335 0.183333,-8.174637 0.207408,-8.307658 1.789748,-9.888993 1.471414,-1.47048 2.021178,-1.617159 6.654875,-1.775546 8.654415,-0.29582 9.960764,1.408655 9.966552,13.003985 0.0031,6.211981 -0.05924,6.539975 -1.588156,8.355229 -1.585261,1.882158 -1.592089,1.928472 -1.774904,12.039626 C 66.2335,90.314601 65.908024,94.775804 65.5476,95.210089 64.625944,96.320617 62.304951,96.0936 61.626874,94.826601 61.2974,94.210972 61.027829,90.565259 61.027829,86.725015 c 0,-5.820663 -0.144408,-6.98226 -0.868027,-6.98226 -0.72637,0 -0.868027,1.208808 -0.868027,7.407165 0,7.611273 -0.321793,8.796008 -2.389141,8.796008 -0.550164,0 -1.409511,-0.409213 -1.90966,-0.909362 z"
     id="path2988"
     inkscape:connector-curvature="0"
     transform="matrix(3.1998448,0,0,3.1998448,0,-7.5713597e-4)" />
  <path
     style="fill:#ff6600"
     d="m 76.768054,95.251506 c -0.47959,-0.47959 -0.694422,-3.433529 -0.694422,-9.548298 0,-5.06275 -0.230087,-8.853876 -0.53735,-8.853876 -0.295543,0 -0.946563,-0.409213 -1.446712,-0.909362 -1.089898,-1.089898 -1.279865,-10.174836 -0.287485,-13.748654 0.735775,-2.649718 3.04357,-3.864537 7.316452,-3.851365 5.797076,0.01787 7.683844,2.599302 7.68526,10.514793 9.78e-4,5.46835 -0.634224,7.994588 -2.010174,7.994588 -0.752231,0 -0.882351,1.305677 -0.882351,8.853876 0,9.091164 -0.266289,10.24272 -2.368563,10.24272 -1.423166,0 -1.68223,-1.165816 -1.68223,-7.570231 0,-4.716004 -0.154793,-5.739518 -0.868027,-5.739518 -0.715396,0 -0.868027,1.048062 -0.868027,5.960453 0,5.806536 -0.42517,7.349296 -2.025396,7.349296 -0.350105,0 -0.949043,-0.31249 -1.330975,-0.694422 z"
     id="path2990"
     inkscape:connector-curvature="0"
     transform="matrix(3.1998448,0,0,3.1998448,0,-7.5713597e-4)" />
  <path
     style="fill:#ff6600"
     d="m 39.636855,94.826601 c -0.331493,-0.619398 -0.599045,-4.754747 -0.599045,-9.258955 0,-7.474759 -0.09841,-8.238038 -1.204752,-9.344381 -1.110094,-1.110094 -1.189662,-1.745498 -1.012698,-8.087103 0.1745,-6.253325 0.312525,-7.002678 1.510168,-8.198875 1.137029,-1.135657 1.915066,-1.316524 5.663283,-1.316524 3.232709,0 4.485653,0.222234 4.893885,0.868027 0.301794,0.477415 0.552704,3.441371 0.557577,6.58657 0.0074,4.749526 0.210379,6.044605 1.198098,7.642768 l 1.189237,1.924224 -1.189237,0.74269 c -1.105809,0.69059 -1.189236,1.298627 -1.189236,8.667404 0,8.952961 -0.482735,11.069817 -2.460343,10.788936 -1.249539,-0.177472 -1.307593,-0.442828 -1.464732,-6.695 -0.132255,-5.262127 -0.3264,-6.510203 -1.012698,-6.510203 -0.691353,0 -0.849075,1.107194 -0.849075,5.960453 0,3.864328 -0.244208,6.204661 -0.694421,6.654874 -1.04271,1.04271 -2.660871,0.836606 -3.336011,-0.424905 z"
     id="path2992"
     inkscape:connector-curvature="0"
     transform="matrix(3.1998448,0,0,3.1998448,0,-7.5713597e-4)" />
  <path
     style="fill:#ff6600"
     d="m 42.113734,54.855273 c -2.921698,-1.177179 -3.568749,-5.78891 -1.109064,-7.904642 1.983052,-1.70575 4.47969,-1.724508 6.41976,-0.04823 2.457091,2.122994 2.01008,6.181473 -0.843365,7.657047 -1.902945,0.984052 -2.638333,1.032749 -4.467331,0.295829 z"
     id="path2994"
     inkscape:connector-curvature="0"
     transform="matrix(3.1998448,0,0,3.1998448,0,-7.5713597e-4)" />
  <path
     style="fill:#ff6600"
     d="m 56.511425,45.317358 c -0.941479,-0.792202 -1.849208,-2.159279 -2.017176,-3.037947 -0.674387,-3.527825 2.479861,-7.09538 6.273369,-7.09538 2.398279,0 5.468374,3.403842 5.468374,6.062836 0,4.817238 -5.901431,7.287448 -9.724567,4.070491 l 0,0 z"
     id="path2996"
     inkscape:connector-curvature="0"
     transform="matrix(3.1998448,0,0,3.1998448,0,-7.5713597e-4)" />
  <path
     style="fill:#0000ff"
     d="m 78.984548,54.69774 c -4.596814,-2.326018 -3.001494,-9.097384 2.143326,-9.097384 2.24863,0 4.783398,2.147843 4.783398,4.053227 0,1.942546 -1.669012,4.630201 -3.248155,5.23059 -1.831472,0.696324 -1.945426,0.690549 -3.678569,-0.186433 l 0,0 z"
     id="path2998"
     inkscape:connector-curvature="0"
     transform="matrix(3.1998448,0,0,3.1998448,0,-7.5713597e-4)" />
  <path
     style="fill:#0000ff"
     d="m 118.60696,82.217649 c -5.4107,-3.464558 -12.74833,-8.248251 -16.30585,-10.630428 l -6.468209,-4.331232 16.305849,-10.808161 16.30585,-10.808162 0.15744,10.686013 c 0.0866,5.877307 0.0866,15.524672 0,21.438589 l -0.15744,10.752577 -9.83764,-6.299196 z"
     id="path3000"
     inkscape:connector-curvature="0"
     transform="matrix(3.1998448,0,0,3.1998448,0,-7.5713597e-4)" />
  <path
     style="fill:#ff6600"
     d="m 78.072725,53.438904 c -1.735876,-1.735876 -1.812056,-3.712459 -0.221038,-5.73511 1.502837,-1.910548 4.600405,-2.09051 6.323531,-0.367383 1.373223,1.373222 1.466912,2.930994 0.310745,5.166774 -1.428312,2.762051 -4.184733,3.164224 -6.413238,0.935719 l 0,0 z"
     id="path3002"
     inkscape:connector-curvature="0"
     transform="matrix(3.1998448,0,0,3.1998448,0,-7.5713597e-4)" />
  <path
     style="fill:#ff6600"
     d="m 79.641014,54.406457 c -2.591537,-1.177252 -3.489107,-3.731756 -2.113183,-6.014163 0.937066,-1.554422 2.038875,-2.128276 3.896566,-2.029445 2.233865,0.118845 3.513478,1.259275 3.652834,3.255518 0.133442,1.911522 -1.019551,4.100193 -2.518629,4.780992 -1.067052,0.484597 -1.862192,0.486531 -2.917588,0.0071 l 0,-10e-7 z"
     id="path3004"
     inkscape:connector-curvature="0"
     transform="matrix(3.1998448,0,0,3.1998448,0,-7.5713597e-4)" />
  <path
     style="fill:#ff6600"
     d="m 86.219995,50.247589 c 0,-0.738636 0.0375,-1.040806 0.08333,-0.671487 0.04583,0.369318 0.04583,0.973657 0,1.342975 -0.04583,0.369318 -0.08333,0.06715 -0.08333,-0.671488 z"
     id="path3006"
     inkscape:connector-curvature="0"
     transform="matrix(3.1998448,0,0,3.1998448,0,-7.5713597e-4)" />
  <path
     style="fill:#ff6600"
     d="m 79.232376,54.760659 c -1.894888,-0.979824 -2.77723,-2.37276 -2.784718,-4.396185 -0.01017,-2.748464 1.930034,-4.662339 4.726483,-4.662339 1.04387,0 2.067431,0.405846 3.113924,1.234683 1.500497,1.188416 1.85063,2.963795 0.961205,4.87387 -1.339433,2.876485 -3.813346,4.089398 -6.016894,2.949971 z m 2.547662,0.111696 c 1.538186,-0.307638 3.54738,-3.092395 3.54738,-4.916696 0,-2.778514 -3.225911,-4.665195 -5.89996,-3.450605 -1.538905,0.698991 -2.773291,2.573146 -2.776574,4.215642 -0.0034,1.677215 2.433229,4.113861 4.260211,4.260325 0.127841,0.01025 0.518865,-0.03865 0.868943,-0.108666 z"
     id="path3008"
     inkscape:connector-curvature="0"
     transform="matrix(3.1998448,0,0,3.1998448,0,-7.5713597e-4)" />
</svg>
