<?xml version="1.0" encoding="UTF-8" standalone="no"?>
<!-- Created with Inkscape (http://www.inkscape.org/) -->

<svg
   xmlns:dc="http://purl.org/dc/elements/1.1/"
   xmlns:cc="http://creativecommons.org/ns#"
   xmlns:rdf="http://www.w3.org/1999/02/22-rdf-syntax-ns#"
   xmlns:svg="http://www.w3.org/2000/svg"
   xmlns="http://www.w3.org/2000/svg"
   version="1.1"
   width="178.41"
   height="178.41"
   id="svg3381">
  <defs
     id="defs3383" />
  <metadata
     id="metadata3386">
    <rdf:RDF>
      <cc:Work
         rdf:about="">
        <dc:format>image/svg+xml</dc:format>
        <dc:type
           rdf:resource="http://purl.org/dc/dcmitype/StillImage" />
        <dc:title></dc:title>
      </cc:Work>
    </rdf:RDF>
  </metadata>
  <g
     transform="translate(-285.71426,-442.5236)"
     id="layer1">
    <g
       id="text3389"
       style="font-size:144px;font-style:normal;font-variant:normal;font-weight:normal;font-stretch:normal;line-height:125%;letter-spacing:0px;word-spacing:0px;fill:param(fill) #000000;fill-opacity:1;stroke:none">
      <path
         d="m 372.80368,488.73799 4.32,0 0,15.552 c 3.16796,0.19207 6.19196,0.91207 9.072,2.16 3.35995,1.44007 6.23995,3.40807 8.64,5.904 2.49595,2.40006 4.46394,5.28006 5.904,8.64 1.43994,3.36005 2.15994,6.91205 2.16,10.656 -6e-5,3.84004 -0.72006,7.44004 -2.16,10.8 -1.44006,3.26403 -3.40805,6.14403 -5.904,8.64 -2.40005,2.49602 -5.28005,4.46402 -8.64,5.904 -2.59204,1.15202 -5.23204,1.82402 -7.92,2.016 l 0,15.696 -4.464,0 0,-15.552 c -3.16803,-0.19198 -6.14402,-0.91198 -8.928,-2.16 -3.36002,-1.43998 -6.28802,-3.40798 -8.784,-5.904 -2.49601,-2.49597 -4.46401,-5.37597 -5.904,-8.64 -1.44001,-3.35996 -2.16,-6.95996 -2.16,-10.8 0,-3.74395 0.71999,-7.29595 2.16,-10.656 1.43999,-3.35994 3.40799,-6.23994 5.904,-8.64 2.49598,-2.49593 5.42398,-4.46393 8.784,-5.904 2.49598,-1.05593 5.13597,-1.72793 7.92,-2.016 l 0,-15.696 m 25.488,42.912 c -6e-5,-3.16795 -0.62405,-6.09595 -1.872,-8.784 -1.15205,-2.78394 -2.73605,-5.23194 -4.752,-7.344 -2.01605,-2.11194 -4.41604,-3.74393 -7.2,-4.896 -2.78404,-1.24793 -5.76004,-1.87193 -8.928,-1.872 -3.16803,7e-5 -6.14403,0.62407 -8.928,1.872 -2.78402,1.15207 -5.23202,2.78406 -7.344,4.896 -2.01601,2.11206 -3.64801,4.56006 -4.896,7.344 -1.15201,2.68805 -1.72801,5.61605 -1.728,8.784 -1e-5,3.16804 0.57599,6.14404 1.728,8.928 1.24799,2.78403 2.87999,5.23203 4.896,7.344 2.11198,2.01603 4.55998,3.64803 7.344,4.896 2.78397,1.15202 5.75997,1.72802 8.928,1.728 3.16796,2e-5 6.14396,-0.57598 8.928,-1.728 2.78396,-1.24797 5.18395,-2.87997 7.2,-4.896 2.01595,-2.11197 3.59995,-4.55997 4.752,-7.344 1.24795,-2.78396 1.87194,-5.75996 1.872,-8.928 m -29.952,-89.136 0,33.984 18.72,0 0,4.464 -23.328,0 0,-38.448 4.608,0"
         id="path3423" />
    </g>
  </g>
</svg>
