<?xml version="1.0" encoding="utf-8"?>
<!-- Generator: Adobe Illustrator 23.0.3, SVG Export Plug-In . SVG Version: 6.00 Build 0)  -->
<svg version="1.1" id="Ebene_1" xmlns="http://www.w3.org/2000/svg" xmlns:xlink="http://www.w3.org/1999/xlink" x="0px" y="0px"
	 viewBox="0 0 13 13" style="enable-background:new 0 0 13 13;" xml:space="preserve">

<title>190424 ARP RP Pikto</title>
<rect fill="#fff" width="13.01" height="13.01"/>
<path fill="red" d="M13,13H0V0h13V13z M0.3,12.8h12.5V0.2H0.3V12.8z"/>
<path fill="red" d="M2,1.1c-0.6,0-0.9,0.3-0.9,0.8c0,0.3,0.1,0.5,0.3,0.7L8,9l-1.1,1.1c0.6,0.7,1.3,1.2,2.2,1.6
	c0.9,0.2,1.8,0.3,2.8,0.2c0.2-1,0.1-2-0.2-2.9c-0.4-0.8-1-1.5-1.7-2.1L9,8L2.7,1.3l0,0C2.5,1.2,2.2,1.1,2,1.1"/>
</svg>
