<?xml version="1.0" encoding="UTF-8" standalone="no"?>
<!-- Created with Inkscape (http://www.inkscape.org/) -->

<svg
   xmlns:dc="http://purl.org/dc/elements/1.1/"
   xmlns:cc="http://creativecommons.org/ns#"
   xmlns:rdf="http://www.w3.org/1999/02/22-rdf-syntax-ns#"
   xmlns:svg="http://www.w3.org/2000/svg"
   xmlns="http://www.w3.org/2000/svg"
   version="1.2"
   width="5.190649"
   height="5.8760285"
   id="svg2">
  <metadata
     id="metadata3037">
    <rdf:RDF>
      <cc:Work
         rdf:about="">
        <dc:format>IMAGE/SVG+XML</dc:format>
        <dc:type
           rdf:resource="http://purl.org/dc/dcmitype/StillImage" />
        <dc:title></dc:title>
      </cc:Work>
    </rdf:RDF>
  </metadata>
  <defs
     id="defs4" />
  <g
     transform="matrix(1.2789986,0,0,1.2789986,0.1582536,3.6248828)"
     id="flowRoot3109"
     style="font-size:4px;font-style:normal;font-variant:normal;font-weight:bold;font-stretch:normal;text-align:start;line-height:9.00000036%;letter-spacing:0px;word-spacing:0px;writing-mode:lr-tb;text-anchor:start;fill:#cc00ff;fill-opacity:1;stroke:none;font-family:Sans;-inkscape-font-specification:Sans Bold">
    <path
       d="m 3.4570313,0.72651689 c -0.1875029,0.091146 -0.3821641,0.15950527 -0.5839844,0.20507813 -0.2018251,0.0455729 -0.4101583,0.0683593 -0.625,0.0683594 -0.4856784,-5e-8 -0.8704436,-0.13541658 -1.1542969,-0.40625 -0.28385451,-0.27213479 -0.42578145,-0.640624 -0.42578125,-1.10546875 -2e-7,-0.47005015 0.14453091,-0.83984147 0.43359375,-1.10937507 0.2890616,-0.2695284 0.6848945,-0.4042939 1.1875,-0.4042968 0.1940084,2.9e-6 0.3795551,0.018232 0.5566406,0.054688 0.1783829,0.036461 0.3463515,0.090498 0.5039063,0.1621093 l 0,0.6035157 C 3.1868462,-1.2975694 3.024737,-1.3665798 2.8632813,-1.412155 2.7031228,-1.457725 2.5423156,-1.480512 2.3808594,-1.480514 2.0813786,-1.4805115 1.850259,-1.396527 1.6875,-1.2285608 c -0.1614594,0.1666686 -0.2421885,0.40560069 -0.2421875,0.71679684 -10e-7,0.3085949 0.078124,0.54687591 0.234375,0.71484375 0.1562486,0.16796933 0.3782536,0.25195362 0.6660156,0.25195313 0.078123,4.9e-7 0.1503886,-0.004557 0.2167969,-0.0136719 0.067706,-0.0104162 0.128253,-0.0260411 0.1816406,-0.046875 l 0,-0.56640625 -0.4589843,0 0,-0.50390625 1.171875,0 0,1.40234375"
       id="path3886" />
  </g>
</svg>
