<?xml version="1.0" encoding="UTF-8" standalone="no"?>
<!-- Created with Inkscape (http://www.inkscape.org/) -->

<svg
   xmlns:dc="http://purl.org/dc/elements/1.1/"
   xmlns:cc="http://creativecommons.org/ns#"
   xmlns:rdf="http://www.w3.org/1999/02/22-rdf-syntax-ns#"
   xmlns:svg="http://www.w3.org/2000/svg"
   xmlns="http://www.w3.org/2000/svg"
   xmlns:sodipodi="http://sodipodi.sourceforge.net/DTD/sodipodi-0.dtd"
   xmlns:inkscape="http://www.inkscape.org/namespaces/inkscape"
   width="100"
   height="100"
   id="svg2"
   version="1.1"
   inkscape:version="0.48.2 r9819"
   sodipodi:docname="Neo_2.svg">
  <defs
     id="defs4" />
  <sodipodi:namedview
     id="base"
     pagecolor="#ffffff"
     bordercolor="#666666"
     borderopacity="1.0"
     inkscape:pageopacity="0.0"
     inkscape:pageshadow="2"
     inkscape:zoom="5.06"
     inkscape:cx="52.766798"
     inkscape:cy="49.883955"
     inkscape:document-units="px"
     inkscape:current-layer="layer1"
     showgrid="false"
     inkscape:window-width="1066"
     inkscape:window-height="733"
     inkscape:window-x="318"
     inkscape:window-y="100"
     inkscape:window-maximized="0"
     width="100px" />
  <metadata
     id="metadata7">
    <rdf:RDF>
      <cc:Work
         rdf:about="">
        <dc:format>image/svg+xml</dc:format>
        <dc:type
           rdf:resource="http://purl.org/dc/dcmitype/StillImage" />
        <dc:title></dc:title>
      </cc:Work>
    </rdf:RDF>
  </metadata>
  <g
     inkscape:label="Layer 1"
     inkscape:groupmode="layer"
     id="layer1"
     transform="translate(0,-952.3622)">
    <path
       style="font-size:medium;font-style:normal;font-variant:normal;font-weight:normal;font-stretch:normal;text-indent:0;text-align:start;text-decoration:none;line-height:normal;letter-spacing:normal;word-spacing:normal;text-transform:none;direction:ltr;block-progression:tb;writing-mode:lr-tb;text-anchor:start;baseline-shift:baseline;color:#000000;fill:#000000;fill-opacity:1;stroke:none;stroke-width:3.68046999;marker:none;visibility:visible;display:inline;overflow:visible;enable-background:accumulate;font-family:Sans;-inkscape-font-specification:Sans"
       d="m 49.59375,954.125 c -26.178874,0 -47.40625,21.49571 -47.40625,47.9688 0,26.473 21.227377,48 47.40625,48 26.178874,0 47.4375,-21.527 47.4375,-48 0,-26.47309 -21.258625,-47.9688 -47.4375,-47.9688 z m 0,3.65625 c 24.164573,0 43.75,19.80362 43.75,44.31255 0,24.5089 -19.585426,44.3124 -43.75,44.3124 -24.164573,0 -43.71875,-19.8035 -43.71875,-44.3124 0,-24.50893 19.554178,-44.31255 43.71875,-44.31255 z"
       id="path2985"
       inkscape:connector-curvature="0" />
    <g
       style="font-size:72px;font-style:normal;font-variant:normal;font-weight:normal;font-stretch:normal;line-height:125%;letter-spacing:0px;word-spacing:0px;fill:#000000;fill-opacity:1;stroke:none;font-family:Arial Unicode MS;-inkscape-font-specification:Arial Unicode MS"
       id="text2999">
      <path
         d="m 56.530262,998.98914 c 3.18747,0.6094 5.59567,2.15046 7.224609,4.62306 1.62887,2.4727 2.443323,5.1621 2.44336,8.0683 -3.7e-5,4.6876 -1.705114,8.5372 -5.115235,11.5489 -3.410184,3.0117 -7.494165,4.5175 -12.251953,4.5175 -4.54689,0 -8.296886,-1.3242 -11.25,-3.9726 -2.95313,-2.6484 -4.675785,-6.1523 -5.167969,-10.5117 l 6.328125,-0.8789 c 0.632803,3.3984 1.787099,5.9414 3.462891,7.6289 1.675767,1.6875 3.884749,2.5312 6.626953,2.5312 2.953103,0 5.455053,-1.0371 7.50586,-3.1113 2.050752,-2.0742 3.076141,-4.6113 3.076171,-7.6113 -3e-5,-2.8828 -0.931669,-5.2735 -2.794921,-7.1719 -1.863307,-1.8984 -4.294945,-2.8476 -7.294922,-2.8477 -1.218769,10e-5 -2.707049,0.2227 -4.464844,0.668 l 0.738281,-5.55468 c 1.687482,3e-5 3.023418,-0.082 4.007813,-0.2461 0.984353,-0.16403 2.085915,-0.56247 3.304687,-1.19531 1.218725,-0.63278 2.226537,-1.54098 3.023438,-2.72461 0.796847,-1.18356 1.195284,-2.65426 1.195312,-4.41211 -2.8e-5,-2.55464 -0.849636,-4.53511 -2.548828,-5.9414 -1.699242,-1.40621 -3.662131,-2.10933 -5.888672,-2.10938 -2.554704,5e-5 -4.63478,0.80864 -6.240234,2.42578 -1.60548,1.61723 -2.619151,3.92582 -3.041016,6.92578 l -6.328125,-1.16015 c 0.820308,-4.47652 2.630853,-7.82808 5.431641,-10.05469 2.800769,-2.22651 6.146469,-3.33979 10.037109,-3.33984 4.289039,5e-5 7.869114,1.29497 10.740235,3.88476 2.87106,2.58989 4.306606,5.75981 4.30664,9.50977 -3.4e-5,4.80472 -2.3555,8.26175 -7.066406,10.37109 z"
         style="font-family:Arial Unicode MS;-inkscape-font-specification:Arial Unicode MS"
         id="path3013" />
    </g>
  </g>
</svg>
