<?xml version="1.0" encoding="UTF-8" standalone="no"?>
<!-- Created with Inkscape (http://www.inkscape.org/) -->

<svg
   xmlns:svg="http://www.w3.org/2000/svg"
   xmlns="http://www.w3.org/2000/svg"
   version="1.2"
   width="100%"
   height="100%"
   viewBox="-10 -10 20 20"
   id="svg2820">
  <title
     id="title2824">Wichtiger Einzelbaum, character o</title>
  <defs
     id="defs2830" />
  <path
     d="m -7.0037856,3.5880995 -1.857653,-1.3782586 -0.779016,-2.03742702 0.479394,-1.85765308 1.558032,-1.5580318 1.078637,-0.7190917 0.119849,-2.1572749 1.198486,-1.7378048 c 0,0 2.157275,-1.378259 2.456897,-1.4981076 0.299622,-0.1198486 2.876366,0.7790159 2.876366,0.7790159 l 2.097351,1.4381834 1.558031,-0.3595459 c 0,0 1.772287,-0.2593963 2.037427,-0.1198486 1.138562,0.599243 1.79773,1.138562 2.097351,1.5580319 0.164015,0.2296206 0.975295,1.297142 1.025146,2.270657 0.04122,0.8049003 -0.6656,1.5644984 -0.6656,1.5644984 0,0 -0.83894,1.31833461 -0.599243,1.43818326 0.239697,0.119849 1.617956,1.37825911 1.617956,1.37825911 l 0.239698,2.15727513 -0.958789,1.4981078 -1.79773,0.8389393 c 0,0 -0.252559,1.4048866 -1.018713,2.6366694 -0.427831,0.6878456 -2.277124,1.6179559 -2.277124,1.6179559 l -2.756518,-0.7790154 -1.25841,-0.5992437 -2.157275,1.0187132 c 0,0 -1.977502,-0.359545 -2.516821,-0.599243 -0.539319,-0.239697 -1.737805,-2.1572745 -1.737805,-2.1572745 l -0.05992,-2.6366691 z"
     id="path2999"
     style="fill:#ffffff;fill-opacity:1;stroke-width:0" />
  <path
     d="m 1.280772,0.01803904 c 0,0.72156168 -0.57724936,1.26273296 -1.26273296,1.26273296 -0.72156168,0 -1.29881104,-0.54117128 -1.29881104,-1.26273296 0,-0.72156168 0.57724936,-1.29881104 1.29881104,-1.29881104 0.6854836,0 1.26273296,0.57724936 1.26273296,1.29881104 z m 8.839131,2.02037276 c 0,-1.26273299 -0.685484,-2.3811536 -1.6956704,-2.99448103 0.6133275,-0.75763977 0.9380302,-1.73174807 0.9380302,-2.74193437 0,-2.5254659 -2.0203727,-4.5819167 -4.5458386,-4.5819167 -0.9380302,0 -1.8039042,0.2886247 -2.5254659,0.7576398 -0.9380301,-1.3709672 -2.52546585,-2.3089974 -4.3293701,-2.3089974 -2.8862467,0 -5.2674002,2.3811535 -5.2674002,5.2674003 0,0.2886246 0.036078,0.5411712 0.072156,0.8297959 -1.6595918,0.3968589 -2.8862471,1.9121385 -2.8862471,3.67996457 0,1.73174803 1.1905772,3.21094953 2.7780129,3.67996453 -0.1803904,0.4690151 -0.2886247,1.0101864 -0.2886247,1.5513577 0,2.4533097 1.9842946,4.4015262 4.4015263,4.4015262 1.0823425,0 2.0925289,-0.3968589 2.85016862,-1.0462644 0.79371785,0.8297959 1.91213848,1.298811 3.13879328,1.298811 2.4172317,0 4.4015263,-1.9121384 4.4376044,-4.3293701 1.6595918,-0.2886247 2.9223252,-1.731748 2.9223252,-3.463496 z M 8.3520765,-3.6980036 c 0,1.2627329 -0.7215617,2.4893878 -1.7317481,3.17487138 1.3348891,0.14431234 2.4893878,1.19057678 2.4893878,2.56154402 0,1.3709671 -1.1544987,2.4893878 -2.4893878,2.4893878 -0.1803904,0 -0.3607808,-0.036078 -0.5411712,-0.072156 0.072156,0.3247027 0.1082342,0.6133274 0.1082342,0.9380302 0,1.8760603 -1.5513576,3.427418 -3.427418,3.427418 -1.3348891,0 -2.56154394,-0.7576398 -3.06663711,-1.8760604 C -1.0643035,7.9552175 -1.9662556,8.568545 -3.2289885,8.568545 c -1.8760604,0 -3.3913399,-1.5152796 -3.3913399,-3.3913399 0,-0.9741083 0.3968589,-1.9121385 1.1905767,-2.5976221 -0.2886246,0.1082343 -0.5772493,0.1443123 -0.865874,0.1443123 -1.5513576,0 -2.8140905,-1.1905767 -2.8140905,-2.77801243 0,-1.55135757 1.2627329,-2.77801247 2.8140905,-2.77801247 0.1082343,0 0.2525466,0 0.396859,0.036078 -0.2525466,-0.5411713 -0.396859,-1.1905768 -0.396859,-1.7678261 0,-2.3450755 1.9121385,-4.257214 4.2572139,-4.257214 1.98429467,0 3.3552619,1.262733 4.0407455,2.9584029 0.6133274,-0.8297959 1.6595918,-1.4070452 2.8140905,-1.4070452 1.9482166,0 3.5356523,1.5874357 3.5356523,3.5717303 z"
     id="path2826"
     style="fill:#000000;stroke:#000000;stroke-width:0;stroke-miterlimit:4;stroke-opacity:1;stroke-dasharray:none" />
</svg>
