<?xml version="1.0" encoding="UTF-8" standalone="no"?>
<!-- Created with Inkscape (http://www.inkscape.org/) -->

<svg
   xmlns:svg="http://www.w3.org/2000/svg"
   xmlns="http://www.w3.org/2000/svg"
   version="1.1"
   width="100%"
   height="100%"
   viewBox="-10 -10 20 20"
   id="svg2">
  <title
     id="title6">Grotte, Höhleneingang, character f</title>
  <defs
     id="defs12" />
  <g
     id="text2841"
     style="font-size:35.46746445px;font-style:normal;font-variant:normal;font-weight:normal;font-stretch:normal;fill:param(fill) #FF0000;fill-opacity:1;stroke:#000000;stroke-width:0;">
    <path
       d="m 4.8012512,-1.664489 c 0.638399,1.5e-6 1.2177003,-0.094578 1.7379058,-0.2837397 0.5438174,-0.1891579 1.0167165,-0.39014 1.4186985,-0.6029469 0.4019464,-0.2364472 0.7211532,-0.4492517 0.9576216,-0.6384144 0.2364307,-0.1891566 0.3546554,-0.2837364 0.3546746,-0.2837397 l 0.6738818,0.7093493 c -0.023665,0.023648 -0.177357,0.1536948 -0.461077,0.3901421 C 9.2228426,-2.1610315 8.8681683,-1.924582 8.4189326,-1.664489 7.9696601,-1.428038 7.4376487,-1.2034109 6.8228967,-0.99060718 6.2081112,-0.77780179 5.53423,-0.67139951 4.8012512,-0.6714 4.2337576,-0.67139951 3.6899237,-0.71868941 3.1697478,-0.81326986 2.6731907,-0.93149399 2.2239366,-1.0733637 1.8219842,-1.2388794 1.4200083,-1.404393 1.0535115,-1.5699077 0.72249279,-1.7354239 0.41509777,-1.900937 0.17864824,-2.0428068 0.0131435,-2.1610335 c -0.18916955,0.1182267 -0.43744155,0.2600965 -0.74481675,0.4256096 -0.30739355,0.1655162 -0.66206785,0.3310309 -1.06402395,0.4965445 -0.4019723,0.1655157 -0.8630489,0.30738541 -1.3832311,0.42560954 -0.4965507,0.0945805 -1.0285622,0.14187035 -1.5960359,0.14186986 -0.7329987,4.9e-7 -1.4068798,-0.10640179 -2.0216455,-0.31920718 C -7.4113816,-1.2034109 -7.943393,-1.428038 -8.3926456,-1.664489 -8.8419012,-1.924582 -9.208398,-2.1610315 -9.492137,-2.3738383 -9.7522319,-2.6102856 -9.8941016,-2.7403329 -9.9177465,-2.7639804 l 0.6738818,-0.7093493 c -7e-7,3.3e-6 0.1182241,0.094583 0.3546746,0.2837397 0.2364485,0.1891627 0.5556554,0.4019672 0.9576216,0.6384144 0.4019622,0.2128069 0.8630388,0.413789 1.3832311,0.6029469 0.5438305,0.1891614 1.1349543,0.2837412 1.7733732,0.2837397 0.6147636,1.5e-6 1.194065,-0.070933 1.7379058,-0.2128048 0.5674719,-0.165513 1.0521935,-0.3428501 1.454166,-0.532012 0.4728907,-0.2128023 0.89849987,-0.4610743 1.27682872,-0.7448167 l 0.31920718,-0.2482723 0.31920718,0.2482723 c 0.37830899,0.2837424 0.80391812,0.5320144 1.27682872,0.7448167 0.4019527,0.1891619 0.8748517,0.366499 1.4186986,0.532012 0.5438209,0.1418714 1.1349448,0.2128063 1.7733732,0.2128048 m 0,4.433433 C 5.4396502,2.7689411 6.0189515,2.6743613 6.539157,2.4852043 7.0829744,2.2960421 7.5558735,2.0832375 7.9578555,1.84679 8.3598019,1.6339834 8.6790087,1.4330013 8.9154771,1.2438431 9.1519078,1.054682 9.2701325,0.96010223 9.2701517,0.96010336 9.553872,1.2674866 9.7193866,1.4566462 9.7666962,1.5275828 9.8376114,1.6221609 9.8730788,1.6930958 9.8730986,1.7403876 9.778499,1.8113205 9.5893394,1.9531902 9.3056192,2.1659972 9.0218605,2.4024443 8.6553638,2.6388939 8.2061278,2.8753464 7.7568556,3.1117929 7.2366666,3.312775 6.6455594,3.4782933 6.0780639,3.6674493 5.4632952,3.7620291 4.8012512,3.7620331 4.2337576,3.7620291 3.6899237,3.7029167 3.1697478,3.5846957 2.6731907,3.4901122 2.2239366,3.3600649 1.8219842,3.1945536 1.4200083,3.0290356 1.0535115,2.8635209 0.72249279,2.6980091 0.41509777,2.5324916 0.17864824,2.3906219 0.0131435,2.2723995 -0.17602605,2.3906219 -0.42429805,2.5324916 -0.73167325,2.6980091 -1.0390668,2.8635209 -1.3937411,3.0290356 -1.7956972,3.1945536 -2.1976695,3.3600649 -2.6587461,3.4901122 -3.1789283,3.5846957 -3.675479,3.7029167 -4.2074905,3.7620291 -4.7749642,3.7620331 -5.460673,3.7620291 -6.0990867,3.6674493 -6.6902073,3.4782933 -7.2576894,3.2891301 -7.7660559,3.0763255 -8.2153083,2.839879 -8.6645641,2.6034264 -9.0310608,2.3669769 -9.3147996,2.1305297 -9.5985397,1.9177228 -9.7995218,1.7758531 -9.9177465,1.7049201 l 0.6738818,-0.74481674 c -7e-7,-1.13e-6 0.1182241,0.0945786 0.3546746,0.28373974 0.2364485,0.1891582 0.5556554,0.3901403 0.9576216,0.6029469 0.4019622,0.2364475 0.8630388,0.4492521 1.3832311,0.6384143 0.5438305,0.189157 1.1349543,0.2837368 1.7733732,0.2837397 0.6384086,-2.9e-6 1.2295324,-0.08276 1.7733732,-0.2482722 0.543827,-0.1418724 1.0167261,-0.3073871 1.4186986,-0.4965445 0.4019559,-0.1655169 0.70934025,-0.3310315 0.92215408,-0.4965445 0.23644027,-0.1655164 0.35466503,-0.2482737 0.35467464,-0.2482723 L 0.0131435,1.0665058 0.33235068,1.2793105 c -1.025e-5,-1.4e-6 0.10639204,0.082756 0.31920718,0.2482723 0.23643896,0.165513 0.55564584,0.3310276 0.95762154,0.4965445 0.4019527,0.1891574 0.8748517,0.3546721 1.4186986,0.4965445 0.5438209,0.165512 1.1349448,0.2482693 1.7733732,0.2482722"
       id="path2867" />
  </g>
</svg>
