<?xml version="1.0" encoding="UTF-8" standalone="no"?>
<!-- Created with Inkscape (http://www.inkscape.org/) -->

<svg
   xmlns:dc="http://purl.org/dc/elements/1.1/"
   xmlns:cc="http://creativecommons.org/ns#"
   xmlns:rdf="http://www.w3.org/1999/02/22-rdf-syntax-ns#"
   xmlns:svg="http://www.w3.org/2000/svg"
   xmlns="http://www.w3.org/2000/svg"
   xmlns:sodipodi="http://sodipodi.sourceforge.net/DTD/sodipodi-0.dtd"
   xmlns:inkscape="http://www.inkscape.org/namespaces/inkscape"
   id="svg2"
   version="1.1"
   inkscape:version="0.91 r13725"
   xml:space="preserve"
   width="32.375"
   height="67.537498"
   viewBox="0 0 32.375 67.537498"
   sodipodi:docname="NTP-Spickel.eps"><metadata
     id="metadata8"><rdf:RDF><cc:Work
         rdf:about=""><dc:format>image/svg+xml</dc:format><dc:type
           rdf:resource="http://purl.org/dc/dcmitype/StillImage" /><dc:title></dc:title></cc:Work></rdf:RDF></metadata><defs
     id="defs6"><clipPath
       clipPathUnits="userSpaceOnUse"
       id="clipPath24"><path
         d="m 28.9492,316.27 210.719,0 0,194.512 -210.719,0 0,-194.512 z"
         id="path26"
         inkscape:connector-curvature="0" /></clipPath></defs><sodipodi:namedview
     pagecolor="#ffffff"
     bordercolor="#666666"
     borderopacity="1"
     objecttolerance="10"
     gridtolerance="10"
     guidetolerance="10"
     inkscape:pageopacity="0"
     inkscape:pageshadow="2"
     inkscape:window-width="640"
     inkscape:window-height="480"
     id="namedview4"
     showgrid="false"
     inkscape:zoom="3.4943551"
     inkscape:cx="16.1875"
     inkscape:cy="33.768749"
     inkscape:window-x="65"
     inkscape:window-y="24"
     inkscape:window-maximized="0"
     inkscape:current-layer="g10" /><g
     id="g10"
     inkscape:groupmode="layer"
     inkscape:label="ink_ext_XXXXXX"
     transform="matrix(1.25,0,0,-1.25,0,67.5375)"><g
       id="g12"
       transform="scale(0.1,0.1)"><path
         d="m 129.539,0 c 15.664,0 28.352,12.6953 28.352,28.3477 0,15.6562 -12.688,28.3398 -28.352,28.3398 -15.656,0 -28.348,-12.6836 -28.348,-28.3398 C 101.191,12.6953 113.883,0 129.539,0"
         style="fill:#f47618;fill-opacity:1;fill-rule:nonzero;stroke:none"
         id="path14"
         inkscape:connector-curvature="0" /><path
         d="m 256.484,416.746 c 0,66.848 -54.187,121.043 -121.039,121.043 -2.011,0 -3.968,-0.211 -5.953,-0.305 -1.988,0.094 -3.949,0.305 -5.945,0.305 -66.8517,0 -121.04309,-54.195 -121.04309,-121.043 0,-13.488 2.30078,-26.422 6.36718,-38.539 L 129.492,33.5039 250.117,378.207 c 4.063,12.117 6.367,25.051 6.367,38.539"
         style="fill:#ffffff;fill-opacity:1;fill-rule:nonzero;stroke:none"
         id="path16"
         inkscape:connector-curvature="0" /><path
         d="m 256.484,416.746 c 0,66.848 -54.187,121.043 -121.039,121.043 -2.011,0 -3.968,-0.211 -5.953,-0.305 -1.988,0.094 -3.949,0.305 -5.945,0.305 -66.8517,0 -121.04309,-54.195 -121.04309,-121.043 0,-13.488 2.30078,-26.422 6.36718,-38.539 L 129.492,33.5039 250.117,378.207 c 4.063,12.117 6.367,25.051 6.367,38.539 z"
         style="fill:none;stroke:#040606;stroke-width:5;stroke-linecap:butt;stroke-linejoin:miter;stroke-miterlimit:4;stroke-dasharray:none;stroke-opacity:1"
         id="path18"
         inkscape:connector-curvature="0" /><g
         id="g20"><g
           id="g22"
           clip-path="url(#clipPath24)"><path
             d="m 126.199,510.781 c -53.7107,0 -97.2498,-43.539 -97.2498,-97.25 0,-53.711 43.5391,-97.261 97.2498,-97.261 53.711,0 97.246,43.55 97.246,97.261 0,53.711 -43.535,97.25 -97.246,97.25"
             style="fill:#ffffff;fill-opacity:1;fill-rule:nonzero;stroke:none"
             id="path28"
             inkscape:connector-curvature="0" /><path
             d="m 126.199,344.492 c -38.1287,0 -69.0349,30.906 -69.0349,69.039 0,38.117 30.9062,69.032 69.0349,69.032 38.137,0 69.043,-30.915 69.043,-69.032 0,-38.133 -30.906,-69.039 -69.043,-69.039 m 0,155.328 c -47.6599,0 -86.2967,-38.629 -86.2967,-86.289 0,-47.66 38.6368,-86.301 86.2967,-86.301 47.656,0 86.301,38.641 86.301,86.301 0,47.66 -38.645,86.289 -86.301,86.289"
             style="fill:#f47618;fill-opacity:1;fill-rule:nonzero;stroke:none"
             id="path30"
             inkscape:connector-curvature="0" /><path
             d="m 157.141,414.227 82.539,-54.707 0,109.421 -82.539,-54.714"
             style="fill:#ffffff;fill-opacity:1;fill-rule:nonzero;stroke:none"
             id="path32"
             inkscape:connector-curvature="0" /><path
             d="m 177.004,414.227 51.707,-34.278 0,68.563 -51.707,-34.285"
             style="fill:#3a82cc;fill-opacity:1;fill-rule:nonzero;stroke:none"
             id="path34"
             inkscape:connector-curvature="0" /><path
             d="m 97.7969,448.125 c 4.5431,0 8.2231,-3.684 8.2231,-8.223 0,-4.535 -3.68,-8.218 -8.2231,-8.218 -4.5352,0 -8.2149,3.683 -8.2149,8.218 0,4.539 3.6797,8.223 8.2149,8.223"
             style="fill:#f47618;fill-opacity:1;fill-rule:nonzero;stroke:none"
             id="path36"
             inkscape:connector-curvature="0" /><path
             d="m 154.609,448.125 c 4.532,0 8.211,-3.684 8.211,-8.223 0,-4.535 -3.679,-8.218 -8.211,-8.218 -4.543,0 -8.222,3.683 -8.222,8.218 0,4.539 3.679,8.223 8.222,8.223"
             style="fill:#f47618;fill-opacity:1;fill-rule:nonzero;stroke:none"
             id="path38"
             inkscape:connector-curvature="0" /><path
             d="m 159.063,428.055 -8.918,0 c -5.34,0 -7.723,-4.809 -7.723,-8.578 l 0,-16.051 c 0,-2.649 1.672,-4.723 3.789,-4.887 l 0,-25.894 c 0,-2.04 1.66,-3.7 3.711,-3.7 2.043,0 3.699,1.66 3.699,3.7 l 0,17.605 1.965,0 0,-17.605 c 0,-2.04 1.66,-3.7 3.711,-3.7 2.051,0 3.711,1.66 3.711,3.7 l 0,25.894 c 2.121,0.164 3.789,2.238 3.789,4.887 l 0,16.051 c 0,3.769 -2.395,8.578 -7.734,8.578"
             style="fill:#f47618;fill-opacity:1;fill-rule:nonzero;stroke:none"
             id="path40"
             inkscape:connector-curvature="0" /><path
             d="m 106.074,409.316 0,17.719 c -1.051,0.629 -2.308,1.02 -3.812,1.02 l -8.9182,0 c -5.3399,0 -7.7305,-4.809 -7.7305,-8.578 l 0,-16.051 c 0,-2.649 1.6719,-4.711 3.793,-4.883 l 0,-25.887 c 0,-2.051 1.6601,-3.711 3.707,-3.711 2.039,0 3.707,1.66 3.707,3.711 l 0,17.586 1.9649,0 0,-17.586 c 0,-2.051 1.6598,-3.711 3.7108,-3.711 2.043,0 3.703,1.66 3.703,3.711 l 0,25.887 c 1.992,0.16 3.563,1.992 3.75,4.41 -2.234,0.84 -3.875,3.313 -3.875,6.363"
             style="fill:#f47618;fill-opacity:1;fill-rule:nonzero;stroke:none"
             id="path42"
             inkscape:connector-curvature="0" /><path
             d="m 128.027,439.906 -10.707,0 c -6.414,0 -9.285,-5.781 -9.285,-10.301 l 0,-19.269 c 0,-3.262 2.11,-5.801 4.754,-5.887 l 0,-31.051 c 0,-2.46 1.984,-4.453 4.445,-4.453 2.461,0 4.45,1.993 4.45,4.453 l 0,21.118 1.972,0 0,-21.118 c 0,-2.46 1.992,-4.453 4.449,-4.453 2.461,0 4.454,1.993 4.454,4.453 l 0,31.051 c 2.636,0.078 4.746,2.617 4.746,5.887 l 0,19.269 c 0,4.52 -2.867,10.301 -9.278,10.301"
             style="fill:#f47618;fill-opacity:1;fill-rule:nonzero;stroke:none"
             id="path44"
             inkscape:connector-curvature="0" /><path
             d="m 122.672,444.145 c 5.293,0 9.59,4.3 9.59,9.589 0,5.289 -4.297,9.59 -9.59,9.59 -5.289,0 -9.59,-4.301 -9.59,-9.59 0,-5.289 4.301,-9.589 9.59,-9.589"
             style="fill:#f47618;fill-opacity:1;fill-rule:nonzero;stroke:none"
             id="path46"
             inkscape:connector-curvature="0" /></g></g><path
         d="m 103.199,220.418 3.223,2.461 c 3.258,2.551 7.195,5.734 11.816,9.57 4.867,4.082 9.239,7.949 13.106,11.602 2.113,1.965 4.082,4.082 5.906,6.328 1.898,2.297 3.387,4.629 4.461,6.992 0.75,1.602 1.121,3.379 1.121,5.313 0.078,4.55 -2.004,7.648 -6.227,9.296 -1.503,0.606 -3.082,0.911 -4.726,0.911 -6.156,-0.149 -9.953,-3.371 -11.387,-9.668 l -0.265,-1.399 -15.149,0 0.055,3.067 c 0.32,6.66 3.383,11.652 9.183,14.98 4.801,2.727 10.723,4.063 17.778,4.024 7.269,0.039 13.25,-1.551 17.945,-4.774 5.254,-3.613 7.91,-9.043 7.949,-16.281 0,-3.613 -0.617,-6.777 -1.836,-9.5 -1.816,-4.152 -4.511,-7.949 -8.047,-11.387 -3.156,-3.117 -6.828,-6.379 -11.015,-9.777 -5.082,-4.188 -9.274,-7.43 -12.57,-9.727 l -6.176,-4.179 41.676,0 0,-11.446 -56.821,0 0,13.594"
         style="fill:#040606;fill-opacity:1;fill-rule:nonzero;stroke:none"
         id="path48"
         inkscape:connector-curvature="0" /></g></g></svg>