<?xml version="1.0" encoding="UTF-8" standalone="no"?>
<!-- Created with Inkscape (http://www.inkscape.org/) -->

<svg
   xmlns:dc="http://purl.org/dc/elements/1.1/"
   xmlns:cc="http://creativecommons.org/ns#"
   xmlns:rdf="http://www.w3.org/1999/02/22-rdf-syntax-ns#"
   xmlns:svg="http://www.w3.org/2000/svg"
   xmlns="http://www.w3.org/2000/svg"
   version="1.1"
   width="155.37"
   height="155.37"
   id="svg3185">
  <defs
     id="defs3187" />
  <metadata
     id="metadata3190">
    <rdf:RDF>
      <cc:Work
         rdf:about="">
        <dc:format>image/svg+xml</dc:format>
        <dc:type
           rdf:resource="http://purl.org/dc/dcmitype/StillImage" />
        <dc:title></dc:title>
      </cc:Work>
    </rdf:RDF>
  </metadata>
  <g
     transform="translate(-202.03052,-347.46918)"
     id="layer1">
    <g
       id="text3193"
       style="font-size:72px;font-style:normal;font-variant:normal;font-weight:normal;font-stretch:normal;line-height:125%;letter-spacing:0px;word-spacing:0px;fill:param(fill) #000000;fill-opacity:1;stroke:none">
      <path
         d="m 308.10227,425.22627 c -6e-5,-3.83997 -0.76806,-7.48797 -2.304,-10.944 -1.44006,-3.45596 -3.40805,-6.43196 -5.904,-8.928 -2.49605,-2.59195 -5.47205,-4.60795 -8.928,-6.048 -3.45604,-1.53595 -7.10404,-2.30394 -10.944,-2.304 -3.93603,6e-5 -7.63202,0.76805 -11.088,2.304 -3.45602,1.44005 -6.48001,3.45605 -9.072,6.048 -2.49601,2.49604 -4.51201,5.47204 -6.048,8.928 -1.44,3.45603 -2.16,7.10403 -2.16,10.944 0,3.93602 0.72,7.63202 2.16,11.088 1.53599,3.45601 3.55199,6.48001 6.048,9.072 2.59199,2.496 5.61598,4.512 9.072,6.048 3.45598,1.44 7.15197,2.16 11.088,2.16 3.83996,0 7.48796,-0.72 10.944,-2.16 3.45595,-1.536 6.43195,-3.552 8.928,-6.048 2.49595,-2.59199 4.46394,-5.61599 5.904,-9.072 1.53594,-3.45598 2.30394,-7.15198 2.304,-11.088 m -37.44,21.888 c -2.88002,-1.24799 -5.42402,-2.92799 -7.632,-5.04 -2.11201,-2.11199 -3.79201,-4.60799 -5.04,-7.488 -1.24801,-2.87998 -1.87201,-5.99998 -1.872,-9.36 -10e-6,-3.26397 0.62399,-6.28797 1.872,-9.072 1.24799,-2.87996 2.92799,-5.37596 5.04,-7.488 2.20798,-2.20795 4.75198,-3.93595 7.632,-5.184 2.20798,-0.95995 4.55997,-1.53595 7.056,-1.728 l 0,47.232 c -2.49603,-0.288 -4.84802,-0.912 -7.056,-1.872 m 32.976,-21.888 c -6e-5,3.36002 -0.62406,6.48002 -1.872,9.36 -1.24805,2.88001 -2.97605,5.37601 -5.184,7.488 -2.11205,2.11201 -4.60804,3.79201 -7.488,5.04 -2.20804,1.056 -4.56004,1.68 -7.056,1.872 l 0,-47.232 c 2.49596,0.19205 4.84796,0.76805 7.056,1.728 2.87996,1.24805 5.37595,2.97605 7.488,5.184 2.20795,2.11204 3.93595,4.60804 5.184,7.488 1.24794,2.78403 1.87194,5.80803 1.872,9.072 m -36.576,-77.76 4.608,0 0,14.832 14.832,-14.832 6.336,0 -13.104,13.104 12.816,17.28 -5.616,0 -10.512,-13.968 -4.752,4.896 0,9.072 -4.608,0 0,-30.384"
         id="path3288"
         style="font-size:144px" />
    </g>
  </g>
</svg>
