<?xml version="1.0" encoding="UTF-8" standalone="no"?>
<!-- Created with Inkscape (http://www.inkscape.org/) -->

<svg
   xmlns:dc="http://purl.org/dc/elements/1.1/"
   xmlns:cc="http://creativecommons.org/ns#"
   xmlns:rdf="http://www.w3.org/1999/02/22-rdf-syntax-ns#"
   xmlns:svg="http://www.w3.org/2000/svg"
   xmlns="http://www.w3.org/2000/svg"
   xmlns:sodipodi="http://sodipodi.sourceforge.net/DTD/sodipodi-0.dtd"
   xmlns:inkscape="http://www.inkscape.org/namespaces/inkscape"
   width="100"
   height="100"
   id="svg2"
   version="1.1"
   inkscape:version="0.48.2 r9819"
   sodipodi:docname="Neo_7.svg">
  <defs
     id="defs4" />
  <sodipodi:namedview
     id="base"
     pagecolor="#ffffff"
     bordercolor="#666666"
     borderopacity="1.0"
     inkscape:pageopacity="0.0"
     inkscape:pageshadow="2"
     inkscape:zoom="5.06"
     inkscape:cx="52.766798"
     inkscape:cy="49.883955"
     inkscape:document-units="px"
     inkscape:current-layer="layer1"
     showgrid="false"
     inkscape:window-width="1066"
     inkscape:window-height="733"
     inkscape:window-x="318"
     inkscape:window-y="100"
     inkscape:window-maximized="0"
     width="100px" />
  <metadata
     id="metadata7">
    <rdf:RDF>
      <cc:Work
         rdf:about="">
        <dc:format>image/svg+xml</dc:format>
        <dc:type
           rdf:resource="http://purl.org/dc/dcmitype/StillImage" />
        <dc:title></dc:title>
      </cc:Work>
    </rdf:RDF>
  </metadata>
  <g
     inkscape:label="Layer 1"
     inkscape:groupmode="layer"
     id="layer1"
     transform="translate(0,-952.3622)">
    <path
       style="font-size:medium;font-style:normal;font-variant:normal;font-weight:normal;font-stretch:normal;text-indent:0;text-align:start;text-decoration:none;line-height:normal;letter-spacing:normal;word-spacing:normal;text-transform:none;direction:ltr;block-progression:tb;writing-mode:lr-tb;text-anchor:start;baseline-shift:baseline;color:#000000;fill:#000000;fill-opacity:1;stroke:none;stroke-width:3.68046999;marker:none;visibility:visible;display:inline;overflow:visible;enable-background:accumulate;font-family:Sans;-inkscape-font-specification:Sans"
       d="m 49.59375,954.125 c -26.178874,0 -47.40625,21.49571 -47.40625,47.9688 0,26.473 21.227377,48 47.40625,48 26.178874,0 47.4375,-21.527 47.4375,-48 0,-26.47309 -21.258625,-47.9688 -47.4375,-47.9688 z m 0,3.65625 c 24.164573,0 43.75,19.80362 43.75,44.31255 0,24.5089 -19.585426,44.3124 -43.75,44.3124 -24.164573,0 -43.71875,-19.8035 -43.71875,-44.3124 0,-24.50893 19.554178,-44.31255 43.71875,-44.31255 z"
       id="path2985"
       inkscape:connector-curvature="0" />
    <g
       style="font-size:72px;font-style:normal;font-variant:normal;font-weight:normal;font-stretch:normal;line-height:125%;letter-spacing:0px;word-spacing:0px;fill:#000000;fill-opacity:1;stroke:none;font-family:Arial Unicode MS;-inkscape-font-specification:Arial Unicode MS"
       id="text2999">
      <path
         d="m 56.92552,999.58203 c 6.445279,2.06257 9.667932,6.45707 9.667969,13.18357 -3.7e-5,4.4297 -1.582067,8.1328 -4.746094,11.1094 -3.164092,2.9766 -7.230494,4.4648 -12.199219,4.4648 -5.01564,0 -9.09962,-1.5 -12.251953,-4.5 -3.152348,-2.9999 -4.728519,-6.7617 -4.728516,-11.2851 -3e-6,-3.2578 0.884762,-6.1055 2.654297,-8.543 1.769524,-2.4375 4.154287,-3.914 7.154297,-4.42967 l 0,-0.14062 C 37.320044,997.84769 34.741921,994.36722 34.741926,989 c -5e-6,-3.79683 1.359369,-6.96675 4.078125,-9.50977 2.718738,-2.54291 6.281235,-3.8144 10.6875,-3.81445 4.476538,5e-5 8.091769,1.31255 10.845703,3.9375 2.753873,2.62505 4.130825,5.80082 4.13086,9.52734 -3.5e-5,5.06254 -2.519564,8.49613 -7.558594,10.30079 z m -7.277344,-2.49609 c 2.367165,3e-5 4.353491,-0.75583 5.958985,-2.26758 1.605441,-1.51169 2.408174,-3.40426 2.408203,-5.67774 -2.9e-5,-2.32027 -0.814481,-4.2773 -2.44336,-5.87109 -1.62893,-1.5937 -3.626975,-2.39058 -5.99414,-2.39062 -2.41408,4e-5 -4.406266,0.7852 -5.976563,2.35546 -1.570325,1.57036 -2.35548,3.42192 -2.355469,5.55469 -1.1e-5,2.55473 0.808582,4.57621 2.425782,6.06446 1.617172,1.48831 3.609357,2.23245 5.976562,2.23242 z m 0,26.05076 c 2.97654,0 5.460912,-0.9609 7.453125,-2.8828 1.992158,-1.9219 2.988251,-4.418 2.988281,-7.4883 -3e-5,-3.0703 -1.02542,-5.5898 -3.076171,-7.5586 -2.050807,-1.9687 -4.552758,-2.9531 -7.50586,-2.9531 -3.070329,0 -5.56642,1.0137 -7.488281,3.041 -1.921886,2.0274 -2.882822,4.4707 -2.882813,7.3301 -9e-6,2.9766 0.990224,5.4727 2.970704,7.4883 1.980454,2.0156 4.494123,3.0234 7.541015,3.0234 z"
         style="font-family:Arial Unicode MS;-inkscape-font-specification:Arial Unicode MS"
         id="path3028" />
    </g>
  </g>
</svg>
