<?xml version="1.0" encoding="UTF-8" standalone="no"?>
<!-- Created with Inkscape (http://www.inkscape.org/) -->

<svg
   xmlns:dc="http://purl.org/dc/elements/1.1/"
   xmlns:cc="http://creativecommons.org/ns#"
   xmlns:rdf="http://www.w3.org/1999/02/22-rdf-syntax-ns#"
   xmlns:svg="http://www.w3.org/2000/svg"
   xmlns="http://www.w3.org/2000/svg"
   xmlns:sodipodi="http://sodipodi.sourceforge.net/DTD/sodipodi-0.dtd"
   xmlns:inkscape="http://www.inkscape.org/namespaces/inkscape"
   version="1.1"
   width="100%"
   height="100%"
   viewBox="-10 -10 20 20"
   id="svg3047"
   inkscape:version="0.48.0 r9654"
   sodipodi:docname="ortsbild_nationlaer_bedeutung.svg">
  <sodipodi:namedview
     pagecolor="#ffffff"
     bordercolor="#666666"
     borderopacity="1"
     objecttolerance="10"
     gridtolerance="10"
     guidetolerance="10"
     inkscape:pageopacity="0"
     inkscape:pageshadow="2"
     inkscape:window-width="1160"
     inkscape:window-height="780"
     id="namedview3082"
     showgrid="false"
     inkscape:zoom="25.948323"
     inkscape:cx="9.3771626"
     inkscape:cy="9.6885813"
     inkscape:window-x="0"
     inkscape:window-y="24"
     inkscape:window-maximized="0"
     inkscape:current-layer="svg3047" />
  <title
     id="title3051">Ortsbild von nationaler Bedeutung</title>
  <defs
     id="defs3057" />
  <metadata
     id="metadata3049">
created by tobias.reber@bd.so.ch
<rdf:RDF>
  <cc:Work
     rdf:about="">
    <dc:format>image/svg+xml</dc:format>
    <dc:type
       rdf:resource="http://purl.org/dc/dcmitype/StillImage" />
    <dc:title>Ortsbild von nationaler Bedeutung</dc:title>
  </cc:Work>
</rdf:RDF>
</metadata>
  <path
     d="m 0,-0.01662475 20.016624,0 0,20.04890975 -20.016624,0 z"
     transform="translate(-10,-10)"
     id="rect5814"
     style="fill:none;stroke:param(outline) #000000;stroke-width:param(outline-width) 2;stroke-miterlimit:4;stroke-opacity:1;stroke-dasharray:none" />
  <path
     d="m 0.03300001,-5.1181408 c -1.21199381,1.29e-5 -2.15197081,0.4476131 -2.81993361,1.3428019 -0.6679751,0.8952118 -1.0019596,2.1553784 -1.0019544,3.78050352 -5.2e-6,1.61825448 0.3339793,2.87497788 1.0019544,3.77017428 0.6679628,0.8952042 1.6079398,1.3428044 2.81993361,1.3428019 C 1.2518622,5.1181433 2.1952823,4.6705431 2.863263,3.7753389 3.5312202,2.8801425 3.8652047,1.6234191 3.8652175,0.00516462 3.8652047,-1.6199605 3.5312202,-2.8801271 2.863263,-3.7753389 2.1952823,-4.6705277 1.2518622,-5.1181279 0.03300001,-5.1181408 m 0,-2.8818592 C 2.512051,-7.9999842 4.4539814,-7.2907102 5.8587969,-5.8721755 7.2635827,-4.4536138 7.965983,-2.4945024 7.966,0.00516462 7.965983,2.4979609 7.2635827,4.4536292 5.8587969,5.8721755 4.4539814,7.2907256 2.512051,7.9999997 0.03300001,8 -2.4391828,7.9999997 -4.3811131,7.2907256 -5.7927968,5.8721755 -7.1976006,4.4536292 -7.9000011,2.4979609 -7.9,0.00516462 -7.9000011,-2.4945024 -7.1976006,-4.4536138 -5.7927968,-5.8721755 -4.3811131,-7.2907102 -2.4391828,-7.9999842 0.03300001,-8"
     id="path4858"
     inkscape:connector-curvature="0" 
     style="fill:param(fill) #000000" />
</svg>
