<svg id="Ebene_1" data-name="Ebene 1" xmlns="http://www.w3.org/2000/svg" viewBox="0 0 13.01 13.01"><title>190424 ARP RP Pikto</title><rect fill="#fff" width="13.01" height="13.01"/><path fill="red" d="M13,13H0V0H13ZM.25,12.76H12.76V.25H.25Z"/><path fill="red" d="M4.29,10.25a1,1,0,1,0,0,2,1,1,0,0,0,0-2Z"/><path fill="red" d="M6.83,10.25a1,1,0,1,0,1,1A1,1,0,0,0,6.83,10.25Z"/><path fill="red" d="M12.7,2.87H.33v.19H5.5L3.16,4.4l1.28.87H.34v6.56H2.75V9.89H8.37v1.95h2.21a.22.22,0,0,0,.21-.21s0,0,0,0l-.26-1.7L10,5.83a.65.65,0,0,0-.64-.56H6.68L8,4.4h0L5.61,3.06H12.7Zm-4.59,3a.24.24,0,0,1,.23-.23h1a.23.23,0,0,1,.22.2l.25,1.74v0a.23.23,0,0,1-.23.23H8.34a.23.23,0,0,1-.23-.23ZM7.17,4.44,6,5.27H5.17L3.94,4.43l1.62-.92Z"/></svg>
