<?xml version="1.0" encoding="UTF-8" standalone="no"?>
<!-- Created with Inkscape (http://www.inkscape.org/) -->

<svg
   xmlns:dc="http://purl.org/dc/elements/1.1/"
   xmlns:cc="http://creativecommons.org/ns#"
   xmlns:rdf="http://www.w3.org/1999/02/22-rdf-syntax-ns#"
   xmlns:svg="http://www.w3.org/2000/svg"
   xmlns="http://www.w3.org/2000/svg"
   xmlns:sodipodi="http://sodipodi.sourceforge.net/DTD/sodipodi-0.dtd"
   xmlns:inkscape="http://www.inkscape.org/namespaces/inkscape"
   version="1.2"
   width="100%"
   height="100%"
   viewBox="-10 -10 20 20"
   id="svg2"
   inkscape:version="0.48.3.1 r9886"
   sodipodi:docname="symbol_P_hoheitsgrenzstein auf_markstein_oder_kunststoffzeichen.svg">
  <metadata
     id="metadata3083">
    <rdf:RDF>
      <cc:Work
         rdf:about="">
        <dc:format>image/svg+xml</dc:format>
        <dc:type
           rdf:resource="http://purl.org/dc/dcmitype/StillImage" />
      </cc:Work>
    </rdf:RDF>
  </metadata>
  <sodipodi:namedview
     pagecolor="#ffffff"
     bordercolor="#666666"
     borderopacity="1"
     objecttolerance="10"
     gridtolerance="10"
     guidetolerance="10"
     inkscape:pageopacity="0"
     inkscape:pageshadow="2"
     inkscape:window-width="953"
     inkscape:window-height="747"
     id="namedview3081"
     showgrid="false"
     inkscape:zoom="11.8"
     inkscape:cx="10"
     inkscape:cy="10"
     inkscape:window-x="57"
     inkscape:window-y="24"
     inkscape:window-maximized="0"
     inkscape:current-layer="svg2" />
  <title
     id="title6">Hoheitsgrenzstein auf Markstein oder Kunststoffzeichen, character P</title>
  <defs
     id="defs12" />
  <path
     d="m 26.440677,2.4254234 a 2.8389831,2.8389831 0 1 1 -5.677966,0 2.8389831,2.8389831 0 1 1 5.677966,0 z"
     transform="matrix(3.1791044,0,0,3.1791044,-75.03225,-7.7106742)"
     id="path3927"
     style="fill:#ffffff;fill-opacity:1;stroke-width:0" />
  <path
     d="m -9.45,0 c 0,5.2125 4.2375,9.45 9.45,9.45 5.2125,0 9.45,-4.2375 9.45,-9.45 0,-5.2125 -4.2375,-9.45 -9.45,-9.45 -5.2125,0 -9.45,4.2375 -9.45,9.45 z m 1.05,0 c 0,-4.6125 3.7875,-8.4 8.4,-8.4 4.6125,0 8.4,3.7875 8.4,8.4 C 8.4,4.6125 4.6125,8.4 0,8.4 -4.6125,8.4 -8.4,4.6125 -8.4,0 z m 4.2,0 c 0,2.325 1.875,4.2 4.2,4.2 2.325,0 4.2,-1.875 4.2,-4.2 0,-2.325 -1.875,-4.2 -4.2,-4.2 -2.325,0 -4.2,1.875 -4.2,4.2 z m 1.05,0 c 0,-1.725 1.425,-3.15 3.15,-3.15 1.725,0 3.15,1.425 3.15,3.15 C 3.15,1.725 1.725,3.15 0,3.15 -1.725,3.15 -3.15,1.725 -3.15,0 z"
     id="path8"
     style="fill:#ff8200;stroke:#ff8200;stroke-width:0;stroke-miterlimit:4;stroke-opacity:1;stroke-dasharray:none;fill-opacity:1" />
  <path
     sodipodi:type="arc"
     style="fill:#ff8200;fill-opacity:1;stroke:#ff8200;stroke-width:2.5999999;stroke-miterlimit:4;stroke-opacity:1;stroke-dasharray:none"
     id="path3901"
     sodipodi:cx="9.9152546"
     sodipodi:cy="9.7457628"
     sodipodi:rx="2.3728814"
     sodipodi:ry="2.2033899"
     d="m 12.288136,9.7457628 a 2.3728814,2.2033899 0 1 1 -4.7457628,0 2.3728814,2.2033899 0 1 1 4.7457628,0 z"
     transform="translate(-10,-10)" />
</svg>
