<?xml version="1.0" encoding="UTF-8" standalone="no"?>
<!-- Created with Inkscape (http://www.inkscape.org/) -->

<svg
   xmlns:dc="http://purl.org/dc/elements/1.1/"
   xmlns:cc="http://creativecommons.org/ns#"
   xmlns:rdf="http://www.w3.org/1999/02/22-rdf-syntax-ns#"
   xmlns:svg="http://www.w3.org/2000/svg"
   xmlns="http://www.w3.org/2000/svg"
   xmlns:sodipodi="http://sodipodi.sourceforge.net/DTD/sodipodi-0.dtd"
   xmlns:inkscape="http://www.inkscape.org/namespaces/inkscape"
   version="1.1"
   width="100%"
   height="100%"
   viewBox="-10 -10 20 20"
   id="svg3047"
   inkscape:version="0.48.0 r9654"
   sodipodi:docname="sport.svg">
  <sodipodi:namedview
     pagecolor="#ffffff"
     bordercolor="#666666"
     borderopacity="1"
     objecttolerance="10"
     gridtolerance="10"
     guidetolerance="10"
     inkscape:pageopacity="0"
     inkscape:pageshadow="2"
     inkscape:window-width="1169"
     inkscape:window-height="754"
     id="namedview5879"
     showgrid="true"
     inkscape:snap-page="false"
     inkscape:snap-grids="true"
     inkscape:snap-bbox="true"
     inkscape:snap-object-midpoints="false"
     inkscape:snap-to-guides="false"
     inkscape:zoom="14.45"
     inkscape:cx="10"
     inkscape:cy="10"
     inkscape:window-x="0"
     inkscape:window-y="24"
     inkscape:window-maximized="0"
     inkscape:current-layer="svg3047">
    <inkscape:grid
       type="xygrid"
       id="grid5881" />
  </sodipodi:namedview>
  <title
     id="title3051">Sport</title>
  <defs
     id="defs3057" />
  <metadata
     id="metadata3049">
created by tobias.reber@bd.so.ch
<rdf:RDF>
  <cc:Work
     rdf:about="">
    <dc:format>image/svg+xml</dc:format>
    <dc:type
       rdf:resource="http://purl.org/dc/dcmitype/StillImage" />
    <dc:title>Sport</dc:title>
  </cc:Work>
</rdf:RDF>
</metadata>
  <path
     d="m 0,-0 20,0 0,20 -20,0 z"
     transform="translate(-10,-10)"
     id="rect5814"
     style="fill:none;stroke:param(outline) #000000;stroke-width:param(outline-width) 2;stroke-miterlimit:4;stroke-opacity:1" />
  <path
     d="m 5.1557214,-7.2356358 0,3.264041 C 4.3087013,-4.3503215 3.4823522,-4.636097 2.676672,-4.8289222 1.8709719,-5.0217221 1.110042,-5.1181281 0.39388106,-5.1181412 c -0.95030913,1.31e-5 -1.65270556,0.13085 -2.10719146,0.3925114 -0.4544981,0.2616868 -0.681744,0.6679695 -0.6817387,1.2188509 -5.3e-6,0.4131806 0.1514923,0.7368298 0.454492,0.9709493 0.3098753,0.2272533 0.867661,0.4235087 1.67335843,0.588767 l 1.69401677,0.340865 c 1.7146652,0.3443167 2.9335301,0.8676649 3.6565977,1.570045 C 5.8064587,0.6662432 6.1679864,1.6647359 6.168,2.9593285 6.1679864,4.6602138 5.6618471,5.9272665 4.6495823,6.7604907 3.6441791,7.5868304 2.1051043,7.9999997 0.03235303,8 -0.94550074,7.9999997 -1.9267904,7.9070368 -2.9115176,7.7211102 -3.8962551,7.5351841 -4.8809876,7.2597381 -5.8657179,6.8947705 l 0,-3.3570044 c 0.9847303,0.5233523 1.935032,0.9193061 2.8509064,1.1878634 0.9227518,0.2616769 1.8110769,0.3925139 2.66497784,0.3925115 C 0.51782549,5.1181434 1.1823474,4.9735342 1.6437353,4.6843127 2.1051043,4.3950971 2.3357931,3.9819272 2.335803,3.4448027 2.3357931,2.9627766 2.1774097,2.5909242 1.8606519,2.3292448 1.5507619,2.0675763 0.92755684,1.8334466 -0.0089644,1.6268559 L -1.5480408,1.2859909 C -3.090565,0.9554618 -4.2199083,0.4286708 -4.9360743,-0.2943836 -5.64536,-1.0174222 -6.0000013,-1.9918131 -6,-3.2175596 -6.0000013,-4.753162 -5.504192,-5.9341379 -4.5125707,-6.7604909 -3.520955,-7.5868149 -2.095503,-7.9999851 -0.23621057,-8 c 0.84700045,1.49e-5 1.71810997,0.065439 2.61333127,0.1962553 0.8952011,0.1239666 1.8214007,0.3133351 2.7786007,0.5681089"
     id="path3272"
     style="fill:param(fill) #000000"
     inkscape:connector-curvature="0" />
</svg>
