<?xml version="1.0" encoding="UTF-8" standalone="no"?>
<!-- Created with Inkscape (http://www.inkscape.org/) -->

<svg
   xmlns:svg="http://www.w3.org/2000/svg"
   xmlns="http://www.w3.org/2000/svg"
   version="1.2"
   width="100%"
   height="100%"
   viewBox="-10 -10 20 20"
   id="svg2820">
  <title
     id="title2824">Lagefixpunkt 3 auf Bolzen, character K</title>
  <defs
     id="defs2830" />
  <path
     d="m 26.440677,2.4254234 a 2.8389831,2.8389831 0 1 1 -5.677966,0 2.8389831,2.8389831 0 1 1 5.677966,0 z"
     transform="matrix(2.1940298,0,0,2.1940298,-51.78282,-5.3214511)"
     id="path3927"
     style="fill:#ffffff;fill-opacity:1;stroke-width:0" />
  <path
     d="m -6.825,0 c 0,3.7875 3.0375,6.825 6.825,6.825 3.7875,0 6.825,-3.0375 6.825,-6.825 0,-3.7875 -3.0375,-6.825 -6.825,-6.825 -3.7875,0 -6.825,3.0375 -6.825,6.825 z m 1.05,0 c 0,-3.1875 2.5875,-5.775 5.775,-5.775 3.1875,0 5.775,2.5875 5.775,5.775 C 5.775,3.1875 3.1875,5.775 0,5.775 -3.1875,5.775 -5.775,3.1875 -5.775,0 z m 2.625,0 c 0,1.7625 1.3875,3.15 3.15,3.15 1.7625,0 3.15,-1.3875 3.15,-3.15 0,-1.7625 -1.3875,-3.15 -3.15,-3.15 -1.7625,0 -3.15,1.3875 -3.15,3.15 z m 1.05,0 c 0,-1.1625 0.9375,-2.1 2.1,-2.1 1.1625,0 2.1,0.9375 2.1,2.1 C 2.1,1.1625 1.1625,2.1 0,2.1 -1.1625,2.1 -2.1,1.1625 -2.1,0 z"
     id="path2826"
     style="fill:#000000;stroke:#000000;stroke-width:0;stroke-miterlimit:4;stroke-opacity:1;stroke-dasharray:none" />
</svg>
