<?xml version="1.0" encoding="UTF-8" standalone="no"?>
<!-- Created with Inkscape (http://www.inkscape.org/) -->

<svg
   xmlns:svg="http://www.w3.org/2000/svg"
   xmlns="http://www.w3.org/2000/svg"
   version="1.2"
   width="100%"
   height="100%"
   viewBox="-10 -10 20 20"
   id="svg2834">
  <title
     id="title2838">Lagefixpunkt 3 auf Rohr oder Pfahl, character L</title>
  <defs
     id="defs2844" />
  <path
     d="m 26.440677,2.4254234 a 2.8389831,2.8389831 0 1 1 -5.677966,0 2.8389831,2.8389831 0 1 1 5.677966,0 z"
     transform="matrix(2.2537313,0,0,2.2537313,-53.191877,-5.4662524)"
     id="path3927"
     style="fill:#ffffff;fill-opacity:1;stroke-width:0" />

<g        
id="text3859"
style="font-size:144px;font-style:normal;font-variant:normal;font-weight:normal;font-stretch:normal;fill:#000000;fill-opacity:1;;stroke-width:0;">

  <path
     d="m -6.825,0 c 0,3.7875 3.0375,6.825 6.825,6.825 3.7875,0 6.825,-3.0375 6.825,-6.825 0,-3.7875 -3.0375,-6.825 -6.825,-6.825 -3.7875,0 -6.825,3.0375 -6.825,6.825 z m 1.05,0 c 0,-3.1875 2.5875,-5.775 5.775,-5.775 3.1875,0 5.775,2.5875 5.775,5.775 C 5.775,3.1875 3.1875,5.775 0,5.775 -3.1875,5.775 -5.775,3.1875 -5.775,0 z m 3.15,0 c 0,1.4625 1.1625,2.625 2.625,2.625 1.4625,0 2.625,-1.1625 2.625,-2.625 0,-1.4625 -1.1625,-2.625 -2.625,-2.625 -1.4625,0 -2.625,1.1625 -2.625,2.625 z m 1.05,0 c 0,-0.8625 0.7125,-1.575 1.575,-1.575 0.8625,0 1.575,0.7125 1.575,1.575 C 1.575,0.8625 0.8625,1.575 0,1.575 -0.8625,1.575 -1.575,0.8625 -1.575,0 z"
     id="path2840" />

</g>

</svg>
