<?xml version="1.0" encoding="UTF-8" standalone="no"?>
<!-- Created with Inkscape (http://www.inkscape.org/) -->

<svg
   xmlns:svg="http://www.w3.org/2000/svg"
   xmlns="http://www.w3.org/2000/svg"
   version="1.1"
   width="25"
   height="20"
   id="svg2">
  <defs
     id="defs3734" />
  <path
     d="m 17.5,-5 a 7.5,7.5 0 0 1 5.303301,2.1966989 L 17.5,2.5 z"
     transform="translate(-7.5,7.5)"
     id="path3765"
     style="fill:#1E1EBE;fill-opacity:1;stroke:none" />
  <path
     d="M 22.803301,-2.8033011 A 7.5,7.5 0 0 1 25,2.4999999 L 17.5,2.5 z"
     transform="translate(-7.5,7.5)"
     id="path4300"
     style="fill:#1E1EBE;fill-opacity:1;stroke:none" />
  <path
     d="m 25,17.5 a 7.5,7.5 0 0 1 -2.196699,5.303301 L 17.5,17.5 z"
     transform="translate(-7.5,-7.5)"
     id="path4323"
     style="fill:#1E1EBE;fill-opacity:1;stroke:none" />
  <path
     d="M 22.803301,22.803301 A 7.5,7.5 0 0 1 17.5,25 l 0,-7.5 z"
     transform="translate(-7.5,-7.5)"
     id="path4346"
     style="fill:#1E1EBE;fill-opacity:1;stroke:none" />
  <path
     d="M 2.5000002,25 A 7.5,7.5 0 0 1 -2.8033009,22.803301 L 2.5,17.5 z"
     transform="translate(7.5,-7.5)"
     id="path4369"
     style="fill:#1E1EBE;fill-opacity:1;stroke:none" />
</svg>
