<?xml version="1.0" encoding="UTF-8" standalone="no"?>
<!-- Created with Inkscape (http://www.inkscape.org/) -->

<svg
   xmlns:dc="http://purl.org/dc/elements/1.1/"
   xmlns:cc="http://creativecommons.org/ns#"
   xmlns:rdf="http://www.w3.org/1999/02/22-rdf-syntax-ns#"
   xmlns:svg="http://www.w3.org/2000/svg"
   xmlns="http://www.w3.org/2000/svg"
   xmlns:sodipodi="http://sodipodi.sourceforge.net/DTD/sodipodi-0.dtd"
   xmlns:inkscape="http://www.inkscape.org/namespaces/inkscape"
   version="1.1"
   width="100%"
   height="100%"
   viewBox="-10 -10 20 20"
   id="svg3047"
   inkscape:version="0.48.3.1 r9886"
   sodipodi:docname="abfallentsorgungsanlage.svg">
  <sodipodi:namedview
     pagecolor="#ffffff"
     bordercolor="#666666"
     borderopacity="1"
     objecttolerance="10"
     gridtolerance="10"
     guidetolerance="10"
     inkscape:pageopacity="0"
     inkscape:pageshadow="2"
     inkscape:window-width="1160"
     inkscape:window-height="780"
     id="namedview3082"
     showgrid="false"
     inkscape:zoom="14.45"
     inkscape:cx="10"
     inkscape:cy="14.667956"
     inkscape:window-x="57"
     inkscape:window-y="24"
     inkscape:window-maximized="0"
     inkscape:current-layer="svg3047" />
  <title
     id="title3051">Oeffentliche Gebaeude</title>
  <defs
     id="defs3057" />
  <metadata
     id="metadata3049">
created by tobias.reber@bd.so.ch
<rdf:RDF>
  <cc:Work
     rdf:about="">
    <dc:format>image/svg+xml</dc:format>
    <dc:type
       rdf:resource="http://purl.org/dc/dcmitype/StillImage" />
    <dc:title>Oeffentliche Gebaeude</dc:title>
  </cc:Work>
</rdf:RDF>
</metadata>
  <path
     d="m 0,-0.01662475 20.016624,0 0,20.04890975 -20.016624,0 z"
     transform="translate(-10,-10)"
     id="rect5814"
     style="fill:none;stroke:param(outline) #000000;stroke-width:param(outline-width) 2;stroke-miterlimit:4;stroke-opacity:1;stroke-dasharray:none;display:inline;" />
  <g
     transform="matrix(0.96649315,0,0,1.0346685,0.01388008,0.38767242)"
     style="font-size:3.42865968px;font-style:normal;font-weight:bold;line-height:0%;letter-spacing:0px;word-spacing:0px;fill:#000000;fill-opacity:1;stroke:none;font-family:Sans;-inkscape-font-specification:Sans Bold;display:inline;"
     id="text3075">
    <path
       inkscape:connector-curvature="0"
       d="m -3.5032653,-2.8872227 c -0.5893047,6.2e-6 -1.0463472,0.2176455 -1.3711291,0.6529186 -0.3247878,0.4352842 -0.4871802,1.0480226 -0.4871777,1.83821699 -2.5e-6,0.78685359 0.1623899,1.39791781 0.4871777,1.83319451 0.3247819,0.4352806 0.7818244,0.6529199 1.3711291,0.6529186 0.5926443,1.3e-6 1.051361,-0.217638 1.3761515,-0.6529186 0.3247791,-0.4352767 0.4871715,-1.04634092 0.4871778,-1.83319451 -6.3e-6,-0.79019439 -0.1623987,-1.40293279 -0.4871778,-1.83821699 -0.3247905,-0.4352731 -0.7835072,-0.6529124 -1.3761515,-0.6529186 m 0,-1.4012638 c 1.2053826,7.6e-6 2.1496025,0.3448823 2.83266228,1.0346249 0.68304543,0.6897558 1.02457174,1.6423464 1.02457997,2.85777449 C 0.35396872,0.81600022 0.01244241,1.7669166 -0.67060302,2.456665 -1.3536628,3.1464151 -2.2978827,3.4912897 -3.5032653,3.4912898 c -1.202043,-1e-7 -2.1462629,-0.3448747 -2.8326622,-1.0346248 -0.6830542,-0.6897484 -1.0245805,-1.64066478 -1.02458,-2.85275211 -5e-7,-1.21542809 0.3415258,-2.16801869 1.02458,-2.85777449 0.6863993,-0.6897426 1.6306192,-1.0346173 2.8326622,-1.0346249"
       style="font-size:10.28597927px;fill:param(fill) #000000;display:inline;"
       id="path3829" />
    <path
       inkscape:connector-curvature="0"
       d="m 7.3452283,0.51799894 0,0.51228996 -4.2037914,0 C 3.1849625,1.4521767 3.3373101,1.7685908 3.59848,1.9795321 3.8596444,2.1904762 4.2246088,2.2959476 4.6933742,2.2959465 5.071728,2.2959476 5.4584563,2.2407007 5.8535604,2.1302057 6.2520028,2.0163648 6.660495,1.8456016 7.0790384,1.6179157 l 0,1.3861964 C 6.6537984,3.1648307 6.2285647,3.2853694 5.8033359,3.3657286 5.3780972,3.449436 4.9528635,3.4912897 4.5276334,3.4912898 3.5097474,3.4912897 2.7178751,3.2334708 2.1520141,2.7178324 1.5894989,2.198847 1.308242,1.4722665 1.3082424,0.53808875 c -4e-7,-0.91743063 0.2762341,-1.63898865 0.8287044,-2.16467635 0.555816,-0.5256776 1.3192278,-0.788519 2.2902376,-0.7885247 0.8839469,5.7e-6 1.5904376,0.2661954 2.1194742,0.7985696 0.5323736,0.5323843 0.7985632,1.24389742 0.7985697,2.13454164 M 5.4969664,-0.0796727 C 5.4969617,-0.42119559 5.3965128,-0.69575596 5.1956193,-0.90335464 4.9980655,-1.1142931 4.7385724,-1.2197645 4.4171395,-1.219769 4.068913,-1.2197645 3.7859819,-1.12099 3.5683453,-0.92344444 3.3507032,-0.72923894 3.2150972,-0.44798197 3.1615268,-0.0796727 l 2.3354396,0"
       style="font-size:10.28597927px;fill:param(fill) #000000;display:inline;"
       id="path3831" />
  </g>
</svg>
