<?xml version="1.0" encoding="UTF-8" standalone="no"?>
<!-- Created with Inkscape (http://www.inkscape.org/) -->

<svg
   xmlns:dc="http://purl.org/dc/elements/1.1/"
   xmlns:cc="http://creativecommons.org/ns#"
   xmlns:rdf="http://www.w3.org/1999/02/22-rdf-syntax-ns#"
   xmlns:svg="http://www.w3.org/2000/svg"
   xmlns="http://www.w3.org/2000/svg"
   xmlns:sodipodi="http://sodipodi.sourceforge.net/DTD/sodipodi-0.dtd"
   xmlns:inkscape="http://www.inkscape.org/namespaces/inkscape"
   width="100"
   height="100"
   id="svg2"
   version="1.1"
   inkscape:version="0.48.2 r9819"
   sodipodi:docname="Neo_5.svg">
  <defs
     id="defs4" />
  <sodipodi:namedview
     id="base"
     pagecolor="#ffffff"
     bordercolor="#666666"
     borderopacity="1.0"
     inkscape:pageopacity="0.0"
     inkscape:pageshadow="2"
     inkscape:zoom="5.06"
     inkscape:cx="52.766798"
     inkscape:cy="49.883955"
     inkscape:document-units="px"
     inkscape:current-layer="layer1"
     showgrid="false"
     inkscape:window-width="1066"
     inkscape:window-height="733"
     inkscape:window-x="318"
     inkscape:window-y="100"
     inkscape:window-maximized="0"
     width="100px" />
  <metadata
     id="metadata7">
    <rdf:RDF>
      <cc:Work
         rdf:about="">
        <dc:format>image/svg+xml</dc:format>
        <dc:type
           rdf:resource="http://purl.org/dc/dcmitype/StillImage" />
        <dc:title></dc:title>
      </cc:Work>
    </rdf:RDF>
  </metadata>
  <g
     inkscape:label="Layer 1"
     inkscape:groupmode="layer"
     id="layer1"
     transform="translate(0,-952.3622)">
    <path
       style="font-size:medium;font-style:normal;font-variant:normal;font-weight:normal;font-stretch:normal;text-indent:0;text-align:start;text-decoration:none;line-height:normal;letter-spacing:normal;word-spacing:normal;text-transform:none;direction:ltr;block-progression:tb;writing-mode:lr-tb;text-anchor:start;baseline-shift:baseline;color:#000000;fill:#000000;fill-opacity:1;stroke:none;stroke-width:3.68046999;marker:none;visibility:visible;display:inline;overflow:visible;enable-background:accumulate;font-family:Sans;-inkscape-font-specification:Sans"
       d="m 49.59375,954.125 c -26.178874,0 -47.40625,21.49571 -47.40625,47.9688 0,26.473 21.227377,48 47.40625,48 26.178874,0 47.4375,-21.527 47.4375,-48 0,-26.47309 -21.258625,-47.9688 -47.4375,-47.9688 z m 0,3.65625 c 24.164573,0 43.75,19.80362 43.75,44.31255 0,24.5089 -19.585426,44.3124 -43.75,44.3124 -24.164573,0 -43.71875,-19.8035 -43.71875,-44.3124 0,-24.50893 19.554178,-44.31255 43.71875,-44.31255 z"
       id="path2985"
       inkscape:connector-curvature="0" />
    <g
       style="font-size:72px;font-style:normal;font-variant:normal;font-weight:normal;font-stretch:normal;line-height:125%;letter-spacing:0px;word-spacing:0px;fill:#000000;fill-opacity:1;stroke:none;font-family:Arial Unicode MS;-inkscape-font-specification:Arial Unicode MS"
       id="text2999">
      <path
         d="m 38.670887,999.30176 c 2.906238,-4.54685 7.042952,-6.82028 12.410156,-6.82031 4.218724,3e-5 7.804658,1.55862 10.757813,4.67578 2.953089,3.11717 4.42965,7.10157 4.429687,11.95317 -3.7e-5,4.8984 -1.470738,9.0644 -4.412109,12.498 -2.941436,3.4336 -6.849635,5.1504 -11.72461,5.1504 -4.945328,0 -9.158214,-1.8281 -12.638671,-5.4844 -3.480474,-3.6562 -5.220707,-10.1601 -5.220704,-19.5117 -3e-6,-9.18747 1.576168,-16.09567 4.728516,-20.72461 3.152333,-4.62886 7.716782,-6.94331 13.693359,-6.94336 3.867163,5e-5 7.136691,1.07817 9.808594,3.23437 2.671841,2.1563 4.300746,5.35551 4.886719,9.59766 l -6.328125,0.5625 c -1.148466,-5.4609 -4.054713,-8.19136 -8.71875,-8.19141 -3.234393,5e-5 -6.011734,1.60552 -8.332031,4.81641 -2.320323,3.21097 -3.480478,8.27347 -3.480469,15.1875 z m 11.320312,22.25394 c 2.906227,0 5.261693,-1.1719 7.066407,-3.5157 1.804658,-2.3437 2.707,-5.1796 2.707031,-8.5078 -3.1e-5,-3.3281 -0.902373,-6.082 -2.707031,-8.2617 -1.804714,-2.17965 -4.230493,-3.2695 -7.277344,-3.26952 -2.78908,2e-5 -5.191422,1.02541 -7.207031,3.07612 -2.015637,2.0509 -3.023448,4.752 -3.023438,8.1036 -1e-5,3.4219 0.990223,6.3398 2.970703,8.7539 1.980454,2.414 4.470686,3.6211 7.470703,3.6211 z"
         style="font-family:Arial Unicode MS;-inkscape-font-specification:Arial Unicode MS"
         id="path3022" />
    </g>
  </g>
</svg>
