<?xml version="1.0" encoding="UTF-8" standalone="no"?>
<!-- Created with Inkscape (http://www.inkscape.org/) -->

<svg
   xmlns:dc="http://purl.org/dc/elements/1.1/"
   xmlns:cc="http://creativecommons.org/ns#"
   xmlns:rdf="http://www.w3.org/1999/02/22-rdf-syntax-ns#"
   xmlns:svg="http://www.w3.org/2000/svg"
   xmlns="http://www.w3.org/2000/svg"
   xmlns:sodipodi="http://sodipodi.sourceforge.net/DTD/sodipodi-0.dtd"
   xmlns:inkscape="http://www.inkscape.org/namespaces/inkscape"
   width="100"
   height="100"
   id="svg2"
   version="1.1"
   inkscape:version="0.48.2 r9819"
   sodipodi:docname="Neo_8.svg">
  <defs
     id="defs4" />
  <sodipodi:namedview
     id="base"
     pagecolor="#ffffff"
     bordercolor="#666666"
     borderopacity="1.0"
     inkscape:pageopacity="0.0"
     inkscape:pageshadow="2"
     inkscape:zoom="5.06"
     inkscape:cx="52.766798"
     inkscape:cy="49.883955"
     inkscape:document-units="px"
     inkscape:current-layer="layer1"
     showgrid="false"
     inkscape:window-width="1066"
     inkscape:window-height="733"
     inkscape:window-x="318"
     inkscape:window-y="100"
     inkscape:window-maximized="0"
     width="100px" />
  <metadata
     id="metadata7">
    <rdf:RDF>
      <cc:Work
         rdf:about="">
        <dc:format>image/svg+xml</dc:format>
        <dc:type
           rdf:resource="http://purl.org/dc/dcmitype/StillImage" />
        <dc:title></dc:title>
      </cc:Work>
    </rdf:RDF>
  </metadata>
  <g
     inkscape:label="Layer 1"
     inkscape:groupmode="layer"
     id="layer1"
     transform="translate(0,-952.3622)">
    <path
       style="font-size:medium;font-style:normal;font-variant:normal;font-weight:normal;font-stretch:normal;text-indent:0;text-align:start;text-decoration:none;line-height:normal;letter-spacing:normal;word-spacing:normal;text-transform:none;direction:ltr;block-progression:tb;writing-mode:lr-tb;text-anchor:start;baseline-shift:baseline;color:#000000;fill:#000000;fill-opacity:1;stroke:none;stroke-width:3.68046999;marker:none;visibility:visible;display:inline;overflow:visible;enable-background:accumulate;font-family:Sans;-inkscape-font-specification:Sans"
       d="m 49.59375,954.125 c -26.178874,0 -47.40625,21.49571 -47.40625,47.9688 0,26.473 21.227377,48 47.40625,48 26.178874,0 47.4375,-21.527 47.4375,-48 0,-26.47309 -21.258625,-47.9688 -47.4375,-47.9688 z m 0,3.65625 c 24.164573,0 43.75,19.80362 43.75,44.31255 0,24.5089 -19.585426,44.3124 -43.75,44.3124 -24.164573,0 -43.71875,-19.8035 -43.71875,-44.3124 0,-24.50893 19.554178,-44.31255 43.71875,-44.31255 z"
       id="path2985"
       inkscape:connector-curvature="0" />
    <g
       style="font-size:72px;font-style:normal;font-variant:normal;font-weight:normal;font-stretch:normal;line-height:125%;letter-spacing:0px;word-spacing:0px;fill:#000000;fill-opacity:1;stroke:none;font-family:Arial Unicode MS;-inkscape-font-specification:Arial Unicode MS"
       id="text2999">
      <path
         d="m 60.159895,1003.2031 c -1.242217,2.0157 -2.947293,3.6446 -5.115234,4.8867 -2.167992,1.2422 -4.517599,1.8633 -7.048829,1.8633 -4.242201,0 -7.845713,-1.5527 -10.810546,-4.6582 -2.964849,-3.1054 -4.447269,-7.16596 -4.447266,-12.18162 -3e-6,-5.10933 1.511714,-9.29292 4.535156,-12.55078 3.023427,-3.25776 6.914048,-4.88667 11.671875,-4.88672 4.781226,5e-5 8.917941,1.86333 12.410156,5.58984 3.492153,3.72661 5.238245,10.17192 5.238282,19.33598 -3.7e-5,9.3047 -1.593786,16.2539 -4.78125,20.8476 -3.187529,4.5938 -7.746118,6.8906 -13.675782,6.8906 -3.867202,0 -7.101573,-1.0605 -9.703125,-3.1816 -2.601568,-2.1211 -4.183598,-5.3379 -4.746093,-9.6504 l 6.046875,-0.4922 c 0.960926,5.4141 3.80858,8.1211 8.542968,8.1211 3.890603,0 6.867162,-1.7754 8.929688,-5.3262 2.06247,-3.5507 3.093719,-8.4199 3.09375,-14.6074 z m -10.652344,1.2305 c 3.093727,0 5.548803,-1.0957 7.365235,-3.2871 1.816377,-2.19139 2.724579,-4.96287 2.724609,-8.31447 -3e-5,-3.3984 -0.93167,-6.24019 -2.794922,-8.52539 -1.863306,-2.28511 -4.24807,-3.42769 -7.154297,-3.42773 -2.929704,4e-5 -5.402358,1.21293 -7.417969,3.63867 -2.015635,2.42582 -3.023447,5.36136 -3.023437,8.80664 -10e-6,3.25784 0.990224,5.92386 2.970703,7.99808 1.980454,2.0742 4.423811,3.1113 7.330078,3.1113 z"
         style="font-family:Arial Unicode MS;-inkscape-font-specification:Arial Unicode MS"
         id="path3031" />
    </g>
  </g>
</svg>
