<svg id="Ebene_1" data-name="Ebene 1" xmlns="http://www.w3.org/2000/svg" viewBox="0 0 13.01 13.01"><title>190424 ARP RP Pikto</title><rect fill="#fff" width="13.01" height="13.01"/><path fill="red" d="M13,13H0V0H13ZM.25,12.76H12.76V.25H.25Z"/><path fill="red" d="M9.3,7.84a12.12,12.12,0,0,0-1.08-.61.9.9,0,0,0-.11-.89A.93.93,0,0,0,8,6.2C8.63,4.82,10,1.9,10.08,1.54a2.85,2.85,0,0,0-.34-.41A38.22,38.22,0,0,0,7.34,4.8,9.87,9.87,0,0,0,7.35,6a.91.91,0,0,0-.46.18.89.89,0,0,0-.33.58c-1.54.12-4.72.38-5.06.51a2.47,2.47,0,0,0-.19.49A37.69,37.69,0,0,0,5.69,8a8.13,8.13,0,0,0,1-.61h0a.79.79,0,0,0,.42.3l-.35,5.07H8L7.67,7.71l.09,0c.87,1.26,2.71,3.93,3,4.16a2.82,2.82,0,0,0,.52-.09,37.72,37.72,0,0,0-2-3.91"/></svg>
