<?xml version="1.0" encoding="UTF-8" standalone="no"?>
<!-- Created with Inkscape (http://www.inkscape.org/) -->

<svg
   xmlns:svg="http://www.w3.org/2000/svg"
   xmlns="http://www.w3.org/2000/svg"
   version="1.2"
   width="100%"
   height="100%"
   viewBox="-10 -10 20 20"
   id="svg5973">
  <title
     id="title5977">Grenzpunkt Kreuz, character H</title>
  <defs
     id="defs5983" />
  <path
     d="m 26.440677,2.4254234 a 2.8389831,2.8389831 0 1 1 -5.677966,0 2.8389831,2.8389831 0 1 1 5.677966,0 z"
     transform="matrix(0.73134322,0,0,0.73134322,-17.260939,-1.7738171)"
     id="path3927"
     style="fill:#ffffff;fill-opacity:1;stroke-width:0" />
<g
id="text3859"
style="fill:param(fill) #FF0000;stroke:#000000;stroke-width:0;stroke-miterlimit:4;stroke-opacity:1;stroke-dasharray:none" 
>
  <path
     d="m 2.64375,0 c 0,-0.525 -0.15,-1.0125 -0.45,-1.425 l 2.625,-2.625 c -0.225,-0.2625 -0.45,-0.525 -0.7125,-0.75 l -2.625,2.625 c -0.4125,-0.2625 -0.9375,-0.45 -1.4625,-0.45 -0.525,0 -1.05,0.15 -1.4625,0.45 l -2.625,-2.625 c -0.2625,0.225 -0.525,0.4875 -0.75,0.75 l 2.625,2.625 c -0.2625,0.4125 -0.4125,0.9 -0.4125,1.425 0,0.525 0.15,1.05 0.45,1.4625 l -2.625,2.625 c 0.225,0.2625 0.45,0.4875 0.7125,0.7125 l 2.625,-2.625 c 0.4125,0.3 0.9375,0.45 1.4625,0.45 0.525,0 1.0125,-0.1875 1.425,-0.45 l 2.625,2.625 c 0.2625,-0.225 0.525,-0.4875 0.75,-0.75 l -2.625,-2.625 c 0.2625,-0.4125 0.45,-0.9 0.45,-1.425 z m -4.2,0 c 0,-0.8625 0.7125,-1.575 1.575,-1.575 0.9,0 1.575,0.7125 1.575,1.575 0,0.8625 -0.675,1.575 -1.575,1.575 -0.8625,0 -1.575,-0.7125 -1.575,-1.575 z"
     id="path5979"
     />
</g>
</svg>
