<?xml version="1.0" encoding="UTF-8" standalone="no"?>
<!-- Created with Inkscape (http://www.inkscape.org/) -->

<svg
   xmlns:dc="http://purl.org/dc/elements/1.1/"
   xmlns:cc="http://creativecommons.org/ns#"
   xmlns:rdf="http://www.w3.org/1999/02/22-rdf-syntax-ns#"
   xmlns:svg="http://www.w3.org/2000/svg"
   xmlns="http://www.w3.org/2000/svg"
   xmlns:sodipodi="http://sodipodi.sourceforge.net/DTD/sodipodi-0.dtd"
   xmlns:inkscape="http://www.inkscape.org/namespaces/inkscape"
   width="100"
   height="100"
   id="svg2"
   version="1.1"
   inkscape:version="0.48.2 r9819"
   sodipodi:docname="Neo_30.svg">
  <defs
     id="defs4" />
  <sodipodi:namedview
     id="base"
     pagecolor="#ffffff"
     bordercolor="#666666"
     borderopacity="1.0"
     inkscape:pageopacity="0.0"
     inkscape:pageshadow="2"
     inkscape:zoom="5.06"
     inkscape:cx="52.766798"
     inkscape:cy="55.180398"
     inkscape:document-units="px"
     inkscape:current-layer="layer1"
     showgrid="false"
     inkscape:window-width="1066"
     inkscape:window-height="733"
     inkscape:window-x="318"
     inkscape:window-y="100"
     inkscape:window-maximized="0"
     width="100px" />
  <metadata
     id="metadata7">
    <rdf:RDF>
      <cc:Work
         rdf:about="">
        <dc:format>image/svg+xml</dc:format>
        <dc:type
           rdf:resource="http://purl.org/dc/dcmitype/StillImage" />
        <dc:title></dc:title>
      </cc:Work>
    </rdf:RDF>
  </metadata>
  <g
     inkscape:label="Layer 1"
     inkscape:groupmode="layer"
     id="layer1"
     transform="translate(0,-952.3622)">
    <path
       style="font-size:medium;font-style:normal;font-variant:normal;font-weight:normal;font-stretch:normal;text-indent:0;text-align:start;text-decoration:none;line-height:normal;letter-spacing:normal;word-spacing:normal;text-transform:none;direction:ltr;block-progression:tb;writing-mode:lr-tb;text-anchor:start;baseline-shift:baseline;color:#000000;fill:#000000;fill-opacity:1;stroke:none;stroke-width:3.68046999;marker:none;visibility:visible;display:inline;overflow:visible;enable-background:accumulate;font-family:Sans;-inkscape-font-specification:Sans"
       d="m 49.59375,954.125 c -26.178874,0 -47.40625,21.49571 -47.40625,47.9688 0,26.473 21.227377,48 47.40625,48 26.178874,0 47.4375,-21.527 47.4375,-48 0,-26.47309 -21.258625,-47.9688 -47.4375,-47.9688 z m 0,3.65625 c 24.164573,0 43.75,19.80362 43.75,44.31255 0,24.5089 -19.585426,44.3124 -43.75,44.3124 -24.164573,0 -43.71875,-19.8035 -43.71875,-44.3124 0,-24.50893 19.554178,-44.31255 43.71875,-44.31255 z"
       id="path2985"
       inkscape:connector-curvature="0" />
    <g
       style="font-size:72px;font-style:normal;font-variant:normal;font-weight:normal;font-stretch:normal;line-height:125%;letter-spacing:0px;word-spacing:0px;fill:#000000;fill-opacity:1;stroke:none;font-family:Arial;-inkscape-font-specification:Arial"
       id="text3013">
      <path
         d="m 15.893003,1012.8674 6.328125,-0.8437 c 0.726553,3.5859 1.96288,6.1699 3.708985,7.7519 1.746079,1.5821 3.87303,2.3731 6.380859,2.3731 2.97654,0 5.49021,-1.0313 7.541016,-3.0938 2.050752,-2.0625 3.076142,-4.6171 3.076172,-7.664 -3e-5,-2.9063 -0.949248,-5.3027 -2.847657,-7.1895 -1.898462,-1.8867 -4.312522,-2.83 -7.242187,-2.8301 -1.195331,10e-5 -2.683611,0.2344 -4.464844,0.7032 l 0.703125,-5.55472 c 0.421859,0.0469 0.761702,0.0703 1.019531,0.0703 2.695293,3e-5 5.121072,-0.7031 7.277344,-2.10938 2.156224,-1.40621 3.234347,-3.57418 3.234375,-6.5039 -2.8e-5,-2.32028 -0.785183,-4.24215 -2.355469,-5.76563 -1.570336,-1.52339 -3.597678,-2.28511 -6.082031,-2.28515 -2.460954,4e-5 -4.511733,0.77348 -6.152344,2.32031 -1.640636,1.54692 -2.695322,3.86723 -3.164062,6.96094 l -6.328125,-1.125 c 0.773433,-4.24215 2.531244,-7.52926 5.273437,-9.86133 2.742176,-2.33198 6.152329,-3.498 10.230469,-3.49805 2.812478,5e-5 5.402319,0.60357 7.769531,1.81055 2.367159,1.20708 4.177704,2.85356 5.431641,4.93945 1.253873,2.08598 1.880825,4.30082 1.880859,6.64453 -3.4e-5,2.2266 -0.597689,4.25394 -1.792968,6.08203 -1.195344,1.82816 -2.964874,3.28128 -5.308594,4.35938 3.046845,0.70315 5.41403,2.16216 7.101562,4.37696 1.687465,2.2149 2.531214,4.9863 2.53125,8.3144 -3.6e-5,4.5001 -1.64066,8.3145 -4.921875,11.4434 -3.281278,3.1289 -7.429711,4.6934 -12.445312,4.6934 -4.523452,0 -8.279308,-1.3477 -11.267578,-4.043 -2.988287,-2.6953 -4.693363,-6.1875 -5.115235,-10.4766 z"
         style=""
         id="path3022" />
    </g>
    <g
       style="font-size:72px;font-style:normal;font-variant:normal;font-weight:normal;font-stretch:normal;line-height:125%;letter-spacing:0px;word-spacing:0px;fill:#000000;fill-opacity:1;stroke:none;font-family:Arial;-inkscape-font-specification:Arial"
       id="text3024">
      <path
         d="m 72.476395,1026.8918 -6.328125,0 0,-40.32417 c -1.523457,1.45316 -3.521502,2.90628 -5.994141,4.35937 -2.472668,1.45316 -4.693369,2.543 -6.662109,3.26953 l 0,-6.11718 c 3.539051,-1.66403 6.632798,-3.67965 9.28125,-6.04688 2.648417,-2.36714 4.523416,-4.66401 5.625,-6.89062 l 4.078125,0 z"
         style=""
         id="path3029" />
    </g>
  </g>
</svg>
