<?xml version="1.0" encoding="UTF-8" standalone="no"?>
<!-- Created with Inkscape (http://www.inkscape.org/) -->

<svg
   xmlns:svg="http://www.w3.org/2000/svg"
   xmlns="http://www.w3.org/2000/svg"
   version="1.1"
   width="59.327999"
   height="59.327999"
   id="svg2844">
  <defs
     id="defs2846" />
  <path
     d="m -35.194574,-16.466034 a 13.197966,13.197966 0 1 1 -26.395932,0 13.197966,13.197966 0 1 1 26.395932,0 z"
     transform="matrix(2.103922,0,0,2.103922,131.35243,64.181554)"
     id="path2999"
     style="fill:#ffffff;fill-opacity:1;stroke:none" />
  <g
     transform="translate(-296.05029,-476.9839)"
     id="layer1">
    <g
       transform="translate(-138.23542,-381.62058)"
       id="text2849"
       style="font-size:144px;font-style:normal;font-variant:normal;font-weight:normal;font-stretch:normal;fill-opacity:1;stroke:none; fill:param(fill) #000000">
      <path
         d="m 493.61371,888.26848 c -6e-5,4.12802 -0.76806,8.01602 -2.304,11.664 -1.53606,3.55201 -3.64806,6.67201 -6.336,9.36 -2.68805,2.688 -5.85605,4.8 -9.504,6.336 -3.55204,1.536 -7.39204,2.304 -11.52,2.304 -4.12803,0 -8.01603,-0.768 -11.664,-2.304 -3.55202,-1.536 -6.67202,-3.648 -9.36,-6.336 -2.68801,-2.68799 -4.80001,-5.80799 -6.336,-9.36 -1.53601,-3.64798 -2.304,-7.53598 -2.304,-11.664 0,-4.12797 0.76799,-7.96797 2.304,-11.52 1.53599,-3.64796 3.64799,-6.81595 6.336,-9.504 2.68798,-2.68795 5.80798,-4.79995 9.36,-6.336 3.64797,-1.53594 7.53597,-2.30394 11.664,-2.304 4.12796,6e-5 7.96796,0.76806 11.52,2.304 3.64795,1.53605 6.81595,3.64805 9.504,6.336 2.68794,2.68805 4.79994,5.85604 6.336,9.504 1.53594,3.55203 2.30394,7.39203 2.304,11.52 m -29.664,23.328 c 1.82396,0 3.79196,-0.24 5.904,-0.72 l 0,-45.072 c -1.92004,-0.57595 -3.88804,-0.86395 -5.904,-0.864 -2.11203,5e-5 -4.08003,0.28805 -5.904,0.864 l 0,45.072 c 2.11197,0.48 4.07997,0.72 5.904,0.72 m 23.328,-23.328 c -6e-5,-4.12797 -1.05606,-7.91997 -3.168,-11.376 -2.01605,-3.45596 -4.65605,-6.23996 -7.92,-8.352 l 0,39.456 c 3.26395,-2.11199 5.90395,-4.89599 7.92,-8.352 2.11194,-3.45598 3.16794,-7.24798 3.168,-11.376 m -46.656,0 c -1e-5,4.12802 1.00799,7.92002 3.024,11.376 2.01598,3.45601 4.70398,6.24001 8.064,8.352 l 0,-39.456 c -3.36002,2.11204 -6.04802,4.89604 -8.064,8.352 -2.01601,3.45603 -3.02401,7.24803 -3.024,11.376"
         id="path2854" />
    </g>
  </g>
</svg>
