<?xml version="1.0" encoding="UTF-8" standalone="no"?>
<!-- Created with Inkscape (http://www.inkscape.org/) -->

<svg
   xmlns:svg="http://www.w3.org/2000/svg"
   xmlns="http://www.w3.org/2000/svg"
   version="1.2"
   width="100%"
   height="100%"
   viewBox="-10 -10 20 20"
   id="svg2834">
  <title
     id="title2838">Lagefixpunkt 3 auf Kreuz, character M</title>
  <defs
     id="defs2844" />
  <path
     d="m 26.440677,2.4254234 a 2.8389831,2.8389831 0 1 1 -5.677966,0 2.8389831,2.8389831 0 1 1 5.677966,0 z"
     transform="matrix(2.2537313,0,0,2.2537313,-53.191876,-5.4662525)"
     id="path3927"
     style="fill:#ffffff;fill-opacity:1;stroke-width:0" />

<g        
id="text3859"
style="font-size:144px;font-style:normal;font-variant:normal;font-weight:normal;font-stretch:normal;fill:param(fill) #FF0000;fill-opacity:1;stroke:none;">

  <path
     d="m -6.825,0 c 0,3.7875 3.0375,6.825 6.825,6.825 3.7875,0 6.825,-3.0375 6.825,-6.825 0,-3.7875 -3.0375,-6.825 -6.825,-6.825 -3.7875,0 -6.825,3.0375 -6.825,6.825 z m 4.2375,0 c 0,0.525 0.15,1.05 0.45,1.4625 l -2.2875,2.25 C -5.2875,2.7 -5.775,1.425 -5.775,0 c 0,-1.3875 0.4875,-2.7 1.3125,-3.675 l 2.2875,2.25 c -0.2625,0.4125 -0.4125,0.9 -0.4125,1.425 z m 2.625,2.625 c 0.525,0 1.0125,-0.1875 1.425,-0.45 l 2.25,2.2125 C 2.7,5.25 1.425,5.775 0,5.775 c -1.425,0 -2.7,-0.4875 -3.7125,-1.35 l 2.2875,-2.25 c 0.4125,0.2625 0.9,0.45 1.4625,0.45 z m 0,-5.25 c -0.5625,0 -1.05,0.1875 -1.4625,0.45 l -2.2875,-2.25 C -2.7,-5.2875 -1.425,-5.775 0,-5.775 c 1.3875,0 2.7,0.525 3.7125,1.35 l -2.25,2.25 c -0.4125,-0.2625 -0.9,-0.45 -1.425,-0.45 z M 2.6625,0 c 0,-0.525 -0.1875,-1.0125 -0.45,-1.425 l 2.25,-2.25 C 5.2875,-2.6625 5.775,-1.3875 5.775,0 5.775,1.3875 5.2875,2.6625 4.4625,3.675 L 2.2125,1.4625 C 2.475,1.05 2.6625,0.525 2.6625,0 z m -4.2,0 c 0,-0.8625 0.7125,-1.575 1.575,-1.575 0.8625,0 1.575,0.7125 1.575,1.575 0,0.8625 -0.7125,1.575 -1.575,1.575 -0.8625,0 -1.575,-0.7125 -1.575,-1.575 z"
     id="path2840" />
    
</g>

</svg>
