<svg id="Ebene_1" data-name="Ebene 1" xmlns="http://www.w3.org/2000/svg" viewBox="0 0 13.01 13.01"><title>190424 ARP RP Pikto</title><rect fill="#fff" width="13.01" height="13.01"/><path fill="red" d="M13,13H0V0H13ZM.25,12.76H12.76V.25H.25Z"/><path fill="red" d="M7.07,8.11a2.42,2.42,0,0,1,4-1.8l.31-.63a3.13,3.13,0,0,0-1-.52L10.12,3h.18l-.06-.4H6v.34h.29L5.68,5.45l-3.19.18V5.3H2.15v.35l-.86,0,.33,1.93a1.51,1.51,0,0,1,2,.89H7.11A2.85,2.85,0,0,1,7.07,8.11ZM6.74,3.22H9.56L9.78,5A2.66,2.66,0,0,0,9.5,5a3.14,3.14,0,0,0-1.85.62H6.28Z"/><path fill="red" d="M2.15,7.78A1.28,1.28,0,1,0,3.43,9.06,1.28,1.28,0,0,0,2.15,7.78Z"/><path fill="red" d="M2.15,7.78A1.28,1.28,0,1,1,.87,9.06,1.28,1.28,0,0,1,2.15,7.78"/><path fill="red" d="M9.5,5.93a2.18,2.18,0,1,0,2.18,2.18A2.19,2.19,0,0,0,9.5,5.93Z"/><path fill="red" d="M9.5,5.93A2.18,2.18,0,1,1,7.32,8.11,2.19,2.19,0,0,1,9.5,5.93"/></svg>
