<svg id="Ebene_1" data-name="Ebene 1" xmlns="http://www.w3.org/2000/svg" viewBox="0 0 13.01 13.01"><title>190424 ARP RP Pikto</title><rect fill="#fff" width="13.01" height="13.01"/><path fill="#050203" d="M13,13H0V0H13ZM.25,12.76H12.76V.25H.25Z"/><path class="cls-2" d="M9.65,5.42H4.33V3.34L3,2.07,1.69,3.34v8h9.62V7ZM3,4.92a.54.54,0,0,1-.54-.54.54.54,0,1,1,1.08,0A.54.54,0,0,1,3,4.92Zm2.75,5.42H4.51V8.2c0-.56.28-1,.63-1s.62.45.62,1Zm2,0H6.53V8.2c0-.56.28-1,.63-1s.63.45.63,1Zm2,0H8.55V8.2c0-.56.28-1,.63-1s.63.45.63,1Z"/></svg>
