<?xml version="1.0" encoding="UTF-8" standalone="no"?>
<!-- Created with Inkscape (http://www.inkscape.org/) -->

<svg
   xmlns:dc="http://purl.org/dc/elements/1.1/"
   xmlns:cc="http://creativecommons.org/ns#"
   xmlns:rdf="http://www.w3.org/1999/02/22-rdf-syntax-ns#"
   xmlns:svg="http://www.w3.org/2000/svg"
   xmlns="http://www.w3.org/2000/svg"
   version="1.1"
   width="100%"
   height="100%"
   viewBox="-10 -10 20 20"
   id="svg3047">
  <title
     id="title3051">Bahnhaltestelle</title>
  <defs
     id="defs3057" />
  <metadata
     id="metadata3049">
created by tobias.reber@bd.so.ch
<rdf:RDF>
  <cc:Work
     rdf:about="">
    <dc:format>image/svg+xml</dc:format>
    <dc:type
       rdf:resource="http://purl.org/dc/dcmitype/StillImage" />
    <dc:title>Bahnhaltestelle</dc:title>
  </cc:Work>
</rdf:RDF>
</metadata>
  <path
     d="m 0,-0.01662475 20.016624,0 0,20.04890975 -20.016624,0 z"
     transform="translate(-10,-10)"
     id="rect5814"
     style="fill:none;stroke:param(outline) #000000;stroke-width:param(outline-width) 2;stroke-miterlimit:4;stroke-opacity:1;stroke-dasharray:none" />
  <g
     transform="matrix(1.0974047,0,0,1.0973878,0.57374428,1.0860852)"
     id="text3108"
     style="font-size:20px;font-style:normal;font-weight:bold;line-height:125%;letter-spacing:0px;word-spacing:0px;fill:param(fill) #000000;fill-opacity:1;stroke:none;font-family:Sans;-inkscape-font-specification:Sans Bold">
    <path
       d="m -0.05046892,-2.6352081 c 0.59243965,8.9e-6 1.04165795,-0.1301993 1.34765622,-0.390625 C 1.6031676,-3.2862402 1.7561622,-3.6703544 1.7561717,-4.1781769 1.7561622,-4.679468 1.6031676,-5.060327 1.2971873,-5.320755 0.99118903,-5.5876702 0.54197073,-5.7211336 -0.05046892,-5.7211456 l -2.08007808,0 0,3.0859375 2.08007808,0 M 0.0764842,3.741745 C 0.83168398,3.7417476 1.3980897,3.5822425 1.775703,3.2632294 2.1598077,2.9442223 2.3518648,2.462452 2.3518748,1.8179169 2.3518648,1.1864116 2.1630629,0.71440683 1.7854686,0.40190125 1.4078553,0.08289705 0.83819439,-0.076608 0.0764842,-0.07661438 l -2.2070312,0 0,3.81835938 2.2070312,0 M 3.572578,-1.5023956 c 0.8072795,0.2343825 1.4322789,0.66732481 1.875,1.2988281 C 5.8902727,0.42794878 6.1116266,1.2026876 6.1116405,2.1206512 6.1116266,3.526904 5.6363667,4.5750801 4.6858592,5.2651825 3.7353269,5.955287 2.2900159,6.3003387 0.3499217,6.3003387 l -6.2402344,0 0,-14.5800781 5.64453128,0 c 2.02473012,1.46e-5 3.48957232,0.3060039 4.39453122,0.9179688 0.9114456,0.6119922 1.3671743,1.5918089 1.3671875,2.9394531 -1.32e-5,0.7096454 -0.1660287,1.3151136 -0.4980468,1.8164062 -0.3320437,0.4948001 -0.8138141,0.8626383 -1.4453125,1.1035157"
       id="path3113" />
  </g>
</svg>
