<?xml version="1.0" encoding="utf-8"?>
<!-- Generator: Adobe Illustrator 15.0.2, SVG Export Plug-In . SVG Version: 6.00 Build 0)  -->
<!DOCTYPE svg PUBLIC "-//W3C//DTD SVG 1.1//EN" "http://www.w3.org/Graphics/SVG/1.1/DTD/svg11.dtd">
<svg version="1.1" id="Ebene_1" xmlns="http://www.w3.org/2000/svg" xmlns:xlink="http://www.w3.org/1999/xlink" x="0px" y="0px"
	 width="16px" height="16px" viewBox="0 0 16 16" enable-background="new 0 0 16 16" xml:space="preserve">
<g id="Piktos">
	<g>
		<g>
			<rect y="-0.002" fill="none" width="16.002" height="16.002"/>
		</g>
		<path d="M14.674,7.988c0,0.066-0.125,0.098-0.125,0.098l-0.203,0.059l-0.145,0.051c-0.115,0.094,0,0.344,0,0.344
			s0.473,0.977,0.539,1.18c0.066,0.201-0.053,0.176-0.053,0.176h-0.551c-0.158,0.031-0.232-0.156-0.232-0.156
			s-0.389-0.564-0.705-0.975s-0.867-0.25-0.867-0.25l-1.738,0.176c0,0-1.59,0.203-2.057,0.209C8.07,8.902,8.229,9.199,8.229,9.199
			l0.583,2.461c0,0,0.463,1.854,0.53,2.242c0.068,0.389-0.182,0.359-0.182,0.359s-0.217,0.01-0.509-0.002
			c-0.291-0.01-0.349-0.266-0.349-0.266l-1.178-2.402c0,0-1.069-2.223-1.152-2.439s-0.4-0.203-0.4-0.203L4.966,8.871L3.653,8.705
			c-1.163-0.094-1.739-0.32-1.739-0.32C1.338,8.135,1.405,8,1.405,8L1.404,8.002c0,0-0.069-0.135,0.509-0.385
			c0,0,0.576-0.229,1.739-0.322l1.313-0.166l0.607-0.076c0,0,0.317,0.016,0.4-0.203S7.124,4.41,7.124,4.41l1.179-2.402
			c0,0,0.058-0.256,0.349-0.266C8.943,1.732,9.16,1.74,9.16,1.74S9.41,1.711,9.342,2.1c-0.066,0.391-0.53,2.242-0.53,2.242
			L8.229,6.803c0,0-0.159,0.297,0.308,0.303c0.467,0.004,2.057,0.207,2.057,0.207l1.738,0.176c0,0,0.551,0.162,0.867-0.248
			s0.707-0.977,0.707-0.977s0.07-0.188,0.232-0.156h0.549c0,0,0.119-0.025,0.053,0.178c-0.066,0.201-0.539,1.178-0.539,1.178
			s-0.115,0.25,0,0.344l0.145,0.051l0.203,0.059c0,0,0.125,0.031,0.125,0.1V7.988z"/>
	</g>
</g>
</svg>
