<?xml version="1.0" encoding="UTF-8" standalone="no"?>
<!-- Created with Inkscape (http://www.inkscape.org/) -->

<svg
   xmlns:svg="http://www.w3.org/2000/svg"
   xmlns="http://www.w3.org/2000/svg"
   version="1.2"
   width="100%"
   height="100%"
   viewBox="-10 -10 20 20"
   id="svg2">
  <title
     id="title6">Lagefixpunkt 3 auf Markstein oder Kunststoffzeichen, character J</title>
  <defs
     id="defs12" />
  <path
     d="m 26.440677,2.4254234 a 2.8389831,2.8389831 0 1 1 -5.677966,0 2.8389831,2.8389831 0 1 1 5.677966,0 z"
     transform="matrix(2.2238805,0,0,2.2238805,-52.487348,-5.3938518)"
     id="path3927"
     style="fill:#ffffff;fill-opacity:1;stroke-width:0" />
  <path
     d="m -4.2,0 c 0,2.325 1.875,4.2 4.2,4.2 2.325,0 4.2,-1.875 4.2,-4.2 0,-2.325 -1.875,-4.2 -4.2,-4.2 -2.325,0 -4.2,1.875 -4.2,4.2 z m 1.05,0 c 0,-1.725 1.425,-3.15 3.15,-3.15 1.725,0 3.15,1.425 3.15,3.15 C 3.15,1.725 1.725,3.15 0,3.15 -1.725,3.15 -3.15,1.725 -3.15,0 z m -3.675,0 c 0,3.7875 3.0375,6.825 6.825,6.825 3.7875,0 6.825,-3.0375 6.825,-6.825 0,-3.7875 -3.0375,-6.825 -6.825,-6.825 -3.7875,0 -6.825,3.0375 -6.825,6.825 z m 1.05,0 c 0,-3.1875 2.5875,-5.775 5.775,-5.775 3.1875,0 5.775,2.5875 5.775,5.775 C 5.775,3.1875 3.1875,5.775 0,5.775 -3.1875,5.775 -5.775,3.1875 -5.775,0 z"
     id="path8"
     style="fill:#000000;stroke:#000000;stroke-width:0;stroke-miterlimit:4;stroke-opacity:1;stroke-dasharray:none" />
</svg>
