<?xml version="1.0" encoding="UTF-8" standalone="no"?>
<!-- Created with Inkscape (http://www.inkscape.org/) -->

<svg
   xmlns:dc="http://purl.org/dc/elements/1.1/"
   xmlns:cc="http://creativecommons.org/ns#"
   xmlns:rdf="http://www.w3.org/1999/02/22-rdf-syntax-ns#"
   xmlns:svg="http://www.w3.org/2000/svg"
   xmlns="http://www.w3.org/2000/svg"
   version="1.1"
   width="55.007999"
   height="55.007999"
   id="svg3321">
  <defs
     id="defs3323" />
  <metadata
     id="metadata3326">
    <rdf:RDF>
      <cc:Work
         rdf:about="">
        <dc:format>image/svg+xml</dc:format>
        <dc:type
           rdf:resource="http://purl.org/dc/dcmitype/StillImage" />
        <dc:title></dc:title>
      </cc:Work>
    </rdf:RDF>
  </metadata>
  <g
     transform="translate(-268.70059,-454.03612)"
     id="layer1">
    <g
       id="text3329"
       style="font-size:144px;font-style:normal;font-variant:normal;font-weight:normal;font-stretch:normal;line-height:125%;letter-spacing:0px;word-spacing:0px;fill:param(fill) #000000;fill-opacity:1;stroke:none">
      <path
         d="m 323.70859,481.54012 c -5e-5,3.74402 -0.72005,7.29602 -2.16,10.656 -1.44005,3.36001 -3.40805,6.28801 -5.904,8.784 -2.49604,2.496 -5.42404,4.464 -8.784,5.904 -3.36003,1.44 -6.91203,2.16 -10.656,2.16 -3.74402,0 -7.29602,-0.72 -10.656,-2.16 -3.36001,-1.44 -6.28801,-3.408 -8.784,-5.904 -2.496,-2.49599 -4.464,-5.42399 -5.904,-8.784 -1.44,-3.35998 -2.16,-6.91198 -2.16,-10.656 0,-3.74397 0.72,-7.29597 2.16,-10.656 1.44,-3.35996 3.408,-6.28796 5.904,-8.784 2.49599,-2.49595 5.42399,-4.46395 8.784,-5.904 3.35998,-1.43995 6.91198,-2.15995 10.656,-2.16 3.74397,5e-5 7.29597,0.72005 10.656,2.16 3.35996,1.44005 6.28796,3.40805 8.784,5.904 2.49595,2.49604 4.46395,5.42404 5.904,8.784 1.43995,3.36003 2.15995,6.91203 2.16,10.656 m -29.952,22.896 0.432,0 0,-45.648 -0.432,0 c -2.30402,0.28805 -4.46402,0.86405 -6.48,1.728 -2.78401,1.15204 -5.23201,2.78404 -7.344,4.896 -2.01601,2.01604 -3.64801,4.41604 -4.896,7.2 -1.152,2.78403 -1.728,5.76003 -1.728,8.928 0,3.16802 0.576,6.14402 1.728,8.928 1.24799,2.78401 2.87999,5.23201 4.896,7.344 2.11199,2.01601 4.55999,3.648 7.344,4.896 1.91998,0.96 4.07998,1.536 6.48,1.728 m 11.376,-1.728 c 2.78396,-1.248 5.18396,-2.87999 7.2,-4.896 2.11196,-2.11199 3.74395,-4.55999 4.896,-7.344 1.24795,-2.78398 1.87195,-5.75998 1.872,-8.928 -5e-5,-3.16797 -0.62405,-6.14397 -1.872,-8.928 -1.15205,-2.78396 -2.78404,-5.18396 -4.896,-7.2 -2.01604,-2.11196 -4.41604,-3.74396 -7.2,-4.896 -2.01603,-0.86395 -4.08003,-1.43995 -6.192,-1.728 l -0.144,0 0,45.504 c 2.20797,-0.192 4.31997,-0.72 6.336,-1.584"
         id="path3353" />
    </g>
  </g>
</svg>
