<?xml version="1.0" encoding="UTF-8" standalone="no"?>
<!-- Created with Inkscape (http://www.inkscape.org/) -->

<svg
   xmlns:dc="http://purl.org/dc/elements/1.1/"
   xmlns:cc="http://creativecommons.org/ns#"
   xmlns:rdf="http://www.w3.org/1999/02/22-rdf-syntax-ns#"
   xmlns:svg="http://www.w3.org/2000/svg"
   xmlns="http://www.w3.org/2000/svg"
   xmlns:sodipodi="http://sodipodi.sourceforge.net/DTD/sodipodi-0.dtd"
   xmlns:inkscape="http://www.inkscape.org/namespaces/inkscape"
   id="svg2"
   version="1.1"
   inkscape:version="0.91 r13725"
   xml:space="preserve"
   width="26.586"
   height="46.568249"
   viewBox="0 0 26.586 46.568249"
   sodipodi:docname="NTP_Markierung_Orange.svg"><metadata
     id="metadata8"><rdf:RDF><cc:Work
         rdf:about=""><dc:format>image/svg+xml</dc:format><dc:type
           rdf:resource="http://purl.org/dc/dcmitype/StillImage" /><dc:title></dc:title></cc:Work></rdf:RDF></metadata><defs
     id="defs6"><clipPath
       clipPathUnits="userSpaceOnUse"
       id="clipPath16"><path
         d="m 0,37.255 21.269,0 L 21.269,0 0,0 0,37.255 Z"
         id="path18"
         inkscape:connector-curvature="0" /></clipPath></defs><sodipodi:namedview
     pagecolor="#ffffff"
     bordercolor="#666666"
     borderopacity="1"
     objecttolerance="10"
     gridtolerance="10"
     guidetolerance="10"
     inkscape:pageopacity="0"
     inkscape:pageshadow="2"
     inkscape:window-width="774"
     inkscape:window-height="480"
     id="namedview4"
     showgrid="false"
     inkscape:zoom="5.0678307"
     inkscape:cx="13.293"
     inkscape:cy="23.284124"
     inkscape:window-x="65"
     inkscape:window-y="24"
     inkscape:window-maximized="0"
     inkscape:current-layer="g10" /><g
     id="g10"
     inkscape:groupmode="layer"
     inkscape:label="NTP-Markierung_RGB_neu"
     transform="matrix(1.25,0,0,-1.25,0,46.56825)"><g
       id="g12"><g
         id="g14"
         clip-path="url(#clipPath16)"><g
           id="g20"
           transform="translate(9.8987,36.0344)"><path
             d="m 0,0 0,0 c -4.769,0 -8.635,-3.955 -8.635,-8.833 0,-0.969 0.254,-2.108 0.578,-3.181 L 0,-36.035 8.057,-12.014 c 0.324,1.073 0.577,2.212 0.577,3.181 C 8.634,-3.955 4.769,0 0,0"
             style="fill:#f08100;fill-opacity:1;fill-rule:nonzero;stroke:none"
             id="path22"
             inkscape:connector-curvature="0" /></g><g
           id="g24"
           transform="translate(9.9212,37.2547)"><path
             d="m 0,0 c -5.573,0 -10.074,-4.596 -9.917,-10.205 0.145,-5.176 4.459,-9.491 9.635,-9.635 5.608,-0.155 10.203,4.345 10.203,9.919 C 9.921,-4.442 5.479,0 0,0"
             style="fill:#ffffff;fill-opacity:1;fill-rule:nonzero;stroke:none"
             id="path26"
             inkscape:connector-curvature="0" /></g><g
           id="g28"
           transform="translate(9.9212,20.4295)"><path
             d="m 0,0 c -3.813,0 -6.904,3.091 -6.904,6.904 0,3.812 3.091,6.903 6.904,6.903 3.813,0 6.904,-3.091 6.904,-6.903 C 6.904,3.091 3.813,0 0,0 m 0,15.533 c -4.766,0 -8.63,-3.863 -8.63,-8.629 0,-4.766 3.864,-8.63 8.63,-8.63 4.766,0 8.63,3.864 8.63,8.63 0,4.766 -3.864,8.629 -8.63,8.629"
             style="fill:#f08100;fill-opacity:1;fill-rule:nonzero;stroke:none"
             id="path30"
             inkscape:connector-curvature="0" /></g><g
           id="g32"
           transform="translate(13.0149,27.4031)"><path
             d="m 0,0 8.254,-5.471 0,10.942 L 0,0 Z"
             style="fill:#ffffff;fill-opacity:1;fill-rule:nonzero;stroke:none"
             id="path34"
             inkscape:connector-curvature="0" /></g><g
           id="g36"
           transform="translate(15.0013,27.4031)"><path
             d="m 0,0 5.171,-3.428 0,6.856 L 0,0 Z"
             style="fill:#0081c5;fill-opacity:1;fill-rule:nonzero;stroke:none"
             id="path38"
             inkscape:connector-curvature="0" /></g><g
           id="g40"
           transform="translate(7.0813,30.7927)"><path
             d="m 0,0 c 0.454,0 0.821,-0.368 0.821,-0.822 0,-0.454 -0.367,-0.822 -0.821,-0.822 -0.454,0 -0.822,0.368 -0.822,0.822 C -0.822,-0.368 -0.454,0 0,0"
             style="fill:#f08100;fill-opacity:1;fill-rule:nonzero;stroke:none"
             id="path42"
             inkscape:connector-curvature="0" /></g><g
           id="g44"
           transform="translate(12.762,30.7927)"><path
             d="m 0,0 c 0.453,0 0.821,-0.368 0.821,-0.822 0,-0.454 -0.368,-0.822 -0.821,-0.822 -0.454,0 -0.822,0.368 -0.822,0.822 C -0.822,-0.368 -0.454,0 0,0"
             style="fill:#f08100;fill-opacity:1;fill-rule:nonzero;stroke:none"
             id="path46"
             inkscape:connector-curvature="0" /></g><g
           id="g48"
           transform="translate(13.2073,28.7859)"><path
             d="m 0,0 -0.445,0 -0.447,0 c -0.534,0 -0.772,-0.481 -0.772,-0.858 l 0,-1.605 c 0,-0.265 0.167,-0.472 0.379,-0.489 l 0,-2.589 c 0,-0.204 0.166,-0.37 0.371,-0.37 0.204,0 0.37,0.166 0.37,0.37 l 0,0.001 0,1.759 0.196,0 0,-1.76 c 0,-0.204 0.166,-0.37 0.371,-0.37 0.206,0 0.372,0.166 0.372,0.37 l 0,0.001 0,2.588 c 0.211,0.017 0.378,0.224 0.378,0.489 l 0,1.605 C 0.773,-0.481 0.534,0 0,0"
             style="fill:#f08100;fill-opacity:1;fill-rule:nonzero;stroke:none"
             id="path50"
             inkscape:connector-curvature="0" /></g><g
           id="g52"
           transform="translate(7.9085,26.9119)"><path
             d="m 0,0 0,1.772 c -0.105,0.063 -0.231,0.102 -0.381,0.102 l -0.446,0 -0.446,0 c -0.534,0 -0.773,-0.481 -0.773,-0.858 l 0,-1.605 c 0,-0.265 0.167,-0.471 0.379,-0.488 l 0,-2.589 c 0,-0.205 0.166,-0.371 0.371,-0.371 0.204,0 0.371,0.166 0.371,0.371 l 0,1.759 0.196,0 0,-1.759 c 0,-0.205 0.166,-0.371 0.371,-0.371 0.205,0 0.371,0.166 0.371,0.371 l 0,2.589 c 0.199,0.016 0.356,0.199 0.375,0.441 C 0.164,-0.552 0,-0.305 0,0"
             style="fill:#f08100;fill-opacity:1;fill-rule:nonzero;stroke:none"
             id="path54"
             inkscape:connector-curvature="0" /></g><g
           id="g56"
           transform="translate(10.1038,29.971)"><path
             d="m 0,0 -0.536,0 -0.535,0 c -0.641,0 -0.928,-0.578 -0.928,-1.03 l 0,-1.927 c 0,-0.326 0.211,-0.58 0.475,-0.589 l 0,-3.105 c 0,-0.246 0.199,-0.445 0.445,-0.445 0.246,0 0.445,0.199 0.445,0.445 l 0,2.112 0.197,0 0,-2.112 c 0,-0.246 0.199,-0.445 0.445,-0.445 0.246,0 0.445,0.199 0.445,0.445 l 0,3.105 c 0.264,0.008 0.475,0.262 0.475,0.589 l 0,1.927 C 0.928,-0.578 0.641,0 0,0"
             style="fill:#f08100;fill-opacity:1;fill-rule:nonzero;stroke:none"
             id="path58"
             inkscape:connector-curvature="0" /></g><g
           id="g60"
           transform="translate(9.5686,30.3948)"><path
             d="M 0,0 C 0.528,0 0.959,0.43 0.959,0.959 0.959,1.488 0.528,1.918 0,1.918 -0.529,1.918 -0.959,1.488 -0.959,0.959 -0.959,0.43 -0.529,0 0,0"
             style="fill:#f08100;fill-opacity:1;fill-rule:nonzero;stroke:none"
             id="path62"
             inkscape:connector-curvature="0" /></g></g></g></g></svg>