<?xml version="1.0" encoding="UTF-8" standalone="no"?>
<!-- Created with Inkscape (http://www.inkscape.org/) -->

<svg
   xmlns:svg="http://www.w3.org/2000/svg"
   xmlns="http://www.w3.org/2000/svg"
   version="1.2"
   width="100%"
   height="100%"
   viewBox="-10 -10 20 20"
   id="svg2">
  <title
     id="title6">Lagefixpunkt 1 und 2 begehbar, character A</title>
  <defs
     id="defs11" />
  <path
     d="M -7.0370371,3.9153441 -7.3308995e-7,-7.9365079 6.8783067,3.9153438 l -13.9153438,3e-7 z"
     id="path2770"
     style="fill:#ffffff;fill-opacity:1;stroke:none" />
<g        
id="text3859"
style="font-size:144px;font-style:normal;font-variant:normal;font-weight:normal;font-stretch:normal;fill:param(fill) #FF0000;fill-opacity:1;stroke:none;">>


  <path
     d="M -5.9999997e-8,-10.051431 8.8121212,5.1021871 l -17.6242424,0 L -5.9999997e-8,-10.051431 z m 0,2.1871198 L -6.9238095,4.008627 l 13.8082792,0 L -5.9999997e-8,-7.8643112 z M -2.7537884,0.18116656 c 0,-1.52317286 1.2195348,-2.73390006 2.753788340000003,-2.73390006 C 1.534253,-2.5527335 2.7537876,-1.3420063 2.7537876,0.18116656 2.7537876,1.7043397 1.534253,2.9150669 -5.9999997e-8,2.9150669 -1.5342536,2.9150669 -2.7537884,1.7043397 -2.7537884,0.18116656 z m 1.1015155,0 c 0,0.89828154 0.74745656,1.64034034 1.652272840000003,1.64034034 C 0.90481584,1.8215069 1.6522725,1.0794481 1.6522725,0.18116656 1.6522725,-0.71711494 0.90481584,-1.4591735 -5.9999997e-8,-1.4591735 -0.90481634,-1.4591735 -1.6522729,-0.71711494 -1.6522729,0.18116656 z"
     id="path8" />

</g>
</svg>


