<?xml version="1.0" encoding="UTF-8" standalone="no"?>
<!-- Created with Inkscape (http://www.inkscape.org/) -->

<svg
   xmlns:svg="http://www.w3.org/2000/svg"
   xmlns="http://www.w3.org/2000/svg"
   version="1.1"
   width="57.312"
   height="57.456001"
   id="svg3962">
  <defs
     id="defs3964" />
  <g
     transform="translate(-425.6297,-509.34846)"
     id="layer1">
    <g
       id="text3863"
       style="font-size:144px;font-style:normal;font-variant:normal;font-weight:normal;font-stretch:normal;fill:param(fill) #000000;fill-opacity:1;stroke:none;">
      <path
         d="m 482.9417,538.00446 c -6e-5,3.93603 -0.76806,7.68002 -2.304,11.232 -1.44005,3.45602 -3.45605,6.48001 -6.048,9.072 -2.59205,2.59201 -5.66404,4.65601 -9.216,6.192 -3.45604,1.536 -7.15203,2.304 -11.088,2.304 -3.93603,0 -7.68002,-0.768 -11.232,-2.304 -3.45601,-1.53599 -6.48001,-3.59999 -9.072,-6.192 -2.59201,-2.59199 -4.656,-5.61598 -6.192,-9.072 -1.44,-3.55198 -2.16,-7.29597 -2.16,-11.232 0,-3.93597 0.72,-7.63196 2.16,-11.088 1.536,-3.55196 3.59999,-6.62395 6.192,-9.216 2.59199,-2.59195 5.61599,-4.60795 9.072,-6.048 3.55198,-1.53594 7.29597,-2.30394 11.232,-2.304 3.93597,6e-5 7.63196,0.76806 11.088,2.304 3.55196,1.44005 6.62395,3.45605 9.216,6.048 2.59195,2.59205 4.60795,5.66404 6.048,9.216 1.53594,3.45604 2.30394,7.15203 2.304,11.088"
         id="path4005" />
    </g>
  </g>
</svg>
