<?xml version="1.0" encoding="UTF-8" standalone="no"?>
<!-- Created with Inkscape (http://www.inkscape.org/) -->

<svg
   xmlns:dc="http://purl.org/dc/elements/1.1/"
   xmlns:cc="http://creativecommons.org/ns#"
   xmlns:rdf="http://www.w3.org/1999/02/22-rdf-syntax-ns#"
   xmlns:svg="http://www.w3.org/2000/svg"
   xmlns="http://www.w3.org/2000/svg"
   xmlns:sodipodi="http://sodipodi.sourceforge.net/DTD/sodipodi-0.dtd"
   xmlns:inkscape="http://www.inkscape.org/namespaces/inkscape"
   version="1.1"
   width="30"
   height="30"
   id="svg2"
   inkscape:version="0.48.4 r9939"
   sodipodi:docname="Pumpwerk_5001_10000.svg">
  <metadata
     id="metadata7565">
    <rdf:RDF>
      <cc:Work
         rdf:about="">
        <dc:format>image/svg+xml</dc:format>
        <dc:type
           rdf:resource="http://purl.org/dc/dcmitype/StillImage" />
      </cc:Work>
    </rdf:RDF>
  </metadata>
  <sodipodi:namedview
     pagecolor="#ffffff"
     bordercolor="#666666"
     borderopacity="1"
     objecttolerance="10"
     gridtolerance="10"
     guidetolerance="10"
     inkscape:pageopacity="0"
     inkscape:pageshadow="2"
     inkscape:window-width="1215"
     inkscape:window-height="1000"
     id="namedview7563"
     showgrid="false"
     inkscape:zoom="7.8666667"
     inkscape:cx="15"
     inkscape:cy="15"
     inkscape:window-x="65"
     inkscape:window-y="24"
     inkscape:window-maximized="1"
     inkscape:current-layer="layer1" />
  <defs
     id="defs4">
    <marker
       refX="0"
       refY="0"
       orient="auto"
       id="TriangleOutS"
       style="overflow:visible">
      <path
         d="m 5.77,0 -8.65,5 0,-10 8.65,5 z"
         transform="scale(0.2,0.2)"
         id="path4313"
         style="fill-rule:evenodd;stroke:#000000;stroke-width:1pt;marker-start:none" />
    </marker>
    <marker
       refX="0"
       refY="0"
       orient="auto"
       id="TriangleInS"
       style="overflow:visible">
      <path
         d="m 5.77,0 -8.65,5 0,-10 8.65,5 z"
         transform="scale(-0.2,-0.2)"
         id="path4304"
         style="fill-rule:evenodd;stroke:#000000;stroke-width:1pt;marker-start:none" />
    </marker>
    <marker
       refX="0"
       refY="0"
       orient="auto"
       id="TriangleOutMy"
       style="overflow:visible">
      <path
         d="m 5.77,0 -8.65,5 0,-10 8.65,5 z"
         transform="scale(0.4,0.4)"
         id="path4965"
         style="fill:#0000ff;fill-rule:evenodd;stroke:#0000ff;stroke-width:1pt;marker-start:none" />
    </marker>
    <marker
       refX="0"
       refY="0"
       orient="auto"
       id="TriangleOutS6"
       style="overflow:visible">
      <path
         d="m 5.77,0 -8.65,5 0,-10 8.65,5 z"
         transform="scale(0.2,0.2)"
         id="path4813"
         style="fill:#0000ff;fill-rule:evenodd;stroke:#0000ff;stroke-width:1pt;marker-start:none" />
    </marker>
  </defs>
  <g
     transform="translate(-0.45890415,-1021.8486)"
     id="layer1">
    <path
       d="m 15,15 0,-7 7,0 -7,7 z"
       transform="translate(0.45890415,1021.8486)"
       id="path4848"
       style="fill:#1e1ebe;fill-opacity:1;stroke:none" />
    <path
       d="m 15,15 7,-7 0,7 -7,0 z"
       transform="translate(0.45890415,1021.8486)"
       id="path4871"
       style="fill:#1e1ebe;fill-opacity:1;stroke:none" />
    <path
       d="m 15,15 7,0 0,7 -7,-7 z"
       transform="translate(0.45890415,1021.8486)"
       id="path4894"
       style="fill:#1e1ebe;fill-opacity:1;stroke:none" />
    <path
       d="m 15,15 7,7 -7,0 0,-7 z"
       transform="translate(0.45890415,1021.8486)"
       id="path4917"
       style="fill:#1e1ebe;fill-opacity:1;stroke:none" />
    <path
       d="m 15,15 0,7 -7,0 7,-7 z"
       transform="translate(0.45890415,1021.8486)"
       id="path4940"
       style="fill:#1e1ebe;fill-opacity:1;stroke:none" />
    <path
       d="m 8,22 0,-7 7,0 -7,7 z"
       transform="translate(0.45890415,1021.8486)"
       id="path4963"
       style="fill:#1e1ebe;fill-opacity:1;stroke:none" />
  </g>
</svg>
