<svg id="Ebene_1" data-name="Ebene 1" xmlns="http://www.w3.org/2000/svg" viewBox="0 0 13.01 13.01"><title>190424 ARP RP Pikto</title><rect fill="#fff" width="13.01" height="13.01"/><path d="M13,13H0V0H13ZM.25,12.76H12.76V.25H.25Z"/><path d="M6.5,4.11a2.46,2.46,0,0,0-1.7.71,2.35,2.35,0,0,0,0,3.37,2.45,2.45,0,0,0,1.7.7,2.41,2.41,0,0,0,1.7-.7,2.38,2.38,0,0,0,0-3.37A2.42,2.42,0,0,0,6.5,4.11Zm1,3.37a1.39,1.39,0,0,1-2,0,1.35,1.35,0,0,1-.42-1,1.42,1.42,0,0,1,2.83,0A1.35,1.35,0,0,1,7.5,7.48Z"/><path d="M6.5,5.38A1.13,1.13,0,0,0,5.38,6.5a1.16,1.16,0,0,0,.33.8,1.12,1.12,0,0,0,.79.31,1.1,1.1,0,0,0,.79-.31,1.16,1.16,0,0,0,.33-.8,1.14,1.14,0,0,0-.33-.79A1.12,1.12,0,0,0,6.5,5.38Z"/><path d="M9.17,3.84A3.76,3.76,0,0,0,6.5,2.73,3.82,3.82,0,0,0,3.82,3.84a3.77,3.77,0,0,0,0,5.33,3.77,3.77,0,0,0,5.34,0,3.73,3.73,0,0,0,0-5.33ZM9,9a3.55,3.55,0,0,1-2.5,1A3.62,3.62,0,0,1,4,9,3.56,3.56,0,0,1,4,4,3.62,3.62,0,0,1,6.5,3,3.56,3.56,0,0,1,9,4,3.51,3.51,0,0,1,9,9Z"/><path d="M10.1,2.92A5,5,0,0,0,6.5,1.43,5,5,0,0,0,2.91,2.92,5.07,5.07,0,0,0,6.5,11.57a5.06,5.06,0,0,0,3.6-8.65Zm-.18,7A4.83,4.83,0,0,1,1.67,6.5,4.77,4.77,0,0,1,3.08,3.09a4.85,4.85,0,0,1,6.84,0,4.82,4.82,0,0,1,0,6.83Z"/></svg>
