<?xml version="1.0" encoding="UTF-8" standalone="no"?>
<svg
   xmlns:dc="http://purl.org/dc/elements/1.1/"
   xmlns:cc="http://creativecommons.org/ns#"
   xmlns:rdf="http://www.w3.org/1999/02/22-rdf-syntax-ns#"
   xmlns:svg="http://www.w3.org/2000/svg"
   xmlns="http://www.w3.org/2000/svg"
   xmlns:sodipodi="http://sodipodi.sourceforge.net/DTD/sodipodi-0.dtd"
   xmlns:inkscape="http://www.inkscape.org/namespaces/inkscape"
   id="svg2"
   viewBox="0 0 100 100"
   width="100%"
   height="100%"
   version="1.1"
   inkscape:version="0.48.4 r9939"
   sodipodi:docname="Steinschlag-Gebiete.svg">
  <defs
     id="defs3005" />
  <sodipodi:namedview
     pagecolor="#ffffff"
     bordercolor="#666666"
     borderopacity="1"
     objecttolerance="10"
     gridtolerance="10"
     guidetolerance="10"
     inkscape:pageopacity="0"
     inkscape:pageshadow="2"
     inkscape:window-width="640"
     inkscape:window-height="480"
     id="namedview3003"
     showgrid="false"
     inkscape:zoom="2.36"
     inkscape:cx="50"
     inkscape:cy="50"
     inkscape:window-x="0"
     inkscape:window-y="0"
     inkscape:window-maximized="0"
     inkscape:current-layer="svg2" />
  <title
     id="title2997">Scree</title>
  <metadata
     id="metadata2999">
    <rdf:RDF>
      <cc:Work
         rdf:about="">
        <dc:format>image/svg+xml</dc:format>
        <dc:type
           rdf:resource="http://purl.org/dc/dcmitype/StillImage" />
        <dc:title>Scree</dc:title>
        <dc:date>2009-12-02</dc:date>
        <dc:creator>
          <cc:Agent>
            <dc:title>Atelier Ursula Heilig, Andreas Neumann</dc:title>
          </cc:Agent>
        </dc:creator>
        <dc:subject>
          <rdf:Bag>
            <rdf:li>Land Cover</rdf:li>
          </rdf:Bag>
        </dc:subject>
        <cc:license
           rdf:resource="http://creativecommons.org/licenses/publicdomain/" />
        <dc:contributor>
          <cc:Agent>
            <dc:title>Swisstopo, Cadastra Font</dc:title>
          </cc:Agent>
        </dc:contributor>
      </cc:Work>
      <cc:License
         rdf:about="http://creativecommons.org/licenses/publicdomain/">
        <cc:permits
           rdf:resource="http://creativecommons.org/ns#Reproduction" />
        <cc:permits
           rdf:resource="http://creativecommons.org/ns#Distribution" />
        <cc:permits
           rdf:resource="http://creativecommons.org/ns#DerivativeWorks" />
      </cc:License>
    </rdf:RDF>
  </metadata>
  <path
     d="M 69.55169,30.690005 L 71.508436,24.922757 L 73.465181,22.657053 L 79.129441,25.74665 L 84.175784,32.234804 L 81.601121,36.869205 L 77.790618,38.311016 L 72.126353,35.530377 L 69.55169,30.690005 z M 9.9224476,45.417092 L 7.1418086,50.87538 L 6.9358429,53.861989 L 13.115038,55.612764 L 21.250978,54.582895 L 22.692794,49.536553 L 21.045008,45.829038 L 15.071784,43.769305 L 9.9224526,45.417092 z M 18.367347,14.521112 L 18.779278,7.8269815 L 17.749414,4.84037 L 11.364243,5.7672497 L 4.2581719,10.195674 L 4.9790773,15.859935 L 7.9656868,18.84655 L 14.24787,18.331615 L 18.367331,14.521112 z M 4.4641579,89.392365 L 9.0985536,81.874347 L 13.629963,81.874347 L 18.470335,84.654986 L 18.470335,91.143139 L 14.865803,94.953642 L 11.0553,95.674547 L 8.6866074,93.202872 L 4.4641579,89.392365 z M 55.95746,67.868166 L 56.781349,77.857868 L 52.970846,80.638507 L 47.718527,81.256424 L 43.908024,75.386188 L 44.525942,69.515952 L 47.203598,66.426355 L 55.95746,67.868166 z M 32.991446,35.324401 L 32.27054,25.643662 L 35.772084,23.068999 L 40.715439,22.451077 L 44.216983,28.012354 L 43.599066,33.67662 L 41.127386,36.663229 L 32.991446,35.324401 z M 86.132529,73.017496 L 85.411624,63.336757 L 88.913168,60.762094 L 93.856528,60.144172 L 97.358072,65.705449 L 96.74015,71.369715 L 94.268475,74.356324 L 86.132529,73.017496 z M 92.5177,18.640574 L 91.899783,16.889804 L 91.384848,16.271882 L 89.634073,17.198763 L 88.089275,19.155509 L 88.913168,20.494331 L 90.04602,20.906263 L 91.796795,20.185357 L 92.5177,18.640559 z M 30.107819,5.0463433 L 33.094433,5.355302 L 33.918327,4.0164761 L 34.124293,2.2657041 L 32.373518,0.92687821 L 30.622748,1.132849 L 29.695867,2.0597282 L 30.107799,5.0463398 z M 33.712351,92.996897 L 33.609343,91.246127 L 33.918317,90.525222 L 36.081038,90.525222 L 37.625837,91.864045 L 37.419871,93.305855 L 36.595978,94.026766 L 33.094433,94.026766 L 33.712351,92.996897 z M 5.5970099,30.690005 L 6.4209032,32.337792 L 6.5239115,33.161685 L 4.670154,33.779602 L 2.1984741,33.470628 L 1.7865426,31.92583 L 2.3014772,30.792978 L 4.0522467,30.17506 L 5.5970454,30.689995 z M 6.5238912,72.09062 L 7.3477845,73.738402 L 7.4507927,74.665283 L 5.5970302,75.180217 L 3.1253553,74.871244 L 2.7134239,73.326445 L 3.2283534,72.193593 L 6.4209387,71.57567 L 6.5239469,72.090605 z M 26.709263,71.575685 L 25.267452,69.206993 L 23.928624,69.310002 L 22.486813,70.133895 L 22.486813,72.09064 L 23.516677,73.223492 L 24.649529,73.738427 L 26.709263,71.575706 z M 77.68763,49.021619 L 76.24582,46.652932 L 74.906992,46.75594 L 73.465181,47.579828 L 73.465181,49.536574 L 74.495045,50.669431 L 75.730885,50.875396 L 77.68763,49.021635 z M 60.076922,98.146227 L 58.635111,95.777535 L 57.296283,95.880544 L 55.854473,96.704437 L 55.854473,98.661182 L 56.884337,99.794034 L 58.120177,100 L 60.076922,98.146243 z M 54.515645,45.932021 L 53.073834,43.563329 L 51.735006,43.666337 L 50.293195,44.490231 L 50.293195,46.446976 L 51.323059,47.579828 L 52.558899,47.785794 L 54.515645,45.932036 z M 98.387936,45.314104 L 96.946125,42.945412 L 95.607297,43.04842 L 94.165487,43.872313 L 94.165487,45.829059 L 95.195351,46.961911 L 96.431191,47.167876 L 98.387936,45.314119 z M 97.770019,2.368692 L 96.328203,0 L 94.98938,0.10298793 L 93.547564,0.92688024 L 93.547564,2.8836256 L 94.577433,4.0164782 L 96.946125,4.222449 L 97.770019,2.3686905 z M 65.638199,59.217296 L 64.196384,56.848604 L 62.857561,56.951612 L 61.41575,57.775505 L 61.41575,59.732251 L 62.445614,60.865103 L 63.681454,61.071068 L 65.638199,59.217311 z M 88.501221,89.186394 L 87.059411,86.817702 L 85.720583,86.92071 L 84.278772,87.744603 L 84.278772,89.701349 L 85.308636,90.834201 L 86.544476,91.040166 L 88.501221,89.186404 z M 75.524909,75.592164 L 74.083098,73.223472 L 72.744276,73.32648 L 71.30246,74.150369 L 71.30246,76.107114 L 72.332329,77.239971 L 73.568169,77.445937 L 75.524909,75.592174 z M 33.197416,48.815648 L 32.991451,51.802261 L 34.124308,52.626149 L 35.669106,52.832115 L 36.698971,51.08134 L 36.698971,49.330572 L 35.875077,48.403691 L 33.197426,48.815623 z M 74.186086,7.7239951 L 74.392052,4.84037 L 73.362183,4.0164772 L 71.817389,3.9134892 L 70.78752,5.5612749 L 70.993486,7.2090605 L 71.714391,8.1359397 L 74.186071,7.7239931 z M 50.190207,10.60762 L 49.469302,6.2821828 L 52.043965,3.604531 L 57.605242,4.6343971 L 60.694839,6.2821828 L 60.076922,11.946445 L 57.605242,14.933059 L 54.515645,14.315137 L 50.190207,10.60762 z"
     style="fill:param(fill) #000000"
     id="path3001" />
</svg>
