<?xml version="1.0" encoding="UTF-8" standalone="no"?>
<!-- Created with Inkscape (http://www.inkscape.org/) -->

<svg
   xmlns:dc="http://purl.org/dc/elements/1.1/"
   xmlns:cc="http://creativecommons.org/ns#"
   xmlns:rdf="http://www.w3.org/1999/02/22-rdf-syntax-ns#"
   xmlns:svg="http://www.w3.org/2000/svg"
   xmlns="http://www.w3.org/2000/svg"
   xmlns:sodipodi="http://sodipodi.sourceforge.net/DTD/sodipodi-0.dtd"
   xmlns:inkscape="http://www.inkscape.org/namespaces/inkscape"
   width="100"
   height="100"
   id="svg2"
   version="1.1"
   inkscape:version="0.48.2 r9819"
   sodipodi:docname="Neo_b.svg">
  <defs
     id="defs4" />
  <sodipodi:namedview
     id="base"
     pagecolor="#ffffff"
     bordercolor="#666666"
     borderopacity="1.0"
     inkscape:pageopacity="0.0"
     inkscape:pageshadow="2"
     inkscape:zoom="5.06"
     inkscape:cx="52.766798"
     inkscape:cy="49.883955"
     inkscape:document-units="px"
     inkscape:current-layer="layer1"
     showgrid="false"
     inkscape:window-width="1066"
     inkscape:window-height="733"
     inkscape:window-x="318"
     inkscape:window-y="100"
     inkscape:window-maximized="0"
     width="100px" />
  <metadata
     id="metadata7">
    <rdf:RDF>
      <cc:Work
         rdf:about="">
        <dc:format>image/svg+xml</dc:format>
        <dc:type
           rdf:resource="http://purl.org/dc/dcmitype/StillImage" />
        <dc:title></dc:title>
      </cc:Work>
    </rdf:RDF>
  </metadata>
  <g
     inkscape:label="Layer 1"
     inkscape:groupmode="layer"
     id="layer1"
     transform="translate(0,-952.3622)">
    <path
       style="font-size:medium;font-style:normal;font-variant:normal;font-weight:normal;font-stretch:normal;text-indent:0;text-align:start;text-decoration:none;line-height:normal;letter-spacing:normal;word-spacing:normal;text-transform:none;direction:ltr;block-progression:tb;writing-mode:lr-tb;text-anchor:start;baseline-shift:baseline;color:#000000;fill:#000000;fill-opacity:1;stroke:none;stroke-width:3.68046999;marker:none;visibility:visible;display:inline;overflow:visible;enable-background:accumulate;font-family:Sans;-inkscape-font-specification:Sans"
       d="m 49.59375,954.125 c -26.178874,0 -47.40625,21.49571 -47.40625,47.9688 0,26.473 21.227377,48 47.40625,48 26.178874,0 47.4375,-21.527 47.4375,-48 0,-26.47309 -21.258625,-47.9688 -47.4375,-47.9688 z m 0,3.65625 c 24.164573,0 43.75,19.80362 43.75,44.31255 0,24.5089 -19.585426,44.3124 -43.75,44.3124 -24.164573,0 -43.71875,-19.8035 -43.71875,-44.3124 0,-24.50893 19.554178,-44.31255 43.71875,-44.31255 z"
       id="path2985"
       inkscape:connector-curvature="0" />
    <g
       style="font-size:72px;font-style:normal;font-variant:normal;font-weight:normal;font-stretch:normal;line-height:125%;letter-spacing:0px;word-spacing:0px;fill:#000000;fill-opacity:1;stroke:none;font-family:Arial;-inkscape-font-specification:Arial"
       id="text3791">
      <path
         d="m 33.900698,1025.9578 0,-51.5391 19.335937,0 c 3.937472,5e-5 7.095672,0.52154 9.47461,1.56445 2.378869,1.04302 4.242149,2.64849 5.589843,4.81641 1.347616,2.16801 2.021443,4.43559 2.021485,6.80273 -4.2e-5,2.20317 -0.597698,4.27738 -1.792969,6.22266 -1.195351,1.94534 -3.000037,3.51565 -5.414063,4.71094 3.11715,0.91409 5.513632,2.47271 7.189454,4.67581 1.675737,2.2031 2.513627,4.8047 2.513671,7.8047 -4.4e-5,2.414 -0.509809,4.6582 -1.529296,6.7324 -1.019573,2.0742 -2.279338,3.6738 -3.779297,4.7988 -1.500038,1.125 -3.380895,1.9746 -5.642578,2.5488 -2.26175,0.5743 -5.033232,0.8614 -8.314454,0.8614 z m 6.820312,-29.88285 11.144531,0 c 3.023412,3e-5 5.191378,-0.19919 6.503907,-0.59766 1.734343,-0.51559 3.040983,-1.37106 3.919922,-2.5664 0.878871,-1.19528 1.318324,-2.69528 1.318359,-4.5 -3.5e-5,-1.7109 -0.410191,-3.21676 -1.230469,-4.51758 -0.820345,-1.30074 -1.992219,-2.19136 -3.515625,-2.67187 -1.523466,-0.48043 -4.136745,-0.72066 -7.839844,-0.72071 l -10.300781,0 z m 0,23.80075 12.832031,0 c 2.203098,0 3.749972,-0.082 4.640625,-0.2461 1.570282,-0.2812 2.882781,-0.75 3.9375,-1.4062 1.054653,-0.6563 1.92184,-1.6113 2.601563,-2.8652 0.679651,-1.2539 1.019494,-2.7012 1.019531,-4.3418 -3.7e-5,-1.9219 -0.492224,-3.5918 -1.476562,-5.0098 -0.98441,-1.418 -2.349643,-2.414 -4.095703,-2.9883 -1.746124,-0.5742 -4.259793,-0.8613 -7.541016,-0.8613 l -11.917969,0 z"
         style=""
         id="path3819" />
    </g>
  </g>
</svg>
