<?xml version="1.0" encoding="UTF-8" standalone="no"?>
<!-- Created with Inkscape (http://www.inkscape.org/) -->

<svg
   xmlns:dc="http://purl.org/dc/elements/1.1/"
   xmlns:cc="http://creativecommons.org/ns#"
   xmlns:rdf="http://www.w3.org/1999/02/22-rdf-syntax-ns#"
   xmlns:svg="http://www.w3.org/2000/svg"
   xmlns="http://www.w3.org/2000/svg"
   xmlns:sodipodi="http://sodipodi.sourceforge.net/DTD/sodipodi-0.dtd"
   xmlns:inkscape="http://www.inkscape.org/namespaces/inkscape"
   width="36"
   height="28"
   id="svg2"
   version="1.1"
   inkscape:version="0.47 r22583"
   sodipodi:docname="erratiker.svg"
   inkscape:export-filename="/home/bjsvwpfe/hoehle.png"
   inkscape:export-xdpi="90"
   inkscape:export-ydpi="90">
  <defs
     id="defs4">
    <inkscape:perspective
       sodipodi:type="inkscape:persp3d"
       inkscape:vp_x="0 : 526.18109 : 1"
       inkscape:vp_y="0 : 1000 : 0"
       inkscape:vp_z="744.09448 : 526.18109 : 1"
       inkscape:persp3d-origin="372.04724 : 350.78739 : 1"
       id="perspective10" />
    <inkscape:perspective
       id="perspective3687"
       inkscape:persp3d-origin="0.5 : 0.33333333 : 1"
       inkscape:vp_z="1 : 0.5 : 1"
       inkscape:vp_y="0 : 1000 : 0"
       inkscape:vp_x="0 : 0.5 : 1"
       sodipodi:type="inkscape:persp3d" />
    <inkscape:perspective
       id="perspective3709"
       inkscape:persp3d-origin="0.5 : 0.33333333 : 1"
       inkscape:vp_z="1 : 0.5 : 1"
       inkscape:vp_y="0 : 1000 : 0"
       inkscape:vp_x="0 : 0.5 : 1"
       sodipodi:type="inkscape:persp3d" />
    <inkscape:perspective
       id="perspective3731"
       inkscape:persp3d-origin="0.5 : 0.33333333 : 1"
       inkscape:vp_z="1 : 0.5 : 1"
       inkscape:vp_y="0 : 1000 : 0"
       inkscape:vp_x="0 : 0.5 : 1"
       sodipodi:type="inkscape:persp3d" />
    <inkscape:perspective
       id="perspective3753"
       inkscape:persp3d-origin="0.5 : 0.33333333 : 1"
       inkscape:vp_z="1 : 0.5 : 1"
       inkscape:vp_y="0 : 1000 : 0"
       inkscape:vp_x="0 : 0.5 : 1"
       sodipodi:type="inkscape:persp3d" />
    <inkscape:perspective
       id="perspective3777"
       inkscape:persp3d-origin="0.5 : 0.33333333 : 1"
       inkscape:vp_z="1 : 0.5 : 1"
       inkscape:vp_y="0 : 1000 : 0"
       inkscape:vp_x="0 : 0.5 : 1"
       sodipodi:type="inkscape:persp3d" />
    <inkscape:perspective
       id="perspective3799"
       inkscape:persp3d-origin="0.5 : 0.33333333 : 1"
       inkscape:vp_z="1 : 0.5 : 1"
       inkscape:vp_y="0 : 1000 : 0"
       inkscape:vp_x="0 : 0.5 : 1"
       sodipodi:type="inkscape:persp3d" />
    <inkscape:perspective
       id="perspective3821"
       inkscape:persp3d-origin="0.5 : 0.33333333 : 1"
       inkscape:vp_z="1 : 0.5 : 1"
       inkscape:vp_y="0 : 1000 : 0"
       inkscape:vp_x="0 : 0.5 : 1"
       sodipodi:type="inkscape:persp3d" />
    <inkscape:perspective
       id="perspective3843"
       inkscape:persp3d-origin="0.5 : 0.33333333 : 1"
       inkscape:vp_z="1 : 0.5 : 1"
       inkscape:vp_y="0 : 1000 : 0"
       inkscape:vp_x="0 : 0.5 : 1"
       sodipodi:type="inkscape:persp3d" />
    <inkscape:perspective
       id="perspective3867"
       inkscape:persp3d-origin="0.5 : 0.33333333 : 1"
       inkscape:vp_z="1 : 0.5 : 1"
       inkscape:vp_y="0 : 1000 : 0"
       inkscape:vp_x="0 : 0.5 : 1"
       sodipodi:type="inkscape:persp3d" />
    <inkscape:perspective
       id="perspective3889"
       inkscape:persp3d-origin="0.5 : 0.33333333 : 1"
       inkscape:vp_z="1 : 0.5 : 1"
       inkscape:vp_y="0 : 1000 : 0"
       inkscape:vp_x="0 : 0.5 : 1"
       sodipodi:type="inkscape:persp3d" />
    <inkscape:perspective
       id="perspective3911"
       inkscape:persp3d-origin="0.5 : 0.33333333 : 1"
       inkscape:vp_z="1 : 0.5 : 1"
       inkscape:vp_y="0 : 1000 : 0"
       inkscape:vp_x="0 : 0.5 : 1"
       sodipodi:type="inkscape:persp3d" />
    <inkscape:perspective
       id="perspective3933"
       inkscape:persp3d-origin="0.5 : 0.33333333 : 1"
       inkscape:vp_z="1 : 0.5 : 1"
       inkscape:vp_y="0 : 1000 : 0"
       inkscape:vp_x="0 : 0.5 : 1"
       sodipodi:type="inkscape:persp3d" />
    <inkscape:perspective
       id="perspective3955"
       inkscape:persp3d-origin="0.5 : 0.33333333 : 1"
       inkscape:vp_z="1 : 0.5 : 1"
       inkscape:vp_y="0 : 1000 : 0"
       inkscape:vp_x="0 : 0.5 : 1"
       sodipodi:type="inkscape:persp3d" />
    <inkscape:perspective
       id="perspective3977"
       inkscape:persp3d-origin="0.5 : 0.33333333 : 1"
       inkscape:vp_z="1 : 0.5 : 1"
       inkscape:vp_y="0 : 1000 : 0"
       inkscape:vp_x="0 : 0.5 : 1"
       sodipodi:type="inkscape:persp3d" />
    <inkscape:perspective
       id="perspective3999"
       inkscape:persp3d-origin="0.5 : 0.33333333 : 1"
       inkscape:vp_z="1 : 0.5 : 1"
       inkscape:vp_y="0 : 1000 : 0"
       inkscape:vp_x="0 : 0.5 : 1"
       sodipodi:type="inkscape:persp3d" />
    <inkscape:perspective
       id="perspective4021"
       inkscape:persp3d-origin="0.5 : 0.33333333 : 1"
       inkscape:vp_z="1 : 0.5 : 1"
       inkscape:vp_y="0 : 1000 : 0"
       inkscape:vp_x="0 : 0.5 : 1"
       sodipodi:type="inkscape:persp3d" />
    <inkscape:perspective
       id="perspective4021-9"
       inkscape:persp3d-origin="0.5 : 0.33333333 : 1"
       inkscape:vp_z="1 : 0.5 : 1"
       inkscape:vp_y="0 : 1000 : 0"
       inkscape:vp_x="0 : 0.5 : 1"
       sodipodi:type="inkscape:persp3d" />
    <inkscape:perspective
       id="perspective4052"
       inkscape:persp3d-origin="0.5 : 0.33333333 : 1"
       inkscape:vp_z="1 : 0.5 : 1"
       inkscape:vp_y="0 : 1000 : 0"
       inkscape:vp_x="0 : 0.5 : 1"
       sodipodi:type="inkscape:persp3d" />
    <inkscape:perspective
       id="perspective4074"
       inkscape:persp3d-origin="0.5 : 0.33333333 : 1"
       inkscape:vp_z="1 : 0.5 : 1"
       inkscape:vp_y="0 : 1000 : 0"
       inkscape:vp_x="0 : 0.5 : 1"
       sodipodi:type="inkscape:persp3d" />
    <inkscape:perspective
       id="perspective4096"
       inkscape:persp3d-origin="0.5 : 0.33333333 : 1"
       inkscape:vp_z="1 : 0.5 : 1"
       inkscape:vp_y="0 : 1000 : 0"
       inkscape:vp_x="0 : 0.5 : 1"
       sodipodi:type="inkscape:persp3d" />
    <inkscape:perspective
       id="perspective4118"
       inkscape:persp3d-origin="0.5 : 0.33333333 : 1"
       inkscape:vp_z="1 : 0.5 : 1"
       inkscape:vp_y="0 : 1000 : 0"
       inkscape:vp_x="0 : 0.5 : 1"
       sodipodi:type="inkscape:persp3d" />
    <inkscape:perspective
       id="perspective4140"
       inkscape:persp3d-origin="0.5 : 0.33333333 : 1"
       inkscape:vp_z="1 : 0.5 : 1"
       inkscape:vp_y="0 : 1000 : 0"
       inkscape:vp_x="0 : 0.5 : 1"
       sodipodi:type="inkscape:persp3d" />
    <inkscape:perspective
       id="perspective4162"
       inkscape:persp3d-origin="0.5 : 0.33333333 : 1"
       inkscape:vp_z="1 : 0.5 : 1"
       inkscape:vp_y="0 : 1000 : 0"
       inkscape:vp_x="0 : 0.5 : 1"
       sodipodi:type="inkscape:persp3d" />
    <inkscape:perspective
       id="perspective4184"
       inkscape:persp3d-origin="0.5 : 0.33333333 : 1"
       inkscape:vp_z="1 : 0.5 : 1"
       inkscape:vp_y="0 : 1000 : 0"
       inkscape:vp_x="0 : 0.5 : 1"
       sodipodi:type="inkscape:persp3d" />
    <inkscape:perspective
       id="perspective4206"
       inkscape:persp3d-origin="0.5 : 0.33333333 : 1"
       inkscape:vp_z="1 : 0.5 : 1"
       inkscape:vp_y="0 : 1000 : 0"
       inkscape:vp_x="0 : 0.5 : 1"
       sodipodi:type="inkscape:persp3d" />
    <inkscape:perspective
       id="perspective4228"
       inkscape:persp3d-origin="0.5 : 0.33333333 : 1"
       inkscape:vp_z="1 : 0.5 : 1"
       inkscape:vp_y="0 : 1000 : 0"
       inkscape:vp_x="0 : 0.5 : 1"
       sodipodi:type="inkscape:persp3d" />
    <inkscape:perspective
       id="perspective4250"
       inkscape:persp3d-origin="0.5 : 0.33333333 : 1"
       inkscape:vp_z="1 : 0.5 : 1"
       inkscape:vp_y="0 : 1000 : 0"
       inkscape:vp_x="0 : 0.5 : 1"
       sodipodi:type="inkscape:persp3d" />
    <inkscape:perspective
       id="perspective4272"
       inkscape:persp3d-origin="0.5 : 0.33333333 : 1"
       inkscape:vp_z="1 : 0.5 : 1"
       inkscape:vp_y="0 : 1000 : 0"
       inkscape:vp_x="0 : 0.5 : 1"
       sodipodi:type="inkscape:persp3d" />
  </defs>
  <sodipodi:namedview
     id="base"
     pagecolor="#ffffff"
     bordercolor="#666666"
     borderopacity="1.0"
     inkscape:pageopacity="0.0"
     inkscape:pageshadow="2"
     inkscape:zoom="12.923526"
     inkscape:cx="20.562135"
     inkscape:cy="12.48521"
     inkscape:document-units="px"
     inkscape:current-layer="layer1"
     showgrid="true"
     inkscape:object-paths="true"
     inkscape:snap-intersection-paths="true"
     inkscape:object-nodes="true"
     inkscape:snap-smooth-nodes="true"
     inkscape:snap-midpoints="true"
     inkscape:snap-page="true"
     inkscape:snap-global="false"
     inkscape:window-width="1280"
     inkscape:window-height="949"
     inkscape:window-x="0"
     inkscape:window-y="24"
     inkscape:window-maximized="1">
    <inkscape:grid
       type="xygrid"
       id="grid2816"
       empspacing="1"
       visible="true"
       enabled="true"
       snapvisiblegridlinesonly="true"
       dotted="false"
       spacingx="0.5px"
       spacingy="0.5px" />
  </sodipodi:namedview>
  <metadata
     id="metadata7">
    <rdf:RDF>
      <cc:Work
         rdf:about="">
        <dc:format>image/svg+xml</dc:format>
        <dc:type
           rdf:resource="http://purl.org/dc/dcmitype/StillImage" />
        <dc:title></dc:title>
      </cc:Work>
    </rdf:RDF>
  </metadata>
  <g
     inkscape:label="Ebene 1"
     inkscape:groupmode="layer"
     id="layer1"
     transform="translate(0,-1024.3622)">
    <path
       sodipodi:type="arc"
       style="fill:none;stroke-width:1;stroke-miterlimit:4;stroke-dasharray:none"
       id="path3609"
       sodipodi:cx="8"
       sodipodi:cy="13.5"
       sodipodi:rx="1"
       sodipodi:ry="5.5"
       d="M 9,13.5 C 9,16.537566 8.5522847,19 8,19 7.4477153,19 7,16.537566 7,13.5 7,10.462434 7.4477153,8 8,8 c 0.5522847,0 1,2.462434 1,5.5 z"
       transform="translate(0,1020.3622)" />
    <path
       sodipodi:type="arc"
       style="fill:none;stroke-width:1;stroke-miterlimit:4;stroke-dasharray:none"
       id="path3611"
       sodipodi:cx="7.9206595"
       sodipodi:cy="25.920675"
       sodipodi:rx="4.0626259"
       sodipodi:ry="2.1628368"
       d="m 11.983285,25.920675 c 0,1.194502 -1.818899,2.162837 -4.0626255,2.162837 -2.2437263,0 -4.0626258,-0.968335 -4.0626258,-2.162837 0,-1.194501 1.8188995,-2.162837 4.0626258,-2.162837 2.2437265,0 4.0626255,0.968336 4.0626255,2.162837 z"
       transform="translate(0,1020.3622)" />
    <path
       sodipodi:type="arc"
       style="fill:none;stroke-width:1;stroke-miterlimit:4;stroke-dasharray:none"
       id="path3613"
       sodipodi:cx="17.185785"
       sodipodi:cy="24.576208"
       sodipodi:rx="3.1565728"
       sodipodi:ry="4.442584"
       d="m 20.342358,24.576208 c 0,2.453572 -1.413246,4.442584 -3.156573,4.442584 -1.743327,0 -3.156573,-1.989012 -3.156573,-4.442584 0,-2.453571 1.413246,-4.442584 3.156573,-4.442584 1.743327,0 3.156573,1.989013 3.156573,4.442584 z"
       transform="translate(0,1020.3622)" />
    <path
       style="fill:none;stroke:#000000;stroke-width:2.5;stroke-linecap:butt;stroke-linejoin:miter;stroke-opacity:1;stroke-miterlimit:0;stroke-dasharray:none"
       d="m 3.3935976,20.337038 0,-0.656826 0.1642064,-0.218946 0.1642063,-0.164206 0.054736,-0.05473 0.054735,-0.05474 0.1018067,-0.06799 0.1171356,-0.09622 0.2189418,-0.218942 0,-0.05474 0.054735,-0.05474 0.054735,-0.109471 0.083681,-0.07566 0.02579,-0.08855 0.054735,-0.05474 0.054735,-0.05474 0.1094709,-0.10948 0.054736,-0.10948 0.054735,-0.164211 0.109471,-0.328417 0,-0.05474 0.054735,-0.109471 0,-0.109471 0.054735,-0.05474 0,-0.05474 0.1094709,-0.109471 0.054735,-0.109471 0.054735,-0.164206 0.054735,-0.05474 0.054735,-0.05474 0.054735,-0.05474 0,-0.05474 0.054736,-0.05474 0,-0.05474 0.054735,-0.05473 0.054736,-0.109471 0.1642063,-0.109471 0,-0.05474 0.054735,-0.05474 0,-0.05474 0.2189417,-0.218942 0.10947,-0.109471 0.1094709,-0.05473 0.1094709,-0.109471 0.2189413,-0.164207 0.1642063,-0.164206 0.054735,0 0.2189418,-0.218942 0.054735,-0.05474 0.054735,0 0.1642063,-0.164206 0.1094709,-0.05474 0.1094709,-0.109471 0.1094709,-0.05473 0.1642063,-0.164207 0.1642063,-0.10947 0.1642064,-0.109471 0.054735,-0.109471 0.1642064,-0.164207 0.10947,-0.10947 0.2189413,-0.109471 0.10947,-0.05474 0.1094709,-0.05473 0.2189418,-0.218942 0.1642059,-0.164206 0.1094709,-0.109471 0.1094709,-0.109471 0.1094709,-0.109471 0.1094709,-0.05474 0.054735,-0.109471 0.1094708,-0.109471 0.054735,-0.109471 0.054735,-0.05474 0.054736,-0.109471 0.164206,-0.10947 0.10948,-0.109471 0.109471,-0.109471 0,-0.05474 0.164206,-0.164206 0.05474,-0.109471 0.10947,-0.109471 0.109471,-0.109471 0.164207,-0.164206 0.109471,0 0.10947,-0.109471 0.05474,0 0.05474,-0.05474 0.164207,-0.05474 0.05474,0 0.328418,-0.218947 0.164206,0 0.16421,-0.05474 0.218942,-0.109471 0.109471,-0.109471 0.218942,-0.109471 0.109471,-0.109471 0.164206,-0.05473 0.05474,-0.05474 0.10947,0 0.05474,-0.05474 0.109471,-0.05473 0.218942,-0.2189421 0.10947,-0.054736 0.109471,-0.1094709 0.218942,-0.1094708 0.05474,-0.054736 0.10947,-0.054735 0.05474,-0.1094709 0.109471,-0.054735 0.05473,-0.1094709 0.109471,-0.054735 0.164201,-0.1642064 0.218942,-0.2189417 0.07566,-0.06763 0.08855,-0.096576 0.273677,-0.1642063 0.218942,-0.2189418 0.05474,-0.054735 0.109471,-0.054736 0.05473,-0.054735 0.218942,-0.2189418 0.05474,-0.054736 0.164206,-0.054735 0.164206,-0.1094709 0.164207,-0.054735 0.109471,-0.1642064 0.218941,-0.1642063 0.05474,-0.1094709 0.164211,-0.1642063 0.164206,-0.054736 0.05474,-0.054735 0.218942,-0.2189418 0.109471,-0.054736 0.10947,-0.054735 0.05474,-0.054736 0.273687,-0.1094709 0.164206,-0.054735 0.218942,0 0.164207,-0.1094709 0.10947,-0.054735 0.164207,0 0.218942,-0.1094709 0.273677,-0.054735 0.273677,-0.054735 0.218942,0 0.146082,-0.033816 0.127595,-0.02092 0.10948,-0.054735 0.109471,-0.054736 0.10948,-0.054735 0.10948,-0.054735 0.273677,-0.109471 0.328413,-0.1642064 0.383148,-0.2189418 0.109471,-0.054735 0.05474,0 0.109471,-0.054736 0.109471,-0.1094708 0.109471,-0.054736 0.05473,-0.1094709 0.109471,-0.054735 0.164206,-0.1094709 0.109471,-0.1094709 0.273677,-0.054736 0.323903,-0.1485161 0.387657,-0.01569 0.930503,0 0.218942,0 0.138421,0.02615 0.244727,0.1380559 0.218942,0.054736 0.164206,0.054735 0.218942,0.1094709 0.05474,0.054735 0.164206,0.054735 0.109471,0.054736 0.383148,0.054735 0.492619,0.1094709 0.547355,0.1094709 0.383148,0.1094709 0.218946,0.054735 0.109471,0.054735 0.05473,0.054735 0.109471,0.054735 0.218942,0.1094709 0.273677,0.1094709 0.218942,0.054735 0.218942,0.1094709 0.218941,0.1094709 0.164207,0.1094709 0.109471,0.054735 0.164211,0.1094709 0.05474,0.1094709 0.164207,0.1094709 0.05474,0.1094709 0.109471,0.1094709 0.109471,0.1094709 0.164206,0.1642063 0.05474,0.054736 0.06276,0.091346 0.04671,0.1275957 0.05474,0.1094709 0.109471,0.1018067 0.164206,0.2813419 0.05474,0.1094709 0.164206,0.1094709 0.109471,0.1094709 0.109471,0.1094709 0.05474,0.1094709 0.109471,0.1094709 0.05474,0.1642063 0.109471,0.1094709 0.05473,0.1094709 0.109471,0.1094709 0.05473,0.1094709 0.05474,0.1094709 0,0.054735 0.05474,0.1094709 0,0.054735 0,0.1642063 0,0.2736772 0,0.4926193 0,0.164206 -0.04707,0.143286 -0.0624,0.130391 -0.05473,0.109471 -0.05474,0.109471 0,0.109471 -0.10947,0.273677 0,0.05474 -0.05474,0.05474 -0.05474,0.109471 -0.109471,0.164206 0,0.05474 -0.109471,0.218941 -0.109471,0.273678 -0.08332,0.179896 -0.02615,0.148516 -0.109471,0.218942 0,0.164206 -0.05473,0.164207 -0.02092,0.182331 -0.03382,0.146081 0,0.109471 0,0.109471 0,0.437884 0,0.218942 -0.05474,0.16421 -0.05474,0.164206 -0.05474,0.10948 -0.164206,0.328413 -0.05474,0.05473 -0.05474,0.109471 -0.164207,0.273677 -0.16664,0.234632 -0.107041,0.203252 -0.05474,0.05474 -0.10948,0.109471 -0.05474,0.05474 -0.05474,0.109471 -0.328413,0.10947 -0.164206,0.109471 -0.218942,0.109471 -0.05474,0.05474 -0.218942,0.164206 -0.164206,0.05474 -0.328413,0.218942 -0.328413,0.109471 -0.164206,0.109471 -0.164206,0.05474 -0.09135,0.03382 -0.127595,0.02092 -0.109471,0.05474 -0.164206,0 -0.328413,0 -0.218942,0 -0.437883,0.05474 -0.547355,0 -0.218942,0 -0.109471,0.05474 -0.164206,0.109471 -0.164206,0 -0.109471,0.109471 -0.164206,0.109471 -0.05474,0.05473 -0.09378,0.07566 -0.07043,0.08855 -0.05474,0.05474 -0.05473,0.07809 -0.109471,0.08612 -0.383148,0.328412 -0.05474,0.05474 -0.109471,0.218941 -0.10947,0.109471 -0.05474,0.05474 -0.05473,0.05474 -0.08855,0.09658 -0.07566,0.122365 -0.109471,0.109471 -0.07043,0.150951 -0.148516,0.122731 -0.109471,0.164206 -0.218942,0.218942 -0.05473,0.05474 -0.05474,0.109471 -0.109471,0.05474 -0.109471,0.218942 -0.109471,0.109471 -0.218941,0.218941 -0.164207,0.164207 -0.05474,0.05474 -0.133191,0.109832 -0.14049,0.10911 -0.05474,0.109471 -0.03382,0.07286 -0.02092,0.09134 -0.05474,0.164211 -0.03661,0.04951 -0.01812,0.05997 -0.05474,0.10947 -0.05474,0.109471 -0.05473,0.05474 -0.273678,0.273677 -0.05474,0 -0.05474,0.05473 -0.10947,0.05474 -0.05474,0.05474 -0.273677,0.109471 -0.328413,0.218942 -0.218942,0.05474 -0.437883,0.218942 -0.164207,0 -0.437883,0 -0.218942,0 -0.218942,0.05474 -0.164206,0 -0.273677,0 -0.60209,0 -0.328413,0 -0.109471,0 -0.190356,0.0077 -0.247527,0.04707 -0.164207,0.218942 -0.164201,0.164206 -0.05473,0.109471 -0.109471,0.05474 -0.218937,0.164206 -0.164206,0.05474 -0.164211,0.05474 -0.164206,0 -0.109471,0 -0.656825,0 -0.164207,0 -0.273677,0.05474 -0.437883,0 -0.218942,0.05474 -0.60209,0 -0.437884,0 -0.273677,-0.05474 -0.218942,0 -0.383148,0 -0.109471,0 -0.109471,0 -0.10947,-0.05474 -0.218942,0 -0.273678,0 -0.9305021,0 -0.3284127,0 -0.1094709,0 -0.054735,-0.05474 -0.054735,0 -0.054735,0 -0.2736772,0 -0.4378836,-0.05474 -0.3831481,0 -0.1642063,-0.05474 -0.2736773,0 -0.1094709,0 -0.1094709,-0.05473 -0.2189417,0 -0.2189418,-0.05474 -0.3284127,0 -0.2189418,0 -0.1642063,-0.05474 -0.1094709,0 -0.2189418,-0.109471 -0.8210317,-0.273677 -0.7115608,0 L 3.9409774,23.238009 3.8315065,23.128538 3.7220356,23.073808 3.5578293,22.909602 3.3388875,22.69066 l -0.054736,-0.109471 -0.054735,-0.05474 0,-0.273677 0,-0.328412 0.1642063,-0.164207 0.1094709,-0.164211 0.054736,-0.164206 0,-0.05474 0.054735,-0.10948 0,-0.05474 0,-0.328413 0,-0.05473 -0.2189418,-0.492619 -2.53e-5,2.4e-5 z"
       id="path3673"
       transform="translate(0,1024.3622)"
       sodipodi:nodetypes="ccccccccccccccccccccccccccccccccccccccccccccccccccccccccccccccccccccccccccccccccccccccccccccccccccccccccccccccccccccccccccccccccccccccccccccccccccccccccccccccccccccccccccccccccccccccccccccccccccccccccccccccccccccccccccccccccccccccccccccccccccccccccccccccccccccccccccccccccccccccccccccccccccccccccccccccccccccccccccccccccccccccccccccccccccccccccccccccccccccccccccccccccccccccccccccccccccccccccccccccccccccccc" />
    <path
       style="fill:none;stroke:#000000;stroke-width:1;stroke-linecap:butt;stroke-linejoin:miter;stroke-opacity:1;stroke-miterlimit:4;stroke-dasharray:none"
       d="m 14.647673,1034.8033 14.506419,-3.887"
       id="path3767" />
    <path
       style="fill:none;stroke:#000000;stroke-width:1;stroke-linecap:butt;stroke-linejoin:miter;stroke-miterlimit:4;stroke-opacity:1;stroke-dasharray:none"
       d="m 7.0201878,1040.3176 24.0966332,-6.4567"
       id="path3767-8-2" />
    <path
       style="fill:none;stroke:#000000;stroke-width:1;stroke-linecap:butt;stroke-linejoin:miter;stroke-miterlimit:4;stroke-opacity:1;stroke-dasharray:none"
       d="m 4.2583695,1044.5186 26.7802325,-7.1758"
       id="path3767-8-2-3" />
    <path
       style="fill:none;stroke:#000000;stroke-width:1;stroke-linecap:butt;stroke-linejoin:miter;stroke-miterlimit:4;stroke-opacity:1;stroke-dasharray:none"
       d="M 6.0302137,1047.4602 22.75086,1042.9799"
       id="path3767-8-2-3-4" />
    <path
       style="fill:none;stroke:#000000;stroke-width:1px;stroke-linecap:butt;stroke-linejoin:miter;stroke-opacity:1"
       d="m 20.5,1033.1314 0,-2.2485"
       id="path3857" />
    <path
       style="fill:none;stroke:#000000;stroke-width:1px;stroke-linecap:butt;stroke-linejoin:miter;stroke-opacity:1"
       d="m 24.5,1031.8052 0,-2.2485"
       id="path3857-5" />
    <path
       style="fill:none;stroke:#000000;stroke-width:1;stroke-linecap:square;stroke-linejoin:miter;stroke-miterlimit:4;stroke-opacity:1;stroke-dasharray:none"
       d="m 18.5,1036.8775 0,-2.6991"
       id="path3857-2" />
    <path
       style="fill:none;stroke:#000000;stroke-width:1;stroke-linecap:square;stroke-linejoin:miter;stroke-miterlimit:4;stroke-opacity:1;stroke-dasharray:none"
       d="m 14.5,1037.8374 0,-2.6991"
       id="path3857-2-0" />
    <path
       style="fill:none;stroke:#000000;stroke-width:1;stroke-linecap:square;stroke-linejoin:miter;stroke-miterlimit:4;stroke-opacity:1;stroke-dasharray:none"
       d="m 22.5,1035.7326 0,-2.6991"
       id="path3857-2-8" />
    <path
       style="fill:none;stroke:#000000;stroke-width:1;stroke-linecap:square;stroke-linejoin:miter;stroke-miterlimit:4;stroke-opacity:1;stroke-dasharray:none"
       d="m 26.5,1034.6767 0,-2.6991"
       id="path3857-2-8-2" />
    <path
       style="fill:none;stroke:#000000;stroke-width:1;stroke-linecap:square;stroke-linejoin:miter;stroke-miterlimit:4;stroke-opacity:1;stroke-dasharray:none"
       d="m 12.5,1041.8729 0,-2.6991"
       id="path3857-2-0-2" />
    <path
       style="fill:none;stroke:#000000;stroke-width:1;stroke-linecap:square;stroke-linejoin:miter;stroke-miterlimit:4;stroke-opacity:1;stroke-dasharray:none"
       d="m 8.5,1042.8014 0,-2.6991"
       id="path3857-2-0-2-8" />
    <path
       style="fill:none;stroke:#000000;stroke-width:1;stroke-linecap:square;stroke-linejoin:miter;stroke-miterlimit:4;stroke-opacity:1;stroke-dasharray:none"
       d="m 16.5,1040.8283 0,-2.6991"
       id="path3857-2-0-2-5" />
    <path
       style="fill:none;stroke:#000000;stroke-width:1;stroke-linecap:square;stroke-linejoin:miter;stroke-miterlimit:4;stroke-opacity:1;stroke-dasharray:none"
       d="m 20.5,1039.8224 0,-2.6991"
       id="path3857-2-0-2-82" />
    <path
       style="fill:none;stroke:#000000;stroke-width:1;stroke-linecap:square;stroke-linejoin:miter;stroke-miterlimit:4;stroke-opacity:1;stroke-dasharray:none"
       d="m 24.5,1038.623 0,-2.6991"
       id="path3857-2-0-2-82-1" />
    <path
       style="fill:none;stroke:#000000;stroke-width:1;stroke-linecap:square;stroke-linejoin:miter;stroke-miterlimit:4;stroke-opacity:1;stroke-dasharray:none"
       d="m 28.5,1037.6944 0,-2.6991"
       id="path3857-2-0-2-82-1-4" />
    <path
       style="fill:none;stroke:#000000;stroke-width:1;stroke-linecap:square;stroke-linejoin:miter;stroke-miterlimit:4;stroke-opacity:1;stroke-dasharray:none"
       d="m 10.5,1045.7805 0,-2.6991"
       id="path3857-2-0-2-8-7" />
    <path
       style="fill:none;stroke:#000000;stroke-width:1;stroke-linecap:square;stroke-linejoin:miter;stroke-miterlimit:4;stroke-opacity:1;stroke-dasharray:none"
       d="m 6.5,1046.9798 0,-2.6991"
       id="path3857-2-0-2-8-7-8" />
    <path
       style="fill:none;stroke:#000000;stroke-width:1;stroke-linecap:square;stroke-linejoin:miter;stroke-miterlimit:4;stroke-opacity:1;stroke-dasharray:none"
       d="m 14.5,1044.8133 0,-2.6991"
       id="path3857-2-0-2-8-7-2" />
    <path
       style="fill:none;stroke:#000000;stroke-width:1;stroke-linecap:square;stroke-linejoin:miter;stroke-miterlimit:4;stroke-opacity:1;stroke-dasharray:none"
       d="m 18.5,1043.7686 0,-2.6991"
       id="path3857-2-0-2-8-7-2-6" />
    <path
       style="fill:none;stroke:#000000;stroke-width:1;stroke-linecap:square;stroke-linejoin:miter;stroke-miterlimit:4;stroke-opacity:1;stroke-dasharray:none"
       d="m 22.5,1042.6466 0,-2.6991"
       id="path3857-2-0-2-8-7-2-6-7" />
    <path
       style="fill:none;stroke:#000000;stroke-width:1;stroke-linecap:square;stroke-linejoin:miter;stroke-miterlimit:4;stroke-opacity:1;stroke-dasharray:none"
       d="m 26.5,1041.6021 0,-2.6991"
       id="path3857-2-0-2-8-7-2-6-7-1" />
    <path
       style="fill:none;stroke:#000000;stroke-width:1;stroke-linecap:square;stroke-linejoin:miter;stroke-miterlimit:4;stroke-opacity:1;stroke-dasharray:none"
       d="m 12.5,1048.6822 0,-2.6991"
       id="path3857-2-0-2-8-7-3" />
    <path
       style="fill:none;stroke:#000000;stroke-width:1;stroke-linecap:square;stroke-linejoin:miter;stroke-miterlimit:4;stroke-opacity:1;stroke-dasharray:none"
       d="m 16.5,1047.7923 0,-2.6991"
       id="path3857-2-0-2-8-7-3-2" />
    <path
       style="fill:none;stroke:#000000;stroke-width:1;stroke-linecap:square;stroke-linejoin:miter;stroke-miterlimit:4;stroke-opacity:1;stroke-dasharray:none"
       d="m 20.5,1046.5929 0,-2.6991"
       id="path3857-2-0-2-8-7-3-2-3" />
  </g>
</svg>
