<?xml version="1.0" encoding="UTF-8" standalone="no"?>
<!-- Created with Inkscape (http://www.inkscape.org/) -->

<svg
   xmlns:dc="http://purl.org/dc/elements/1.1/"
   xmlns:cc="http://creativecommons.org/ns#"
   xmlns:rdf="http://www.w3.org/1999/02/22-rdf-syntax-ns#"
   xmlns:svg="http://www.w3.org/2000/svg"
   xmlns="http://www.w3.org/2000/svg"
   xmlns:sodipodi="http://sodipodi.sourceforge.net/DTD/sodipodi-0.dtd"
   xmlns:inkscape="http://www.inkscape.org/namespaces/inkscape"
   width="100"
   height="100"
   id="svg2"
   version="1.1"
   inkscape:version="0.48.2 r9819"
   sodipodi:docname="Neo_1.svg">
  <defs
     id="defs4" />
  <sodipodi:namedview
     id="base"
     pagecolor="#ffffff"
     bordercolor="#666666"
     borderopacity="1.0"
     inkscape:pageopacity="0.0"
     inkscape:pageshadow="2"
     inkscape:zoom="5.06"
     inkscape:cx="52.766798"
     inkscape:cy="49.883955"
     inkscape:document-units="px"
     inkscape:current-layer="layer1"
     showgrid="false"
     inkscape:window-width="1066"
     inkscape:window-height="733"
     inkscape:window-x="318"
     inkscape:window-y="100"
     inkscape:window-maximized="0"
     width="100px" />
  <metadata
     id="metadata7">
    <rdf:RDF>
      <cc:Work
         rdf:about="">
        <dc:format>image/svg+xml</dc:format>
        <dc:type
           rdf:resource="http://purl.org/dc/dcmitype/StillImage" />
        <dc:title></dc:title>
      </cc:Work>
    </rdf:RDF>
  </metadata>
  <g
     inkscape:label="Layer 1"
     inkscape:groupmode="layer"
     id="layer1"
     transform="translate(0,-952.3622)">
    <path
       style="font-size:medium;font-style:normal;font-variant:normal;font-weight:normal;font-stretch:normal;text-indent:0;text-align:start;text-decoration:none;line-height:normal;letter-spacing:normal;word-spacing:normal;text-transform:none;direction:ltr;block-progression:tb;writing-mode:lr-tb;text-anchor:start;baseline-shift:baseline;color:#000000;fill:#000000;fill-opacity:1;stroke:none;stroke-width:3.68046999;marker:none;visibility:visible;display:inline;overflow:visible;enable-background:accumulate;font-family:Sans;-inkscape-font-specification:Sans"
       d="m 49.59375,954.125 c -26.178874,0 -47.40625,21.49571 -47.40625,47.9688 0,26.473 21.227377,48 47.40625,48 26.178874,0 47.4375,-21.527 47.4375,-48 0,-26.47309 -21.258625,-47.9688 -47.4375,-47.9688 z m 0,3.65625 c 24.164573,0 43.75,19.80362 43.75,44.31255 0,24.5089 -19.585426,44.3124 -43.75,44.3124 -24.164573,0 -43.71875,-19.8035 -43.71875,-44.3124 0,-24.50893 19.554178,-44.31255 43.71875,-44.31255 z"
       id="path2985"
       inkscape:connector-curvature="0" />
    <g
       style="font-size:72px;font-style:normal;font-variant:normal;font-weight:normal;font-stretch:normal;line-height:125%;letter-spacing:0px;word-spacing:0px;fill:#000000;fill-opacity:1;stroke:none;font-family:Arial Unicode MS;-inkscape-font-specification:Arial Unicode MS"
       id="text2999">
      <path
         d="m 66.983974,1027.6586 -34.136718,0 c -3e-6,-2.9063 1.013668,-5.8477 3.041015,-8.8242 2.027337,-2.9766 5.818349,-6.7032 11.373047,-11.1797 3.398418,-2.7188 6.433571,-5.5723 9.105469,-8.56058 2.671847,-2.98825 4.007783,-5.99411 4.007812,-9.01758 -2.9e-5,-2.60152 -0.91995,-4.75191 -2.759765,-6.45117 -1.839869,-1.69918 -4.166039,-2.54879 -6.978516,-2.54883 -2.835954,4e-5 -5.214858,0.87309 -7.136719,2.61914 -1.921885,1.74613 -2.894541,4.35355 -2.917968,7.82226 l -6.503907,-0.73828 c 0.398434,-4.82808 2.115229,-8.51948 5.150391,-11.07422 3.035145,-2.55463 6.88475,-3.83198 11.548828,-3.83203 5.062475,5e-5 9.00583,1.40044 11.830078,4.20117 2.824184,2.80083 4.236292,6.18169 4.236328,10.14258 -3.6e-5,3.30472 -1.189488,6.65042 -3.568359,10.03714 -2.378936,3.3867 -7.119166,7.916 -14.220703,13.5879 -3.726577,2.9765 -6.199231,5.5429 -7.417969,7.6992 l 25.347656,0 z"
         style="font-family:Arial Unicode MS;-inkscape-font-specification:Arial Unicode MS"
         id="path3010" />
    </g>
  </g>
</svg>
