<?xml version="1.0" encoding="UTF-8" standalone="no"?>
<!-- Created with Inkscape (http://www.inkscape.org/) -->

<svg
   xmlns:dc="http://purl.org/dc/elements/1.1/"
   xmlns:cc="http://creativecommons.org/ns#"
   xmlns:rdf="http://www.w3.org/1999/02/22-rdf-syntax-ns#"
   xmlns:svg="http://www.w3.org/2000/svg"
   xmlns="http://www.w3.org/2000/svg"
   xmlns:sodipodi="http://sodipodi.sourceforge.net/DTD/sodipodi-0.dtd"
   xmlns:inkscape="http://www.inkscape.org/namespaces/inkscape"
   width="100"
   height="100"
   id="svg2"
   version="1.1"
   inkscape:version="0.48.2 r9819"
   sodipodi:docname="Neo_g.svg">
  <defs
     id="defs4" />
  <sodipodi:namedview
     id="base"
     pagecolor="#ffffff"
     bordercolor="#666666"
     borderopacity="1.0"
     inkscape:pageopacity="0.0"
     inkscape:pageshadow="2"
     inkscape:zoom="5.06"
     inkscape:cx="52.766798"
     inkscape:cy="48.234742"
     inkscape:document-units="px"
     inkscape:current-layer="layer1"
     showgrid="false"
     inkscape:window-width="1066"
     inkscape:window-height="799"
     inkscape:window-x="318"
     inkscape:window-y="100"
     inkscape:window-maximized="0"
     width="100px" />
  <metadata
     id="metadata7">
    <rdf:RDF>
      <cc:Work
         rdf:about="">
        <dc:format>image/svg+xml</dc:format>
        <dc:type
           rdf:resource="http://purl.org/dc/dcmitype/StillImage" />
        <dc:title></dc:title>
      </cc:Work>
    </rdf:RDF>
  </metadata>
  <g
     inkscape:label="Layer 1"
     inkscape:groupmode="layer"
     id="layer1"
     transform="translate(0,-952.3622)">
    <path
       style="font-size:medium;font-style:normal;font-variant:normal;font-weight:normal;font-stretch:normal;text-indent:0;text-align:start;text-decoration:none;line-height:normal;letter-spacing:normal;word-spacing:normal;text-transform:none;direction:ltr;block-progression:tb;writing-mode:lr-tb;text-anchor:start;baseline-shift:baseline;color:#000000;fill:#000000;fill-opacity:1;stroke:none;stroke-width:3.68046999;marker:none;visibility:visible;display:inline;overflow:visible;enable-background:accumulate;font-family:Sans;-inkscape-font-specification:Sans"
       d="m 49.59375,954.125 c -26.178874,0 -47.40625,21.49571 -47.40625,47.9688 0,26.473 21.227377,48 47.40625,48 26.178874,0 47.4375,-21.527 47.4375,-48 0,-26.47309 -21.258625,-47.9688 -47.4375,-47.9688 z m 0,3.65625 c 24.164573,0 43.75,19.80362 43.75,44.31255 0,24.5089 -19.585426,44.3124 -43.75,44.3124 -24.164573,0 -43.71875,-19.8035 -43.71875,-44.3124 0,-24.50893 19.554178,-44.31255 43.71875,-44.31255 z"
       id="path2985"
       inkscape:connector-curvature="0" />
    <g
       style="font-size:72px;font-style:normal;font-variant:normal;font-weight:normal;font-stretch:normal;line-height:125%;letter-spacing:0px;word-spacing:0px;fill:#000000;fill-opacity:1;stroke:none;font-family:Arial;-inkscape-font-specification:Arial"
       id="text2985">
      <path
         d="m 29.123701,1009.1238 6.433594,-0.5625 c 0.304677,2.5781 1.013661,4.6934 2.126953,6.3457 1.113268,1.6523 2.841782,2.9883 5.185547,4.0078 2.343731,1.0195 4.980447,1.5293 7.910156,1.5293 2.601535,0 4.898408,-0.3867 6.890625,-1.1602 1.992154,-0.7734 3.474574,-1.8339 4.447266,-3.1816 0.972619,-1.3477 1.458946,-2.8184 1.458984,-4.4121 -3.8e-5,-1.6172 -0.468787,-3.0293 -1.40625,-4.2363 -0.937535,-1.2071 -2.484409,-2.2207 -4.640625,-3.0411 -1.382843,-0.539 -4.441433,-1.3769 -9.175781,-2.5136 -4.734393,-1.1367 -8.050796,-2.20899 -9.949219,-3.21683 -2.460947,-1.28903 -4.29493,-2.88864 -5.501953,-4.79883 -1.207037,-1.91012 -1.810552,-4.04879 -1.810547,-6.41601 -5e-6,-2.60152 0.738275,-5.03316 2.214844,-7.29492 1.476553,-2.26167 3.632801,-3.97847 6.46875,-5.15039 2.835921,-1.17183 5.988261,-1.75776 9.457031,-1.75782 3.820285,6e-5 7.189423,0.61529 10.107422,1.84571 2.917932,1.23052 5.162071,3.04106 6.732422,5.43164 1.570271,2.39067 2.41402,5.09769 2.53125,8.12109 l -6.539063,0.49219 c -0.351598,-3.25777 -1.54105,-5.71871 -3.568359,-7.38281 -2.027374,-1.66402 -5.021512,-2.49605 -8.982422,-2.4961 -4.125019,5e-5 -7.130876,0.75591 -9.017578,2.26758 -1.886732,1.51176 -2.83009,3.33403 -2.830078,5.4668 -1.2e-5,1.8516 0.667956,3.37503 2.003906,4.57031 1.312485,1.19535 4.740216,2.41995 10.283203,3.67383 5.542939,1.25393 9.34567,2.34964 11.408203,3.28711 2.999962,1.38284 5.214803,3.13475 6.644532,5.25585 1.429644,2.1211 2.144487,4.5645 2.144531,7.3301 -4.4e-5,2.7422 -0.7852,5.3262 -2.355469,7.7519 -1.570353,2.4258 -3.82621,4.3125 -6.767578,5.6602 -2.941438,1.3477 -6.251982,2.0215 -9.931641,2.0215 -4.664083,0 -8.572282,-0.6797 -11.724609,-2.0391 -3.152354,-1.3594 -5.625008,-3.4043 -7.417969,-6.1347 -1.792973,-2.7305 -2.736331,-5.8184 -2.830078,-9.2637 z"
         style=""
         id="path2990" />
    </g>
  </g>
</svg>
