<?xml version="1.0" encoding="UTF-8" standalone="no"?>
<!-- Created with Inkscape (http://www.inkscape.org/) -->

<svg
   xmlns:dc="http://purl.org/dc/elements/1.1/"
   xmlns:cc="http://creativecommons.org/ns#"
   xmlns:rdf="http://www.w3.org/1999/02/22-rdf-syntax-ns#"
   xmlns:svg="http://www.w3.org/2000/svg"
   xmlns="http://www.w3.org/2000/svg"
   xmlns:sodipodi="http://sodipodi.sourceforge.net/DTD/sodipodi-0.dtd"
   xmlns:inkscape="http://www.inkscape.org/namespaces/inkscape"
   width="240"
   height="240"
   id="svg2"
   version="1.1"
   inkscape:version="0.48.4 r9939"
   sodipodi:docname="abrissk.svg">
  <defs
     id="defs4" />
  <sodipodi:namedview
     id="base"
     pagecolor="#ffffff"
     bordercolor="#666666"
     borderopacity="1.0"
     inkscape:pageopacity="0.0"
     inkscape:pageshadow="2"
     inkscape:zoom="3.5765191"
     inkscape:cx="121.33219"
     inkscape:cy="122.85448"
     inkscape:document-units="px"
     inkscape:current-layer="layer1"
     showgrid="false"
     inkscape:window-width="1098"
     inkscape:window-height="750"
     inkscape:window-x="570"
     inkscape:window-y="74"
     inkscape:window-maximized="0" />
  <metadata
     id="metadata7">
    <rdf:RDF>
      <cc:Work
         rdf:about="">
        <dc:format>image/svg+xml</dc:format>
        <dc:type
           rdf:resource="http://purl.org/dc/dcmitype/StillImage" />
        <dc:title />
      </cc:Work>
    </rdf:RDF>
  </metadata>
  <g
     inkscape:label="Ebene 1"
     inkscape:groupmode="layer"
     id="layer1"
     transform="translate(0,-812.36218)">
    <path
       style="font-size:medium;font-style:normal;font-variant:normal;font-weight:normal;font-stretch:normal;text-indent:0;text-align:start;text-decoration:none;line-height:normal;letter-spacing:normal;word-spacing:normal;text-transform:none;direction:ltr;block-progression:tb;writing-mode:lr-tb;text-anchor:start;baseline-shift:baseline;color:#000000;fill:#540000;fill-opacity:1;fill-rule:nonzero;stroke:none;stroke-width:12.08297634;marker:none;visibility:visible;display:inline;overflow:visible;enable-background:accumulate;font-family:Sans;-inkscape-font-specification:Sans"
       d="m 53.031794,855.00876 c -3.146485,0.14996 -7.277746,1.14075 -10.805559,4.40734 -3.942801,3.6509 -4.976276,8.05342 -5.142753,10.93467 -0.264415,4.57636 1.368708,13.77693 1.617944,14.45597 2.21079,6.02322 2.983986,9.40803 6.346593,15.28432 4.958429,9.91461 6.418938,12.20578 12.139933,19.99109 3.215458,2.85621 8.314151,6.43315 12.708353,6.1292 4.392696,-0.30384 7.844317,-1.14715 9.68799,-4.97533 1.378557,-2.86242 2.899118,-5.00468 2.636853,-9.67739 1.402725,1.19971 4.433825,3.9809 6.174294,5.50441 21.975478,19.2361 47.965028,49.6859 67.144698,68.07378 4.79157,4.59383 9.18714,8.55538 13.52141,11.77143 3.64532,2.70474 8.8657,7.13655 17.71071,7.11315 6.17757,-0.016 11.89713,-2.7723 15.51494,-8.22894 2.92259,-4.40787 3.286,-8.88729 3.32256,-11.79932 -0.65029,-10.45536 -2.11542,-16.22772 -5.65804,-26.24803 -1.78257,-3.6175 -4.17242,-6.98665 -7.41213,-9.04229 -3.24473,-2.05883 -6.01525,-2.66479 -9.88038,-1.97101 -4.16198,0.74707 -9.7307,15.29105 -8.33927,11.70992 0.66982,-1.72392 -0.24552,0.33797 -0.37559,0.5021 -17.16079,-16.9894 -41.35807,-43.94695 -64.25552,-63.99011 -20.437202,-17.88961 -32.447176,-27.94799 -40.275261,-33.52925 -1.937565,-1.38146 -3.716809,-2.54908 -5.633915,-3.5984 -0.981296,-0.53711 -4.402584,-2.63015 -9.418748,-2.81736 -0.350562,-0.013 -0.792878,-0.0255 -1.329026,0 z"
       id="path3816"
       inkscape:connector-curvature="0"
       sodipodi:nodetypes="csssccsscsscccccssscsssccc" />
  </g>
</svg>
