<?xml version="1.0" encoding="UTF-8" standalone="no"?>
<!-- Created with Inkscape (http://www.inkscape.org/) -->
<svg
   xmlns:svg="http://www.w3.org/2000/svg"
   xmlns="http://www.w3.org/2000/svg"
   version="1.2"
   width="100%"
   height="100%"
   viewBox="-10 -10 20 20"
   id="svg2">
  <defs
     id="defs11" />
  <title
     id="title6">Lagefixpunkt 1 und 2 begehbar, character A</title>
  <path
     d="M -7.0370371,3.9153441 L -7.3308995e-07,-7.9365079 L 6.8783067,3.9153438 L -7.0370371,3.9153441 z "
     style="fill:white;fill-opacity:1;stroke:none;stroke-width:0.0;stroke-linecap:round;stroke-linejoin:round;stroke-miterlimit:4;stroke-dasharray:none;stroke-opacity:1"
     id="path2770" />
  <path
     d="M -5.9999997e-08,-10.051431 L 8.8121212,5.1021871 L -8.8121212,5.1021871 L -5.9999997e-08,-10.051431 z M -5.9999997e-08,-7.8643112 L -6.9238095,4.008627 L 6.8844697,4.008627 L -5.9999997e-08,-7.8643112 z M -2.7537884,0.18116656 C -2.7537884,-1.3420063 -1.5342536,-2.5527335 -5.9999997e-08,-2.5527335 C 1.534253,-2.5527335 2.7537876,-1.3420063 2.7537876,0.18116656 C 2.7537876,1.7043397 1.534253,2.9150669 -5.9999997e-08,2.9150669 C -1.5342536,2.9150669 -2.7537884,1.7043397 -2.7537884,0.18116656 z M -1.6522729,0.18116656 C -1.6522729,1.0794481 -0.90481634,1.8215069 -5.9999997e-08,1.8215069 C 0.90481584,1.8215069 1.6522725,1.0794481 1.6522725,0.18116656 C 1.6522725,-0.71711494 0.90481584,-1.4591735 -5.9999997e-08,-1.4591735 C -0.90481634,-1.4591735 -1.6522729,-0.71711494 -1.6522729,0.18116656 z "
     style="fill:black;stroke-width:0.0"
     id="path8" />
</svg>
