<?xml version="1.0" encoding="UTF-8" standalone="no"?>
<!-- Created with Inkscape (http://www.inkscape.org/) -->

<svg
   xmlns:svg="http://www.w3.org/2000/svg"
   xmlns="http://www.w3.org/2000/svg"
   version="1.2"
   width="100%"
   height="100%"
   viewBox="-10 -10 20 20"
   id="svg5755">
  <title
     id="title5759">Grenzpunkt Bolzen, character F</title>
  <defs
     id="defs5765" />
  <path
     d="m 14.491526,10 a 4.5762711,4.5762711 0 1 1 -9.1525425,0 4.5762711,4.5762711 0 1 1 9.1525425,0 z"
     transform="matrix(0.57407406,0,0,0.57407406,-5.6920905,-5.7407405)"
     id="path5592"
     style="fill:#ffffff;fill-opacity:1;stroke:#000000;stroke-width:0;" />
  <path
     d="m -3.15,0 c 0,1.7625 1.3875,3.15 3.15,3.15 1.7625,0 3.15,-1.3875 3.15,-3.15 0,-1.7625 -1.3875,-3.15 -3.15,-3.15 -1.7625,0 -3.15,1.3875 -3.15,3.15 z m 1.05,0 c 0,-1.1625 0.9375,-2.1 2.1,-2.1 1.1625,0 2.1,0.9375 2.1,2.1 C 2.1,1.1625 1.1625,2.1 0,2.1 -1.1625,2.1 -2.1,1.1625 -2.1,0 z"
     id="path5761"
     style="fill:#000000;stroke:#000000;stroke-width:0;stroke-miterlimit:4;stroke-opacity:1;stroke-dasharray:none" />
</svg>
