<?xml version="1.0" encoding="UTF-8" standalone="no"?>
<!-- Created with Inkscape (http://www.inkscape.org/) -->

<svg
   xmlns:svg="http://www.w3.org/2000/svg"
   xmlns="http://www.w3.org/2000/svg"
   version="1.2"
   width="100%"
   height="100%"
   viewBox="-10 -10 20 20"
   id="svg5741">
  <title
     id="title5745">Grenzpunkt Markstein / Kunststoffzeichen, character E</title>
  <defs
     id="defs5751" />
  <path
     d="m 14.491526,10 a 4.5762711,4.5762711 0 1 1 -9.1525425,0 4.5762711,4.5762711 0 1 1 9.1525425,0 z"
     transform="matrix(0.80555555,0,0,0.80555555,-8.0296608,-8.0979284)"
     id="path5592"
     style="fill:#ffffff;fill-opacity:1;stroke-width:0" />
<g 
id="text3859"
style="fill:param(fill) #FF0000;stroke:#000000;stroke-width:0;stroke-miterlimit:4;stroke-opacity:1;stroke-dasharray:none"
>

  <path
     d="m -4.2,0 c 0,2.325 1.875,4.2 4.2,4.2 2.325,0 4.2,-1.875 4.2,-4.2 0,-2.325 -1.875,-4.2 -4.2,-4.2 -2.325,0 -4.2,1.875 -4.2,4.2 z m 1.05,0 c 0,-1.725 1.425,-3.15 3.15,-3.15 1.725,0 3.15,1.425 3.15,3.15 C 3.15,1.725 1.725,3.15 0,3.15 -1.725,3.15 -3.15,1.725 -3.15,0 z"
     id="path5747"
      />
</g>
</svg>
