<?xml version="1.0" encoding="UTF-8" standalone="no"?>
<!-- Created with Inkscape (http://www.inkscape.org/) -->

<svg
   xmlns:svg="http://www.w3.org/2000/svg"
   xmlns="http://www.w3.org/2000/svg"
   version="1.2"
   width="100%"
   height="100%"
   viewBox="-10 -10 20 20"
   id="svg5769">
  <title
     id="title5773">Grenzpunkt Rohr/Pfahl, character G</title>
  <defs
     id="defs5779" />
  <path
     d="m 14.491526,10 a 4.5762711,4.5762711 0 1 1 -9.1525425,0 4.5762711,4.5762711 0 1 1 9.1525425,0 z"
     transform="matrix(0.47222221,0,0,0.47222221,-4.6398305,-4.764595)"
     id="path5592"
     style="fill:#ffffff;fill-opacity:1;stroke-width:0" />
  <path
     d="m -2.625,0 c 0,1.4625 1.1625,2.625 2.625,2.625 1.4625,0 2.625,-1.1625 2.625,-2.625 0,-1.4625 -1.1625,-2.625 -2.625,-2.625 -1.4625,0 -2.625,1.1625 -2.625,2.625 z m 1.05,0 c 0,-0.8625 0.7125,-1.575 1.575,-1.575 0.8625,0 1.575,0.7125 1.575,1.575 C 1.575,0.8625 0.8625,1.575 0,1.575 -0.8625,1.575 -1.575,0.8625 -1.575,0 z"
     id="path5775"
     style="fill:#000000;stroke:#000000;stroke-width:0;stroke-miterlimit:4;stroke-opacity:1;stroke-dasharray:none" />
</svg>
